<svg width="48" height="48" viewBox="0 0 48 48" fill="none" xmlns="http://www.w3.org/2000/svg">
<path d="M46.177 20.207H35.6686C35.4331 20.207 35.2422 20.3984 35.2422 20.6344V21.6112C35.2422 21.8472 35.4331 22.0386 35.6686 22.0386H46.177C46.4125 22.0386 46.6034 21.8472 46.6034 21.6112V20.6344C46.6034 20.3984 46.4125 20.207 46.177 20.207Z" fill="#20583B"/>
<path d="M35.7836 22.9561C35.7836 22.1319 35.7836 21.3077 35.7836 20.4835C35.7836 20.2088 35.7836 20.2088 35.5094 20.2088C35.2048 20.2088 34.9003 20.2088 34.5957 20.2088C34.0779 20.2698 33.5601 20.3614 33.0423 20.4835C32.0067 20.6972 31.0015 21.0635 30.0877 21.5824C29.6309 21.8266 29.2044 22.1319 28.7475 22.3761C27.9861 22.8034 27.4074 23.4445 26.8286 24.055C26.6154 24.2992 26.3717 24.5129 26.189 24.7571C25.9149 25.1234 25.6712 25.5202 25.3971 25.917C24.9097 26.7107 24.5442 27.5654 24.2396 28.4201C24.1482 28.6949 24.0569 28.9391 23.9655 29.2138C23.9046 29.5191 23.8437 29.7938 23.7827 30.099C23.7218 30.3433 23.6609 30.618 23.6304 30.8622C23.6 31.3506 23.5695 31.839 23.5391 32.2969C23.5391 33.2127 23.5391 34.1284 23.5391 35.0442C23.5391 35.96 23.5391 36.9063 23.5391 37.8526C23.5391 38.6157 23.5391 39.3788 23.5391 40.142C23.5391 41.4851 23.5391 42.7977 23.5391 44.1408C23.5391 44.2629 23.5391 44.2324 23.5391 44.385C23.5391 44.385 23.9046 44.385 24.1178 44.385C25.2448 44.385 26.3717 44.385 27.4987 44.385C28.8998 44.385 30.301 44.385 31.7325 44.385C33.0423 44.385 34.352 44.385 35.6617 44.4156C35.9968 44.4156 36.3318 44.4156 36.6669 44.4156C37.0324 44.385 37.3979 44.2935 37.7634 44.2324C38.0071 44.1714 38.2812 44.1408 38.5249 44.0798C38.9818 43.9577 39.4386 43.8661 39.8651 43.6829C40.4743 43.4387 41.053 43.164 41.6317 42.8893C41.9972 42.7061 42.3018 42.4619 42.6673 42.2788C43.0328 42.0956 43.3374 41.8209 43.6115 41.5461C44.0379 41.1493 44.4644 40.7525 44.8908 40.3251C45.4086 39.7757 45.8046 39.1346 46.1701 38.4936C46.627 37.7304 46.9925 36.9368 47.2666 36.0821C47.4189 35.5326 47.5712 34.9832 47.693 34.4032C47.7844 34.0063 47.8149 33.64 47.8453 33.2432C47.8453 32.9379 47.9062 32.6632 47.9062 32.3579C47.9062 31.8085 47.9062 31.259 47.9062 30.7096C47.9062 30.099 47.9062 29.458 47.9062 28.8475C47.9062 28.0233 47.9062 27.1991 47.9062 26.4055C47.9062 25.8255 47.9062 25.2455 47.9062 24.6655C47.9062 24.1771 47.9062 23.6887 47.9367 23.2003C47.9367 22.2845 47.9367 21.3993 47.9367 20.4835C47.9367 20.3614 47.9672 20.2698 47.9976 20.1477C46.9925 20.1477 46.0178 20.1477 44.9822 20.1477V20.3919C44.9822 21.9487 44.9822 21.7961 44.9822 21.9792C44.9822 21.9792 44.9517 22.8034 44.9822 22.9561C44.9517 23.0782 44.9213 23.1697 44.8908 23.2003C44.708 23.3834 44.5253 23.5361 44.3425 23.7497C44.1598 23.9329 43.977 24.1771 43.7943 24.3602C43.3679 24.8181 42.911 25.2455 42.4541 25.7034C42.3627 25.795 42.2713 25.8865 42.18 25.9781C42.1495 26.0086 42.0886 26.0391 42.0581 26.0391C42.0581 26.0086 41.9972 25.9476 41.9972 25.8865C41.9972 25.6728 41.9972 25.4286 41.9972 25.215C41.9972 24.5434 41.9972 23.8718 41.9972 23.1697C41.9972 22.7119 41.9972 22.4677 41.9972 21.9792C41.9972 21.4908 41.9972 20.7582 41.9972 20.2698C41.9972 20.1782 41.9363 20.1477 41.8449 20.1477C41.0225 20.1477 40.2001 20.1477 39.3473 20.1172C39.1645 20.1172 39.0122 20.1172 38.8295 20.1172C38.8295 20.1172 38.7381 20.1782 38.7381 20.2088C38.7381 21.0635 38.7381 21.9182 38.7381 22.7729C38.7381 23.6276 38.7381 23.9634 38.7381 24.5434C38.7381 25.0623 38.7381 25.6118 38.7381 26.1307C38.7381 27.077 38.7381 27.9928 38.7381 28.9391C38.7381 29.1528 38.6467 29.3359 38.4944 29.4885C37.6111 30.3433 36.7278 31.198 35.8749 32.0527C35.8445 32.0832 35.7836 32.1137 35.7227 32.1443C35.7227 32.0832 35.6922 32.0527 35.6922 31.9916C35.6922 31.1369 35.6922 30.3127 35.6922 29.458C35.6922 29.0612 35.6922 28.6338 35.6922 28.237C35.6922 27.6265 35.6922 27.016 35.6922 26.3749C35.6922 25.5202 35.6922 24.696 35.6922 23.8413V23.3529M29.6918 38.2799V38.341C33.9256 38.341 38.1594 38.402 42.4236 38.402C42.3627 38.4631 42.3627 38.5241 42.3018 38.5852C42.1495 38.7378 41.9667 38.8904 41.784 39.0431C41.5403 39.2873 41.2966 39.5315 41.0225 39.7146C40.261 40.2641 39.4082 40.6914 38.4944 40.9662C37.7025 41.2104 36.9105 41.363 36.0882 41.363C35.6617 41.363 35.2658 41.363 34.8393 41.363H32.2503C31.3975 41.363 30.5446 41.363 29.7222 41.363C28.7475 41.363 27.8033 41.363 26.8286 41.363C26.585 41.363 26.5545 41.3325 26.5545 41.0883C26.5545 40.8441 26.5545 40.5693 26.5545 40.3251C26.5545 39.562 26.5545 38.7683 26.5545 37.9747C26.5545 37.0589 26.5545 36.1431 26.5545 35.2579C26.5545 34.1895 26.5545 33.1211 26.5545 32.0527C26.5545 30.9843 26.7982 29.9464 27.1637 28.9696C27.4683 28.2065 27.8642 27.4739 28.3516 26.8023C28.5648 26.5276 28.8085 26.2834 29.0521 26.0391C29.3567 25.7339 29.6613 25.3981 29.9964 25.1234C30.2705 24.8792 30.5751 24.696 30.9101 24.5129C31.4584 24.1771 32.0371 23.9024 32.7072 23.7192C32.7072 23.8108 32.7072 23.8718 32.7072 23.9634C32.7072 25.0013 32.7072 26.0392 32.7072 27.077C32.7072 27.9317 32.7072 28.7559 32.7072 29.6106C32.7072 30.1601 32.7072 30.7401 32.7072 31.2896C32.7072 31.778 32.7072 32.2358 32.7072 32.7243C32.7072 33.4569 32.7072 34.1895 32.7072 34.9221C32.7072 35.1663 32.6158 35.3495 32.4635 35.5021C31.6107 36.3568 30.7578 37.181 29.905 38.0357C29.8136 38.1273 29.7222 38.1883 29.6004 38.2494L29.6918 38.2799ZM32.9204 35.3189V35.2579C32.9813 35.1663 33.0727 35.0747 33.1641 34.9831C33.956 34.1895 34.7175 33.3958 35.5094 32.6327C35.6617 32.4801 35.814 32.3885 36.0577 32.3885C36.9715 32.3885 37.8548 32.419 38.7685 32.4495C39.2559 32.4495 39.7432 32.4495 40.2306 32.4495C40.7179 32.4495 41.5099 32.4495 42.1495 32.4495H43.8552C43.9466 32.4495 44.0684 32.4801 44.1598 32.4801C44.3425 32.4801 44.4948 32.4495 44.6776 32.4495C44.9213 32.4495 44.9213 32.4495 44.8908 32.6937C44.8603 33.5484 44.6776 34.4032 44.4339 35.2579C44.4035 35.38 44.3425 35.441 44.1902 35.441C43.1242 35.441 42.0277 35.441 40.9616 35.441C39.5605 35.441 38.1289 35.441 36.7278 35.441C35.5094 35.441 34.2911 35.441 33.1032 35.441C33.0423 35.441 33.0118 35.441 32.9509 35.441L32.9204 35.3189ZM40.4133 29.3359C39.9869 29.3359 39.5909 29.3359 39.1645 29.3359C39.1036 29.3359 39.0427 29.3359 38.9818 29.2749C38.9818 29.2138 39.0427 29.1528 39.0731 29.1222C39.9564 28.2675 40.8093 27.3823 41.6926 26.5276C41.8449 26.3749 42.0277 26.2528 42.2713 26.2834C42.4236 26.2834 42.5759 26.2834 42.6978 26.2834C43.3678 26.2834 44.038 26.2834 44.7385 26.2834C44.8908 26.2834 44.9213 26.3139 44.9213 26.4665C44.9213 26.8023 44.9213 27.1686 44.9213 27.5044C44.9213 28.0538 44.9213 28.6338 44.9213 29.1833C44.9213 29.2749 44.8603 29.3359 44.769 29.3359C44.5862 29.3359 44.373 29.3359 44.1902 29.3359C43.7029 29.3359 43.2156 29.3359 42.7282 29.3359C42.3627 29.3359 41.9972 29.3359 41.6317 29.3359C41.2357 29.3359 40.8093 29.3359 40.4133 29.3359Z" fill="#20583B"/>
<path d="M1.83085 22.0391H12.3392C12.5747 22.0391 12.7656 21.8477 12.7656 21.6117V20.6349C12.7656 20.3989 12.5747 20.2075 12.3392 20.2075H1.83085C1.59535 20.2075 1.40443 20.3989 1.40443 20.6349V21.6117C1.40443 21.8477 1.59535 22.0391 1.83085 22.0391Z" fill="#20583B"/>
<path d="M12.214 22.9561C12.214 22.1319 12.214 21.3077 12.214 20.4835C12.214 20.2088 12.214 20.2088 12.4882 20.2088C12.7928 20.2088 13.0974 20.2088 13.4019 20.2088C13.9197 20.2698 14.4376 20.3614 14.9554 20.4835C15.991 20.6972 16.9961 21.0635 17.9099 21.5824C18.3668 21.8266 18.7932 22.1319 19.2501 22.3761C20.0115 22.8034 20.5903 23.4445 21.169 24.055C21.3822 24.2992 21.6259 24.5129 21.8086 24.7571C22.0828 25.1234 22.3264 25.5202 22.6006 25.917C23.0879 26.7107 23.4534 27.5654 23.758 28.4201C23.8494 28.6949 23.9408 28.9391 24.0321 29.2138C24.093 29.5191 24.154 29.7938 24.2149 30.099C24.2758 30.3433 24.3367 30.618 24.3672 30.8622C24.3976 31.3506 24.4281 31.839 24.4586 32.2969C24.4586 33.2127 24.4586 34.1284 24.4586 35.0442C24.4586 35.96 24.4586 36.9063 24.4586 37.8526C24.4586 38.6157 24.4586 39.3788 24.4586 40.142C24.4586 41.4851 24.4586 42.7977 24.4586 44.1408C24.4586 44.2629 24.4586 44.2324 24.4586 44.385C24.4586 44.385 24.093 44.385 23.8798 44.385C22.7529 44.385 21.6259 44.385 20.4989 44.385C19.0978 44.385 17.6967 44.385 16.2651 44.385C14.9554 44.385 13.6456 44.385 12.3359 44.4156C12.0008 44.4156 11.6658 44.4156 11.3307 44.4156C10.9652 44.385 10.5997 44.2935 10.2342 44.2324C9.99054 44.1714 9.71641 44.1408 9.47274 44.0798C9.01586 43.9577 8.55897 43.8661 8.13255 43.6829C7.52337 43.4387 6.94465 43.164 6.36592 42.8893C6.00042 42.7061 5.69583 42.4619 5.33032 42.2788C4.96481 42.0956 4.66022 41.8209 4.38609 41.5461C3.95967 41.1493 3.53324 40.7525 3.10682 40.3251C2.58901 39.7757 2.19305 39.1346 1.82754 38.4936C1.37065 37.7304 1.00515 36.9368 0.731016 36.0821C0.578721 35.5326 0.426426 34.9832 0.30459 34.4032C0.213213 34.0063 0.182754 33.64 0.152295 33.2432C0.152295 32.9379 0.0913778 32.6632 0.0913778 32.3579C0.0913778 31.8085 0.0913778 31.259 0.0913778 30.7096C0.0913778 30.099 0.0913778 29.458 0.0913778 28.8475C0.0913778 28.0233 0.0913778 27.1991 0.0913778 26.4055C0.0913778 25.8255 0.0913778 25.2455 0.0913778 24.6655C0.0913778 24.1771 0.0913783 23.6887 0.0609193 23.2003C0.0609193 22.2845 0.0609193 21.3993 0.0609193 20.4835C0.0609193 20.3614 0.030459 20.2698 0 20.1477C1.00515 20.1477 1.97983 20.1477 3.01544 20.1477V20.3919C3.01544 21.9487 3.01544 21.7961 3.01544 21.9792C3.01544 21.9792 3.0459 22.8034 3.01544 22.9561C3.0459 23.0782 3.07636 23.1697 3.10682 23.2003C3.28957 23.3834 3.47232 23.5361 3.65508 23.7497C3.83783 23.9329 4.02058 24.1771 4.20334 24.3602C4.62976 24.8181 5.08665 25.2455 5.54353 25.7034C5.63491 25.795 5.72629 25.8865 5.81766 25.9781C5.84812 26.0086 5.90904 26.0391 5.9395 26.0391C5.9395 26.0086 6.00042 25.9476 6.00042 25.8865C6.00042 25.6728 6.00042 25.4286 6.00042 25.215C6.00042 24.5434 6.00042 23.8718 6.00042 23.1697C6.00042 22.7119 6.00042 22.4677 6.00042 21.9792C6.00042 21.4908 6.00042 20.7582 6.00042 20.2698C6.00042 20.1782 6.06134 20.1477 6.15271 20.1477C6.97511 20.1477 7.7975 20.1477 8.65035 20.1172C8.8331 20.1172 8.9854 20.1172 9.16815 20.1172C9.16815 20.1172 9.25953 20.1782 9.25953 20.2088C9.25953 21.0635 9.25953 21.9182 9.25953 22.7729C9.25953 23.6276 9.25953 23.9634 9.25953 24.5434C9.25953 25.0623 9.25953 25.6118 9.25953 26.1307C9.25953 27.077 9.25953 27.9928 9.25953 28.9391C9.25953 29.1528 9.3509 29.3359 9.5032 29.4885C10.3865 30.3433 11.2698 31.198 12.1227 32.0527C12.1531 32.0832 12.214 32.1137 12.275 32.1443C12.275 32.0832 12.3054 32.0527 12.3054 31.9916C12.3054 31.1369 12.3054 30.3127 12.3054 29.458C12.3054 29.0612 12.3054 28.6338 12.3054 28.237C12.3054 27.6265 12.3054 27.016 12.3054 26.3749C12.3054 25.5202 12.3054 24.696 12.3054 23.8413V23.3529M18.3363 38.2799V38.341C14.1025 38.341 9.86871 38.402 5.60445 38.402C5.66537 38.4631 5.66537 38.5241 5.72629 38.5852C5.87858 38.7378 6.06133 38.8904 6.24409 39.0431C6.48776 39.2873 6.73143 39.5315 7.00556 39.7146C7.76704 40.2641 8.61989 40.6914 9.53366 40.9662C10.3256 41.2104 11.1175 41.363 11.9399 41.363C12.3663 41.363 12.7623 41.363 13.1887 41.363H15.7777C16.6306 41.363 17.4834 41.363 18.3058 41.363C19.2805 41.363 20.2248 41.363 21.1994 41.363C21.4431 41.363 21.4736 41.3325 21.4736 41.0883C21.4736 40.8441 21.4736 40.5693 21.4736 40.3251C21.4736 39.562 21.4736 38.7683 21.4736 37.9747C21.4736 37.0589 21.4736 36.1431 21.4736 35.2579C21.4736 34.1895 21.4736 33.1211 21.4736 32.0527C21.4736 30.9843 21.2299 29.9464 20.8644 28.9696C20.5598 28.2065 20.1638 27.4739 19.6765 26.8023C19.4633 26.5276 19.2196 26.2834 18.9759 26.0391C18.6713 25.7339 18.3668 25.3981 18.0317 25.1234C17.7576 24.8792 17.453 24.696 17.1179 24.5129C16.5697 24.1771 15.991 23.9024 15.3209 23.7192C15.3209 23.8108 15.3209 23.8718 15.3209 23.9634C15.3209 25.0013 15.3209 26.0392 15.3209 27.077C15.3209 27.9317 15.3209 28.7559 15.3209 29.6106C15.3209 30.1601 15.3209 30.7401 15.3209 31.2896C15.3209 31.778 15.3209 32.2358 15.3209 32.7243C15.3209 33.4569 15.3209 34.1895 15.3209 34.9221C15.3209 35.1663 15.4122 35.3495 15.5645 35.5021C16.4174 36.3568 17.2702 37.181 18.1231 38.0357C18.2145 38.1273 18.3058 38.1883 18.4277 38.2494L18.3363 38.2799ZM15.1077 35.3189V35.2579C15.0467 35.1663 14.9554 35.0747 14.864 34.9831C14.072 34.1895 13.3106 33.3958 12.5186 32.6327C12.3663 32.4801 12.214 32.3885 11.9704 32.3885C11.0566 32.3885 10.1733 32.419 9.25953 32.4495C8.77218 32.4495 8.28484 32.4495 7.7975 32.4495C7.31015 32.4495 6.51822 32.4495 5.87858 32.4495H4.17288C4.0815 32.4495 3.95967 32.4801 3.86829 32.4801C3.68554 32.4801 3.53324 32.4495 3.35049 32.4495C3.10681 32.4495 3.10682 32.4495 3.13727 32.6937C3.16773 33.5484 3.35049 34.4032 3.59416 35.2579C3.62462 35.38 3.68554 35.441 3.83783 35.441C4.9039 35.441 6.00042 35.441 7.06648 35.441C8.46759 35.441 9.89917 35.441 11.3003 35.441C12.5186 35.441 13.737 35.441 14.9249 35.441C14.9858 35.441 15.0163 35.441 15.0772 35.441L15.1077 35.3189ZM7.58428 29.3359C8.01071 29.3359 8.40668 29.3359 8.8331 29.3359C8.89402 29.3359 8.95494 29.3359 9.01586 29.2749C9.01586 29.2138 8.95494 29.1528 8.92448 29.1222C8.04117 28.2675 7.18832 27.3823 6.30501 26.5276C6.15271 26.3749 5.96996 26.2528 5.72629 26.2834C5.57399 26.2834 5.4217 26.2834 5.29986 26.2834C4.62976 26.2834 3.95967 26.2834 3.25911 26.2834C3.10682 26.2834 3.07636 26.3139 3.07636 26.4665C3.07636 26.8023 3.07636 27.1686 3.07636 27.5044C3.07636 28.0538 3.07636 28.6338 3.07636 29.1833C3.07636 29.2749 3.13728 29.3359 3.22865 29.3359C3.41141 29.3359 3.62462 29.3359 3.80737 29.3359C4.29471 29.3359 4.78206 29.3359 5.2694 29.3359C5.63491 29.3359 6.00042 29.3359 6.36592 29.3359C6.76189 29.3359 7.18832 29.3359 7.58428 29.3359Z" fill="#20583B"/>
<path d="M12.9531 17.2488C13.3491 9.86159 20.2328 5.13013 26.7815 6.99219C31.5026 8.33531 34.7008 12.4563 34.8836 17.6151C34.914 18.6224 33.8784 19.4466 32.6296 19.4161C32.1423 19.4161 31.6245 19.355 31.1371 19.2329C26.2332 18.1035 21.3293 18.134 16.4255 19.2635C15.6944 19.4466 14.9634 19.5687 14.2324 19.2024C13.1359 18.6835 12.9531 18.4393 12.9531 17.2183V17.2488Z" fill="#DDAE07"/>
<path d="M24.7266 4.0278C24.7875 3.11203 24.8484 2.25731 24.9093 1.4026C24.9702 0.517355 25.5185 0.517349 26.0972 0.547875C26.7369 0.5784 27.0719 0.853133 26.9196 1.6468C26.7369 2.62362 26.615 3.63096 26.4627 4.60778C26.3714 5.24882 26.1886 5.79828 25.4271 5.70671C24.6961 5.5846 24.757 4.97409 24.7266 4.3941V3.99727V4.0278Z" fill="#DDAE07"/>
<path d="M19.646 5.64857C19.7069 6.22856 19.4023 6.44224 19.0368 6.62539C18.6713 6.80855 18.3667 6.65591 18.1839 6.25908C17.7271 5.19069 17.2702 4.12229 16.8438 3.02337C16.4782 2.07708 17.2702 2.04656 17.6966 1.7413C18.1535 1.43604 18.4276 1.64972 18.6104 2.19918C19.0368 3.32863 19.3109 4.51912 19.5851 5.64857H19.646Z" fill="#DDAE07"/>
<path d="M31.6217 8.02917C30.9516 8.02917 30.4338 7.23551 30.7689 6.625C31.3171 5.58713 31.9263 4.6103 32.505 3.60296C32.9314 2.87034 33.3883 3.20613 33.8452 3.57244C34.3021 3.93874 34.6981 4.27453 34.1803 4.94609C33.5102 5.83133 32.8705 6.74709 32.2004 7.63234C32.0481 7.84602 31.8654 7.99865 31.6217 7.99865V8.02917Z" fill="#DDAE07"/>
<path d="M37.6192 7.54123C37.6192 7.90754 37.4364 8.09069 37.2537 8.24331C36.3399 8.88435 35.4261 9.49486 34.5124 10.1664C33.8727 10.6243 33.4768 10.3191 33.0503 9.89169C32.5934 9.40328 32.9894 9.09803 33.3245 8.8233C34.1164 8.15174 34.8779 7.48017 35.6698 6.80861C35.9439 6.59493 36.1876 6.25915 36.5836 6.50335C37.0709 6.77808 37.4669 7.17492 37.6192 7.60227V7.54123Z" fill="#DDAE07"/>
<path d="M22.7174 4.57959C22.8393 5.46483 22.4433 5.70904 21.956 5.83114C21.4077 5.95324 21.2249 5.58694 21.1336 5.09853C20.9204 3.93855 20.7071 2.77858 20.5548 1.6186C20.433 0.794413 21.0422 0.733365 21.4991 0.611263C22.0169 0.489161 22.4433 0.611263 22.4738 1.3744C22.5347 2.53437 22.7479 4.06065 22.7479 4.57959H22.7174Z" fill="#DDAE07"/>
<path d="M13.3116 12.3389C13.3116 12.9189 12.672 13.2852 11.9715 13.1021C10.8749 12.7663 9.77841 12.4 8.68189 12.0337C7.73766 11.6979 8.52959 10.8127 8.52959 10.8127C8.62097 10.6906 9.01694 10.08 9.68703 10.3853C10.6922 10.8432 11.6973 11.2705 12.7025 11.6979C13.0375 11.8505 13.3421 11.9726 13.3116 12.3389Z" fill="#DDAE07"/>
<path d="M14.4011 3.72266C14.7666 3.72266 14.9494 3.96685 15.1321 4.21106C15.7413 5.0963 16.32 6.01207 16.8987 6.92784C17.1119 7.26362 17.2642 7.5994 16.8378 7.87413C16.4419 8.14886 16.0154 8.45412 15.5585 7.99624C14.7362 7.08047 13.9442 6.1647 13.1827 5.21841C12.8477 4.82158 13.731 3.78371 14.4011 3.72266Z" fill="#DDAE07"/>
<path d="M39.473 11.3231C39.5034 11.6894 39.2293 11.8421 38.9247 11.9642C37.8891 12.3915 36.8231 12.8189 35.7875 13.2462C35.2696 13.4599 34.9041 13.3683 34.6605 12.8799C34.4168 12.422 34.3254 12.0252 34.9651 11.72C35.8788 11.2621 36.7621 10.7431 37.6454 10.2547C38.6506 9.73579 39.5034 10.2242 39.473 11.3231Z" fill="#DDAE07"/>
<path d="M28.6827 6.50194C28.2258 6.31879 27.6166 6.19669 27.8603 5.31145C28.1649 4.21253 28.4695 3.11361 28.7741 2.01469C28.9263 1.4347 29.2309 1.09892 29.7487 1.46522C30.1752 1.77048 31.028 1.77048 30.6625 2.7473C30.2361 3.87675 29.7792 4.97567 29.3223 6.07459C29.2005 6.34932 29.0482 6.563 28.6827 6.50194Z" fill="#DDAE07"/>
<path d="M10.6364 16.1173C9.87488 16.0257 8.93065 15.9341 8.01689 15.8426C7.25541 15.751 7.0422 15.3541 7.19449 14.7131C7.34679 14.1026 7.7123 13.7668 8.44331 13.9194C9.44846 14.1331 10.4536 14.3773 11.4283 14.5605C12.007 14.6826 12.3116 14.8963 12.2507 15.4457C12.1593 15.9952 11.7633 16.1478 11.1846 16.1173C11.0323 16.1173 10.9105 16.1173 10.6059 16.1173H10.6364Z" fill="#DDAE07"/>
<path d="M37.8009 18.9274C38.5624 18.8663 39.5066 18.7748 40.4204 18.6527C41.1818 18.5611 41.3951 18.1948 41.2428 17.6148C41.0905 17.0348 40.725 16.7601 39.9939 16.9127C38.9888 17.0959 37.9836 17.3401 36.9785 17.5232C36.3998 17.6148 36.0952 17.8285 36.1561 18.3169C36.2475 18.8053 36.6434 18.9579 37.2222 18.9274C37.3745 18.9274 37.4963 18.9274 37.8009 18.9274Z" fill="#DDAE07"/>
<path d="M10.0671 19.082C9.27519 19.082 8.36141 19.0514 7.44765 19.0209C6.68617 18.9904 6.4425 18.6241 6.53388 18.0441C6.62525 17.4641 6.9603 17.1588 7.72178 17.2504C8.72692 17.3725 9.73207 17.5252 10.7677 17.6167C11.3464 17.6778 11.6814 17.8609 11.651 18.3493C11.6205 18.8683 11.1941 19.0209 10.6458 19.0514C10.4935 19.0514 10.3717 19.0514 10.0671 19.082Z" fill="#DDAE07"/>
<path d="M37.4025 15.9024C38.1639 15.8109 39.1082 15.7193 40.0219 15.6277C40.7834 15.5361 40.9966 15.1393 40.8443 14.4983C40.692 13.8878 40.3265 13.552 39.5955 13.7046C38.5903 13.9183 37.5852 14.1625 36.5801 14.3456C36.0013 14.4677 35.6968 14.6814 35.7577 15.2309C35.849 15.7803 36.245 15.933 36.8237 15.9024C36.976 15.9024 37.0979 15.9024 37.4025 15.9024Z" fill="#DDAE07"/>
<path d="M14.9628 9.49131C14.9628 10.0408 14.2927 10.5597 13.8053 10.346C12.5565 9.79657 11.46 8.97237 10.3939 8.17871C9.84567 7.75135 10.7594 6.98821 10.7594 6.98821C10.7594 6.98821 11.1554 6.46928 11.7037 6.65243C12.8307 7.4461 13.8967 8.30081 14.8409 9.27763C14.9019 9.33868 14.9019 9.46079 14.9323 9.52184L14.9628 9.49131Z" fill="#DDAE07"/>
<path d="M46.177 20.207H35.6686C35.4331 20.207 35.2422 20.3984 35.2422 20.6344V21.6112C35.2422 21.8472 35.4331 22.0386 35.6686 22.0386H46.177C46.4125 22.0386 46.6034 21.8472 46.6034 21.6112V20.6344C46.6034 20.3984 46.4125 20.207 46.177 20.207Z" fill="#20583B"/>
<path d="M35.7836 22.9561C35.7836 22.1319 35.7836 21.3077 35.7836 20.4835C35.7836 20.2088 35.7836 20.2088 35.5094 20.2088C35.2048 20.2088 34.9003 20.2088 34.5957 20.2088C34.0779 20.2698 33.5601 20.3614 33.0423 20.4835C32.0067 20.6972 31.0015 21.0635 30.0877 21.5824C29.6309 21.8266 29.2044 22.1319 28.7475 22.3761C27.9861 22.8034 27.4074 23.4445 26.8286 24.055C26.6154 24.2992 26.3717 24.5129 26.189 24.7571C25.9149 25.1234 25.6712 25.5202 25.3971 25.917C24.9097 26.7107 24.5442 27.5654 24.2396 28.4201C24.1482 28.6949 24.0569 28.9391 23.9655 29.2138C23.9046 29.5191 23.8437 29.7938 23.7827 30.099C23.7218 30.3433 23.6609 30.618 23.6304 30.8622C23.6 31.3506 23.5695 31.839 23.5391 32.2969C23.5391 33.2127 23.5391 34.1284 23.5391 35.0442C23.5391 35.96 23.5391 36.9063 23.5391 37.8526C23.5391 38.6157 23.5391 39.3788 23.5391 40.142C23.5391 41.4851 23.5391 42.7977 23.5391 44.1408C23.5391 44.2629 23.5391 44.2324 23.5391 44.385C23.5391 44.385 23.9046 44.385 24.1178 44.385C25.2448 44.385 26.3717 44.385 27.4987 44.385C28.8998 44.385 30.301 44.385 31.7325 44.385C33.0423 44.385 34.352 44.385 35.6617 44.4156C35.9968 44.4156 36.3318 44.4156 36.6669 44.4156C37.0324 44.385 37.3979 44.2935 37.7634 44.2324C38.0071 44.1714 38.2812 44.1408 38.5249 44.0798C38.9818 43.9577 39.4386 43.8661 39.8651 43.6829C40.4743 43.4387 41.053 43.164 41.6317 42.8893C41.9972 42.7061 42.3018 42.4619 42.6673 42.2788C43.0328 42.0956 43.3374 41.8209 43.6115 41.5461C44.0379 41.1493 44.4644 40.7525 44.8908 40.3251C45.4086 39.7757 45.8046 39.1346 46.1701 38.4936C46.627 37.7304 46.9925 36.9368 47.2666 36.0821C47.4189 35.5326 47.5712 34.9832 47.693 34.4032C47.7844 34.0063 47.8149 33.64 47.8453 33.2432C47.8453 32.9379 47.9062 32.6632 47.9062 32.3579C47.9062 31.8085 47.9062 31.259 47.9062 30.7096C47.9062 30.099 47.9062 29.458 47.9062 28.8475C47.9062 28.0233 47.9062 27.1991 47.9062 26.4055C47.9062 25.8255 47.9062 25.2455 47.9062 24.6655C47.9062 24.1771 47.9062 23.6887 47.9367 23.2003C47.9367 22.2845 47.9367 21.3993 47.9367 20.4835C47.9367 20.3614 47.9672 20.2698 47.9976 20.1477C46.9925 20.1477 46.0178 20.1477 44.9822 20.1477V20.3919C44.9822 21.9487 44.9822 21.7961 44.9822 21.9792C44.9822 21.9792 44.9517 22.8034 44.9822 22.9561C44.9517 23.0782 44.9213 23.1697 44.8908 23.2003C44.708 23.3834 44.5253 23.5361 44.3425 23.7497C44.1598 23.9329 43.977 24.1771 43.7943 24.3602C43.3679 24.8181 42.911 25.2455 42.4541 25.7034C42.3627 25.795 42.2713 25.8865 42.18 25.9781C42.1495 26.0086 42.0886 26.0391 42.0581 26.0391C42.0581 26.0086 41.9972 25.9476 41.9972 25.8865C41.9972 25.6728 41.9972 25.4286 41.9972 25.215C41.9972 24.5434 41.9972 23.8718 41.9972 23.1697C41.9972 22.7119 41.9972 22.4677 41.9972 21.9792C41.9972 21.4908 41.9972 20.7582 41.9972 20.2698C41.9972 20.1782 41.9363 20.1477 41.8449 20.1477C41.0225 20.1477 40.2001 20.1477 39.3473 20.1172C39.1645 20.1172 39.0122 20.1172 38.8295 20.1172C38.8295 20.1172 38.7381 20.1782 38.7381 20.2088C38.7381 21.0635 38.7381 21.9182 38.7381 22.7729C38.7381 23.6276 38.7381 23.9634 38.7381 24.5434C38.7381 25.0623 38.7381 25.6118 38.7381 26.1307C38.7381 27.077 38.7381 27.9928 38.7381 28.9391C38.7381 29.1528 38.6467 29.3359 38.4944 29.4885C37.6111 30.3433 36.7278 31.198 35.8749 32.0527C35.8445 32.0832 35.7836 32.1137 35.7227 32.1443C35.7227 32.0832 35.6922 32.0527 35.6922 31.9916C35.6922 31.1369 35.6922 30.3127 35.6922 29.458C35.6922 29.0612 35.6922 28.6338 35.6922 28.237C35.6922 27.6265 35.6922 27.016 35.6922 26.3749C35.6922 25.5202 35.6922 24.696 35.6922 23.8413V23.3529M29.6918 38.2799V38.341C33.9256 38.341 38.1594 38.402 42.4236 38.402C42.3627 38.4631 42.3627 38.5241 42.3018 38.5852C42.1495 38.7378 41.9667 38.8904 41.784 39.0431C41.5403 39.2873 41.2966 39.5315 41.0225 39.7146C40.261 40.2641 39.4082 40.6914 38.4944 40.9662C37.7025 41.2104 36.9105 41.363 36.0882 41.363C35.6617 41.363 35.2658 41.363 34.8393 41.363H32.2503C31.3975 41.363 30.5446 41.363 29.7222 41.363C28.7475 41.363 27.8033 41.363 26.8286 41.363C26.585 41.363 26.5545 41.3325 26.5545 41.0883C26.5545 40.8441 26.5545 40.5693 26.5545 40.3251C26.5545 39.562 26.5545 38.7683 26.5545 37.9747C26.5545 37.0589 26.5545 36.1431 26.5545 35.2579C26.5545 34.1895 26.5545 33.1211 26.5545 32.0527C26.5545 30.9843 26.7982 29.9464 27.1637 28.9696C27.4683 28.2065 27.8642 27.4739 28.3516 26.8023C28.5648 26.5276 28.8085 26.2834 29.0521 26.0391C29.3567 25.7339 29.6613 25.3981 29.9964 25.1234C30.2705 24.8792 30.5751 24.696 30.9101 24.5129C31.4584 24.1771 32.0371 23.9024 32.7072 23.7192C32.7072 23.8108 32.7072 23.8718 32.7072 23.9634C32.7072 25.0013 32.7072 26.0392 32.7072 27.077C32.7072 27.9317 32.7072 28.7559 32.7072 29.6106C32.7072 30.1601 32.7072 30.7401 32.7072 31.2896C32.7072 31.778 32.7072 32.2358 32.7072 32.7243C32.7072 33.4569 32.7072 34.1895 32.7072 34.9221C32.7072 35.1663 32.6158 35.3495 32.4635 35.5021C31.6107 36.3568 30.7578 37.181 29.905 38.0357C29.8136 38.1273 29.7222 38.1883 29.6004 38.2494L29.6918 38.2799ZM32.9204 35.3189V35.2579C32.9813 35.1663 33.0727 35.0747 33.1641 34.9831C33.956 34.1895 34.7175 33.3958 35.5094 32.6327C35.6617 32.4801 35.814 32.3885 36.0577 32.3885C36.9715 32.3885 37.8548 32.419 38.7685 32.4495C39.2559 32.4495 39.7432 32.4495 40.2306 32.4495C40.7179 32.4495 41.5099 32.4495 42.1495 32.4495H43.8552C43.9466 32.4495 44.0684 32.4801 44.1598 32.4801C44.3425 32.4801 44.4948 32.4495 44.6776 32.4495C44.9213 32.4495 44.9213 32.4495 44.8908 32.6937C44.8603 33.5484 44.6776 34.4032 44.4339 35.2579C44.4035 35.38 44.3425 35.441 44.1902 35.441C43.1242 35.441 42.0277 35.441 40.9616 35.441C39.5605 35.441 38.1289 35.441 36.7278 35.441C35.5094 35.441 34.2911 35.441 33.1032 35.441C33.0423 35.441 33.0118 35.441 32.9509 35.441L32.9204 35.3189ZM40.4133 29.3359C39.9869 29.3359 39.5909 29.3359 39.1645 29.3359C39.1036 29.3359 39.0427 29.3359 38.9818 29.2749C38.9818 29.2138 39.0427 29.1528 39.0731 29.1222C39.9564 28.2675 40.8093 27.3823 41.6926 26.5276C41.8449 26.3749 42.0277 26.2528 42.2713 26.2834C42.4236 26.2834 42.5759 26.2834 42.6978 26.2834C43.3678 26.2834 44.038 26.2834 44.7385 26.2834C44.8908 26.2834 44.9213 26.3139 44.9213 26.4665C44.9213 26.8023 44.9213 27.1686 44.9213 27.5044C44.9213 28.0538 44.9213 28.6338 44.9213 29.1833C44.9213 29.2749 44.8603 29.3359 44.769 29.3359C44.5862 29.3359 44.373 29.3359 44.1902 29.3359C43.7029 29.3359 43.2156 29.3359 42.7282 29.3359C42.3627 29.3359 41.9972 29.3359 41.6317 29.3359C41.2357 29.3359 40.8093 29.3359 40.4133 29.3359Z" fill="#20583B"/>
<path d="M1.83085 22.0391H12.3392C12.5747 22.0391 12.7656 21.8477 12.7656 21.6117V20.6349C12.7656 20.3989 12.5747 20.2075 12.3392 20.2075H1.83085C1.59535 20.2075 1.40443 20.3989 1.40443 20.6349V21.6117C1.40443 21.8477 1.59535 22.0391 1.83085 22.0391Z" fill="#20583B"/>
<path d="M12.214 22.9561C12.214 22.1319 12.214 21.3077 12.214 20.4835C12.214 20.2088 12.214 20.2088 12.4882 20.2088C12.7928 20.2088 13.0974 20.2088 13.4019 20.2088C13.9197 20.2698 14.4376 20.3614 14.9554 20.4835C15.991 20.6972 16.9961 21.0635 17.9099 21.5824C18.3668 21.8266 18.7932 22.1319 19.2501 22.3761C20.0115 22.8034 20.5903 23.4445 21.169 24.055C21.3822 24.2992 21.6259 24.5129 21.8086 24.7571C22.0828 25.1234 22.3264 25.5202 22.6006 25.917C23.0879 26.7107 23.4534 27.5654 23.758 28.4201C23.8494 28.6949 23.9408 28.9391 24.0321 29.2138C24.093 29.5191 24.154 29.7938 24.2149 30.099C24.2758 30.3433 24.3367 30.618 24.3672 30.8622C24.3976 31.3506 24.4281 31.839 24.4586 32.2969C24.4586 33.2127 24.4586 34.1284 24.4586 35.0442C24.4586 35.96 24.4586 36.9063 24.4586 37.8526C24.4586 38.6157 24.4586 39.3788 24.4586 40.142C24.4586 41.4851 24.4586 42.7977 24.4586 44.1408C24.4586 44.2629 24.4586 44.2324 24.4586 44.385C24.4586 44.385 24.093 44.385 23.8798 44.385C22.7529 44.385 21.6259 44.385 20.4989 44.385C19.0978 44.385 17.6967 44.385 16.2651 44.385C14.9554 44.385 13.6456 44.385 12.3359 44.4156C12.0008 44.4156 11.6658 44.4156 11.3307 44.4156C10.9652 44.385 10.5997 44.2935 10.2342 44.2324C9.99054 44.1714 9.71641 44.1408 9.47274 44.0798C9.01586 43.9577 8.55897 43.8661 8.13255 43.6829C7.52337 43.4387 6.94465 43.164 6.36592 42.8893C6.00042 42.7061 5.69583 42.4619 5.33032 42.2788C4.96481 42.0956 4.66022 41.8209 4.38609 41.5461C3.95967 41.1493 3.53324 40.7525 3.10682 40.3251C2.58901 39.7757 2.19305 39.1346 1.82754 38.4936C1.37065 37.7304 1.00515 36.9368 0.731016 36.0821C0.578721 35.5326 0.426426 34.9832 0.30459 34.4032C0.213213 34.0063 0.182754 33.64 0.152295 33.2432C0.152295 32.9379 0.0913778 32.6632 0.0913778 32.3579C0.0913778 31.8085 0.0913778 31.259 0.0913778 30.7096C0.0913778 30.099 0.0913778 29.458 0.0913778 28.8475C0.0913778 28.0233 0.0913778 27.1991 0.0913778 26.4055C0.0913778 25.8255 0.0913778 25.2455 0.0913778 24.6655C0.0913778 24.1771 0.0913783 23.6887 0.0609193 23.2003C0.0609193 22.2845 0.0609193 21.3993 0.0609193 20.4835C0.0609193 20.3614 0.030459 20.2698 0 20.1477C1.00515 20.1477 1.97983 20.1477 3.01544 20.1477V20.3919C3.01544 21.9487 3.01544 21.7961 3.01544 21.9792C3.01544 21.9792 3.0459 22.8034 3.01544 22.9561C3.0459 23.0782 3.07636 23.1697 3.10682 23.2003C3.28957 23.3834 3.47232 23.5361 3.65508 23.7497C3.83783 23.9329 4.02058 24.1771 4.20334 24.3602C4.62976 24.8181 5.08665 25.2455 5.54353 25.7034C5.63491 25.795 5.72629 25.8865 5.81766 25.9781C5.84812 26.0086 5.90904 26.0391 5.9395 26.0391C5.9395 26.0086 6.00042 25.9476 6.00042 25.8865C6.00042 25.6728 6.00042 25.4286 6.00042 25.215C6.00042 24.5434 6.00042 23.8718 6.00042 23.1697C6.00042 22.7119 6.00042 22.4677 6.00042 21.9792C6.00042 21.4908 6.00042 20.7582 6.00042 20.2698C6.00042 20.1782 6.06134 20.1477 6.15271 20.1477C6.97511 20.1477 7.7975 20.1477 8.65035 20.1172C8.8331 20.1172 8.9854 20.1172 9.16815 20.1172C9.16815 20.1172 9.25953 20.1782 9.25953 20.2088C9.25953 21.0635 9.25953 21.9182 9.25953 22.7729C9.25953 23.6276 9.25953 23.9634 9.25953 24.5434C9.25953 25.0623 9.25953 25.6118 9.25953 26.1307C9.25953 27.077 9.25953 27.9928 9.25953 28.9391C9.25953 29.1528 9.3509 29.3359 9.5032 29.4885C10.3865 30.3433 11.2698 31.198 12.1227 32.0527C12.1531 32.0832 12.214 32.1137 12.275 32.1443C12.275 32.0832 12.3054 32.0527 12.3054 31.9916C12.3054 31.1369 12.3054 30.3127 12.3054 29.458C12.3054 29.0612 12.3054 28.6338 12.3054 28.237C12.3054 27.6265 12.3054 27.016 12.3054 26.3749C12.3054 25.5202 12.3054 24.696 12.3054 23.8413V23.3529M18.3363 38.2799V38.341C14.1025 38.341 9.86871 38.402 5.60445 38.402C5.66537 38.4631 5.66537 38.5241 5.72629 38.5852C5.87858 38.7378 6.06133 38.8904 6.24409 39.0431C6.48776 39.2873 6.73143 39.5315 7.00556 39.7146C7.76704 40.2641 8.61989 40.6914 9.53366 40.9662C10.3256 41.2104 11.1175 41.363 11.9399 41.363C12.3663 41.363 12.7623 41.363 13.1887 41.363H15.7777C16.6306 41.363 17.4834 41.363 18.3058 41.363C19.2805 41.363 20.2248 41.363 21.1994 41.363C21.4431 41.363 21.4736 41.3325 21.4736 41.0883C21.4736 40.8441 21.4736 40.5693 21.4736 40.3251C21.4736 39.562 21.4736 38.7683 21.4736 37.9747C21.4736 37.0589 21.4736 36.1431 21.4736 35.2579C21.4736 34.1895 21.4736 33.1211 21.4736 32.0527C21.4736 30.9843 21.2299 29.9464 20.8644 28.9696C20.5598 28.2065 20.1638 27.4739 19.6765 26.8023C19.4633 26.5276 19.2196 26.2834 18.9759 26.0391C18.6713 25.7339 18.3668 25.3981 18.0317 25.1234C17.7576 24.8792 17.453 24.696 17.1179 24.5129C16.5697 24.1771 15.991 23.9024 15.3209 23.7192C15.3209 23.8108 15.3209 23.8718 15.3209 23.9634C15.3209 25.0013 15.3209 26.0392 15.3209 27.077C15.3209 27.9317 15.3209 28.7559 15.3209 29.6106C15.3209 30.1601 15.3209 30.7401 15.3209 31.2896C15.3209 31.778 15.3209 32.2358 15.3209 32.7243C15.3209 33.4569 15.3209 34.1895 15.3209 34.9221C15.3209 35.1663 15.4122 35.3495 15.5645 35.5021C16.4174 36.3568 17.2702 37.181 18.1231 38.0357C18.2145 38.1273 18.3058 38.1883 18.4277 38.2494L18.3363 38.2799ZM15.1077 35.3189V35.2579C15.0467 35.1663 14.9554 35.0747 14.864 34.9831C14.072 34.1895 13.3106 33.3958 12.5186 32.6327C12.3663 32.4801 12.214 32.3885 11.9704 32.3885C11.0566 32.3885 10.1733 32.419 9.25953 32.4495C8.77218 32.4495 8.28484 32.4495 7.7975 32.4495C7.31015 32.4495 6.51822 32.4495 5.87858 32.4495H4.17288C4.0815 32.4495 3.95967 32.4801 3.86829 32.4801C3.68554 32.4801 3.53324 32.4495 3.35049 32.4495C3.10681 32.4495 3.10682 32.4495 3.13727 32.6937C3.16773 33.5484 3.35049 34.4032 3.59416 35.2579C3.62462 35.38 3.68554 35.441 3.83783 35.441C4.9039 35.441 6.00042 35.441 7.06648 35.441C8.46759 35.441 9.89917 35.441 11.3003 35.441C12.5186 35.441 13.737 35.441 14.9249 35.441C14.9858 35.441 15.0163 35.441 15.0772 35.441L15.1077 35.3189ZM7.58428 29.3359C8.01071 29.3359 8.40668 29.3359 8.8331 29.3359C8.89402 29.3359 8.95494 29.3359 9.01586 29.2749C9.01586 29.2138 8.95494 29.1528 8.92448 29.1222C8.04117 28.2675 7.18832 27.3823 6.30501 26.5276C6.15271 26.3749 5.96996 26.2528 5.72629 26.2834C5.57399 26.2834 5.4217 26.2834 5.29986 26.2834C4.62976 26.2834 3.95967 26.2834 3.25911 26.2834C3.10682 26.2834 3.07636 26.3139 3.07636 26.4665C3.07636 26.8023 3.07636 27.1686 3.07636 27.5044C3.07636 28.0538 3.07636 28.6338 3.07636 29.1833C3.07636 29.2749 3.13728 29.3359 3.22865 29.3359C3.41141 29.3359 3.62462 29.3359 3.80737 29.3359C4.29471 29.3359 4.78206 29.3359 5.2694 29.3359C5.63491 29.3359 6.00042 29.3359 6.36592 29.3359C6.76189 29.3359 7.18832 29.3359 7.58428 29.3359Z" fill="#20583B"/>
<path d="M12.9531 17.2488C13.3491 9.86159 20.2328 5.13013 26.7815 6.99219C31.5026 8.33531 34.7008 12.4563 34.8836 17.6151C34.914 18.6224 33.8784 19.4466 32.6296 19.4161C32.1423 19.4161 31.6245 19.355 31.1371 19.2329C26.2332 18.1035 21.3293 18.134 16.4255 19.2635C15.6944 19.4466 14.9634 19.5687 14.2324 19.2024C13.1359 18.6835 12.9531 18.4393 12.9531 17.2183V17.2488Z" fill="#DDAE07"/>
<path d="M24.7266 4.0278C24.7875 3.11203 24.8484 2.25731 24.9093 1.4026C24.9702 0.517355 25.5185 0.517349 26.0972 0.547875C26.7369 0.5784 27.0719 0.853133 26.9196 1.6468C26.7369 2.62362 26.615 3.63096 26.4627 4.60778C26.3714 5.24882 26.1886 5.79828 25.4271 5.70671C24.6961 5.5846 24.757 4.97409 24.7266 4.3941V3.99727V4.0278Z" fill="#DDAE07"/>
<path d="M19.646 5.64857C19.7069 6.22856 19.4023 6.44224 19.0368 6.62539C18.6713 6.80855 18.3667 6.65591 18.1839 6.25908C17.7271 5.19069 17.2702 4.12229 16.8438 3.02337C16.4782 2.07708 17.2702 2.04656 17.6966 1.7413C18.1535 1.43604 18.4276 1.64972 18.6104 2.19918C19.0368 3.32863 19.3109 4.51912 19.5851 5.64857H19.646Z" fill="#DDAE07"/>
<path d="M31.6217 8.02917C30.9516 8.02917 30.4338 7.23551 30.7689 6.625C31.3171 5.58713 31.9263 4.6103 32.505 3.60296C32.9314 2.87034 33.3883 3.20613 33.8452 3.57244C34.3021 3.93874 34.6981 4.27453 34.1803 4.94609C33.5102 5.83133 32.8705 6.74709 32.2004 7.63234C32.0481 7.84602 31.8654 7.99865 31.6217 7.99865V8.02917Z" fill="#DDAE07"/>
<path d="M37.6192 7.54123C37.6192 7.90754 37.4364 8.09069 37.2537 8.24331C36.3399 8.88435 35.4261 9.49486 34.5124 10.1664C33.8727 10.6243 33.4768 10.3191 33.0503 9.89169C32.5934 9.40328 32.9894 9.09803 33.3245 8.8233C34.1164 8.15174 34.8779 7.48017 35.6698 6.80861C35.9439 6.59493 36.1876 6.25915 36.5836 6.50335C37.0709 6.77808 37.4669 7.17492 37.6192 7.60227V7.54123Z" fill="#DDAE07"/>
<path d="M22.7174 4.57959C22.8393 5.46483 22.4433 5.70904 21.956 5.83114C21.4077 5.95324 21.2249 5.58694 21.1336 5.09853C20.9204 3.93855 20.7071 2.77858 20.5548 1.6186C20.433 0.794413 21.0422 0.733365 21.4991 0.611263C22.0169 0.489161 22.4433 0.611263 22.4738 1.3744C22.5347 2.53437 22.7479 4.06065 22.7479 4.57959H22.7174Z" fill="#DDAE07"/>
<path d="M13.3116 12.3389C13.3116 12.9189 12.672 13.2852 11.9715 13.1021C10.8749 12.7663 9.77841 12.4 8.68189 12.0337C7.73766 11.6979 8.52959 10.8127 8.52959 10.8127C8.62097 10.6906 9.01694 10.08 9.68703 10.3853C10.6922 10.8432 11.6973 11.2705 12.7025 11.6979C13.0375 11.8505 13.3421 11.9726 13.3116 12.3389Z" fill="#DDAE07"/>
<path d="M14.4011 3.72266C14.7666 3.72266 14.9494 3.96685 15.1321 4.21106C15.7413 5.0963 16.32 6.01207 16.8987 6.92784C17.1119 7.26362 17.2642 7.5994 16.8378 7.87413C16.4419 8.14886 16.0154 8.45412 15.5585 7.99624C14.7362 7.08047 13.9442 6.1647 13.1827 5.21841C12.8477 4.82158 13.731 3.78371 14.4011 3.72266Z" fill="#DDAE07"/>
<path d="M39.473 11.3231C39.5034 11.6894 39.2293 11.8421 38.9247 11.9642C37.8891 12.3915 36.8231 12.8189 35.7875 13.2462C35.2696 13.4599 34.9041 13.3683 34.6605 12.8799C34.4168 12.422 34.3254 12.0252 34.9651 11.72C35.8788 11.2621 36.7621 10.7431 37.6454 10.2547C38.6506 9.73579 39.5034 10.2242 39.473 11.3231Z" fill="#DDAE07"/>
<path d="M28.6827 6.50194C28.2258 6.31879 27.6166 6.19669 27.8603 5.31145C28.1649 4.21253 28.4695 3.11361 28.7741 2.01469C28.9263 1.4347 29.2309 1.09892 29.7487 1.46522C30.1752 1.77048 31.028 1.77048 30.6625 2.7473C30.2361 3.87675 29.7792 4.97567 29.3223 6.07459C29.2005 6.34932 29.0482 6.563 28.6827 6.50194Z" fill="#DDAE07"/>
<path d="M10.6364 16.1173C9.87488 16.0257 8.93065 15.9341 8.01689 15.8426C7.25541 15.751 7.0422 15.3541 7.19449 14.7131C7.34679 14.1026 7.7123 13.7668 8.44331 13.9194C9.44846 14.1331 10.4536 14.3773 11.4283 14.5605C12.007 14.6826 12.3116 14.8963 12.2507 15.4457C12.1593 15.9952 11.7633 16.1478 11.1846 16.1173C11.0323 16.1173 10.9105 16.1173 10.6059 16.1173H10.6364Z" fill="#DDAE07"/>
<path d="M37.8009 18.9274C38.5624 18.8663 39.5066 18.7748 40.4204 18.6527C41.1818 18.5611 41.3951 18.1948 41.2428 17.6148C41.0905 17.0348 40.725 16.7601 39.9939 16.9127C38.9888 17.0959 37.9836 17.3401 36.9785 17.5232C36.3998 17.6148 36.0952 17.8285 36.1561 18.3169C36.2475 18.8053 36.6434 18.9579 37.2222 18.9274C37.3745 18.9274 37.4963 18.9274 37.8009 18.9274Z" fill="#DDAE07"/>
<path d="M10.0671 19.082C9.27519 19.082 8.36141 19.0514 7.44765 19.0209C6.68617 18.9904 6.4425 18.6241 6.53388 18.0441C6.62525 17.4641 6.9603 17.1588 7.72178 17.2504C8.72692 17.3725 9.73207 17.5252 10.7677 17.6167C11.3464 17.6778 11.6814 17.8609 11.651 18.3493C11.6205 18.8683 11.1941 19.0209 10.6458 19.0514C10.4935 19.0514 10.3717 19.0514 10.0671 19.082Z" fill="#DDAE07"/>
<path d="M37.4025 15.9024C38.1639 15.8109 39.1082 15.7193 40.0219 15.6277C40.7834 15.5361 40.9966 15.1393 40.8443 14.4983C40.692 13.8878 40.3265 13.552 39.5955 13.7046C38.5903 13.9183 37.5852 14.1625 36.5801 14.3456C36.0013 14.4677 35.6968 14.6814 35.7577 15.2309C35.849 15.7803 36.245 15.933 36.8237 15.9024C36.976 15.9024 37.0979 15.9024 37.4025 15.9024Z" fill="#DDAE07"/>
<path d="M14.9628 9.49131C14.9628 10.0408 14.2927 10.5597 13.8053 10.346C12.5565 9.79657 11.46 8.97237 10.3939 8.17871C9.84567 7.75135 10.7594 6.98821 10.7594 6.98821C10.7594 6.98821 11.1554 6.46928 11.7037 6.65243C12.8307 7.4461 13.8967 8.30081 14.8409 9.27763C14.9019 9.33868 14.9019 9.46079 14.9323 9.52184L14.9628 9.49131Z" fill="#DDAE07"/>
<path d="M46.177 20.2031H35.6686C35.4331 20.2031 35.2422 20.3945 35.2422 20.6305V21.6073C35.2422 21.8433 35.4331 22.0347 35.6686 22.0347H46.177C46.4125 22.0347 46.6034 21.8433 46.6034 21.6073V20.6305C46.6034 20.3945 46.4125 20.2031 46.177 20.2031Z" fill="#20583B"/>
<path d="M35.7836 22.9522C35.7836 22.128 35.7836 21.3038 35.7836 20.4796C35.7836 20.2049 35.7836 20.2049 35.5094 20.2049C35.2048 20.2049 34.9003 20.2049 34.5957 20.2049C34.0779 20.2659 33.5601 20.3575 33.0423 20.4796C32.0067 20.6933 31.0015 21.0596 30.0877 21.5785C29.6309 21.8227 29.2044 22.128 28.7475 22.3722C27.9861 22.7995 27.4074 23.4406 26.8286 24.0511C26.6154 24.2953 26.3717 24.509 26.189 24.7532C25.9149 25.1195 25.6712 25.5163 25.3971 25.9131C24.9097 26.7068 24.5442 27.5615 24.2396 28.4162C24.1482 28.691 24.0569 28.9352 23.9655 29.2099C23.9046 29.5152 23.8437 29.7899 23.7827 30.0951C23.7218 30.3393 23.6609 30.6141 23.6304 30.8583C23.6 31.3467 23.5695 31.8351 23.5391 32.293C23.5391 33.2088 23.5391 34.1245 23.5391 35.0403C23.5391 35.9561 23.5391 36.9024 23.5391 37.8486C23.5391 38.6118 23.5391 39.3749 23.5391 40.1381C23.5391 41.4812 23.5391 42.7938 23.5391 44.1369C23.5391 44.259 23.5391 44.2285 23.5391 44.3811C23.5391 44.3811 23.9046 44.3811 24.1178 44.3811C25.2448 44.3811 26.3717 44.3811 27.4987 44.3811C28.8998 44.3811 30.301 44.3811 31.7325 44.3811C33.0423 44.3811 34.352 44.3811 35.6617 44.4116C35.9968 44.4116 36.3318 44.4116 36.6669 44.4116C37.0324 44.3811 37.3979 44.2895 37.7634 44.2285C38.0071 44.1674 38.2812 44.1369 38.5249 44.0759C38.9818 43.9538 39.4386 43.8622 39.8651 43.679C40.4743 43.4348 41.053 43.1601 41.6317 42.8854C41.9972 42.7022 42.3018 42.458 42.6673 42.2749C43.0328 42.0917 43.3374 41.817 43.6115 41.5422C44.0379 41.1454 44.4644 40.7486 44.8908 40.3212C45.4086 39.7717 45.8046 39.1307 46.1701 38.4897C46.627 37.7265 46.9925 36.9329 47.2666 36.0782C47.4189 35.5287 47.5712 34.9792 47.693 34.3993C47.7844 34.0024 47.8149 33.6361 47.8453 33.2393C47.8453 32.934 47.9062 32.6593 47.9062 32.354C47.9062 31.8046 47.9062 31.2551 47.9062 30.7057C47.9062 30.0951 47.9062 29.4541 47.9062 28.8436C47.9062 28.0194 47.9062 27.1952 47.9062 26.4016C47.9062 25.8216 47.9062 25.2416 47.9062 24.6616C47.9062 24.1732 47.9062 23.6848 47.9367 23.1964C47.9367 22.2806 47.9367 21.3954 47.9367 20.4796C47.9367 20.3575 47.9672 20.2659 47.9976 20.1438C46.9925 20.1438 46.0178 20.1438 44.9822 20.1438V20.388C44.9822 21.9448 44.9822 21.7922 44.9822 21.9753C44.9822 21.9753 44.9517 22.7995 44.9822 22.9522C44.9517 23.0743 44.9213 23.1658 44.8908 23.1964C44.708 23.3795 44.5253 23.5321 44.3425 23.7458C44.1598 23.929 43.977 24.1732 43.7943 24.3563C43.3679 24.8142 42.911 25.2416 42.4541 25.6995C42.3627 25.791 42.2713 25.8826 42.18 25.9742C42.1495 26.0047 42.0886 26.0352 42.0581 26.0352C42.0581 26.0047 41.9972 25.9437 41.9972 25.8826C41.9972 25.6689 41.9972 25.4247 41.9972 25.2111C41.9972 24.5395 41.9972 23.8679 41.9972 23.1658C41.9972 22.708 41.9972 22.4638 41.9972 21.9753C41.9972 21.4869 41.9972 20.7543 41.9972 20.2659C41.9972 20.1743 41.9363 20.1438 41.8449 20.1438C41.0225 20.1438 40.2001 20.1438 39.3473 20.1133C39.1645 20.1133 39.0122 20.1133 38.8295 20.1133C38.8295 20.1133 38.7381 20.1743 38.7381 20.2049C38.7381 21.0596 38.7381 21.9143 38.7381 22.769C38.7381 23.6237 38.7381 23.9595 38.7381 24.5395C38.7381 25.0584 38.7381 25.6079 38.7381 26.1268C38.7381 27.0731 38.7381 27.9889 38.7381 28.9352C38.7381 29.1489 38.6467 29.332 38.4944 29.4846C37.6111 30.3393 36.7278 31.1941 35.8749 32.0488C35.8445 32.0793 35.7836 32.1098 35.7227 32.1404C35.7227 32.0793 35.6922 32.0488 35.6922 31.9877C35.6922 31.133 35.6922 30.3088 35.6922 29.4541C35.6922 29.0573 35.6922 28.6299 35.6922 28.2331C35.6922 27.6226 35.6922 27.0121 35.6922 26.371C35.6922 25.5163 35.6922 24.6921 35.6922 23.8374V23.349M29.6918 38.276V38.337C33.9256 38.337 38.1594 38.3981 42.4236 38.3981C42.3627 38.4592 42.3627 38.5202 42.3018 38.5813C42.1495 38.7339 41.9667 38.8865 41.784 39.0392C41.5403 39.2834 41.2966 39.5275 41.0225 39.7107C40.261 40.2602 39.4082 40.6875 38.4944 40.9623C37.7025 41.2065 36.9105 41.3591 36.0882 41.3591C35.6617 41.3591 35.2658 41.3591 34.8393 41.3591H32.2503C31.3975 41.3591 30.5446 41.3591 29.7222 41.3591C28.7475 41.3591 27.8033 41.3591 26.8286 41.3591C26.585 41.3591 26.5545 41.3286 26.5545 41.0843C26.5545 40.8401 26.5545 40.5654 26.5545 40.3212C26.5545 39.5581 26.5545 38.7644 26.5545 37.9708C26.5545 37.055 26.5545 36.1392 26.5545 35.254C26.5545 34.1856 26.5545 33.1172 26.5545 32.0488C26.5545 30.9804 26.7982 29.9425 27.1637 28.9657C27.4683 28.2026 27.8642 27.4699 28.3516 26.7984C28.5648 26.5237 28.8085 26.2794 29.0521 26.0352C29.3567 25.73 29.6613 25.3942 29.9964 25.1195C30.2705 24.8753 30.5751 24.6921 30.9101 24.509C31.4584 24.1732 32.0371 23.8985 32.7072 23.7153C32.7072 23.8069 32.7072 23.8679 32.7072 23.9595C32.7072 24.9974 32.7072 26.0352 32.7072 27.0731C32.7072 27.9278 32.7072 28.752 32.7072 29.6067C32.7072 30.1562 32.7072 30.7362 32.7072 31.2856C32.7072 31.7741 32.7072 32.2319 32.7072 32.7204C32.7072 33.453 32.7072 34.1856 32.7072 34.9182C32.7072 35.1624 32.6158 35.3455 32.4635 35.4982C31.6107 36.3529 30.7578 37.1771 29.905 38.0318C29.8136 38.1234 29.7222 38.1844 29.6004 38.2455L29.6918 38.276ZM32.9204 35.315V35.254C32.9813 35.1624 33.0727 35.0708 33.1641 34.9792C33.956 34.1856 34.7175 33.3919 35.5094 32.6288C35.6617 32.4762 35.814 32.3846 36.0577 32.3846C36.9715 32.3846 37.8548 32.4151 38.7685 32.4456C39.2559 32.4456 39.7432 32.4456 40.2306 32.4456C40.7179 32.4456 41.5099 32.4456 42.1495 32.4456H43.8552C43.9466 32.4456 44.0684 32.4762 44.1598 32.4762C44.3425 32.4762 44.4948 32.4456 44.6776 32.4456C44.9213 32.4456 44.9213 32.4456 44.8908 32.6898C44.8603 33.5445 44.6776 34.3993 44.4339 35.254C44.4035 35.3761 44.3425 35.4371 44.1902 35.4371C43.1242 35.4371 42.0277 35.4371 40.9616 35.4371C39.5605 35.4371 38.1289 35.4371 36.7278 35.4371C35.5094 35.4371 34.2911 35.4371 33.1032 35.4371C33.0423 35.4371 33.0118 35.4371 32.9509 35.4371L32.9204 35.315ZM40.4133 29.332C39.9869 29.332 39.5909 29.332 39.1645 29.332C39.1036 29.332 39.0427 29.332 38.9818 29.271C38.9818 29.2099 39.0427 29.1489 39.0731 29.1183C39.9564 28.2636 40.8093 27.3784 41.6926 26.5237C41.8449 26.371 42.0277 26.2489 42.2713 26.2795C42.4236 26.2795 42.5759 26.2795 42.6978 26.2795C43.3678 26.2795 44.038 26.2795 44.7385 26.2795C44.8908 26.2795 44.9213 26.31 44.9213 26.4626C44.9213 26.7984 44.9213 27.1647 44.9213 27.5005C44.9213 28.0499 44.9213 28.6299 44.9213 29.1794C44.9213 29.2709 44.8603 29.332 44.769 29.332C44.5862 29.332 44.373 29.332 44.1902 29.332C43.7029 29.332 43.2156 29.332 42.7282 29.332C42.3627 29.332 41.9972 29.332 41.6317 29.332C41.2357 29.332 40.8093 29.332 40.4133 29.332Z" fill="#20583B"/>
<path d="M1.83085 22.0391H12.3392C12.5747 22.0391 12.7656 21.8477 12.7656 21.6117V20.6349C12.7656 20.3989 12.5747 20.2075 12.3392 20.2075H1.83085C1.59535 20.2075 1.40443 20.3989 1.40443 20.6349V21.6117C1.40443 21.8477 1.59535 22.0391 1.83085 22.0391Z" fill="#20583B"/>
<path d="M12.214 22.9522C12.214 22.128 12.214 21.3038 12.214 20.4796C12.214 20.2049 12.214 20.2049 12.4882 20.2049C12.7928 20.2049 13.0974 20.2049 13.4019 20.2049C13.9197 20.2659 14.4376 20.3575 14.9554 20.4796C15.991 20.6933 16.9961 21.0596 17.9099 21.5785C18.3668 21.8227 18.7932 22.128 19.2501 22.3722C20.0115 22.7995 20.5903 23.4406 21.169 24.0511C21.3822 24.2953 21.6259 24.509 21.8086 24.7532C22.0828 25.1195 22.3264 25.5163 22.6006 25.9131C23.0879 26.7068 23.4534 27.5615 23.758 28.4162C23.8494 28.691 23.9408 28.9352 24.0321 29.2099C24.093 29.5152 24.154 29.7899 24.2149 30.0951C24.2758 30.3393 24.3367 30.6141 24.3672 30.8583C24.3976 31.3467 24.4281 31.8351 24.4586 32.293C24.4586 33.2088 24.4586 34.1245 24.4586 35.0403C24.4586 35.9561 24.4586 36.9024 24.4586 37.8486C24.4586 38.6118 24.4586 39.3749 24.4586 40.1381C24.4586 41.4812 24.4586 42.7938 24.4586 44.1369C24.4586 44.259 24.4586 44.2285 24.4586 44.3811C24.4586 44.3811 24.093 44.3811 23.8798 44.3811C22.7529 44.3811 21.6259 44.3811 20.4989 44.3811C19.0978 44.3811 17.6967 44.3811 16.2651 44.3811C14.9554 44.3811 13.6456 44.3811 12.3359 44.4116C12.0008 44.4116 11.6658 44.4116 11.3307 44.4116C10.9652 44.3811 10.5997 44.2895 10.2342 44.2285C9.99054 44.1674 9.71641 44.1369 9.47274 44.0759C9.01586 43.9538 8.55897 43.8622 8.13255 43.679C7.52337 43.4348 6.94465 43.1601 6.36592 42.8854C6.00042 42.7022 5.69583 42.458 5.33032 42.2749C4.96481 42.0917 4.66022 41.817 4.38609 41.5422C3.95967 41.1454 3.53324 40.7486 3.10682 40.3212C2.58901 39.7717 2.19305 39.1307 1.82754 38.4897C1.37065 37.7265 1.00515 36.9329 0.731016 36.0782C0.578721 35.5287 0.426426 34.9792 0.30459 34.3993C0.213213 34.0024 0.182754 33.6361 0.152295 33.2393C0.152295 32.934 0.0913778 32.6593 0.0913778 32.354C0.0913778 31.8046 0.0913778 31.2551 0.0913778 30.7057C0.0913778 30.0951 0.0913778 29.4541 0.0913778 28.8436C0.0913778 28.0194 0.0913778 27.1952 0.0913778 26.4016C0.0913778 25.8216 0.0913778 25.2416 0.0913778 24.6616C0.0913778 24.1732 0.0913783 23.6848 0.0609193 23.1964C0.0609193 22.2806 0.0609193 21.3954 0.0609193 20.4796C0.0609193 20.3575 0.030459 20.2659 0 20.1438C1.00515 20.1438 1.97983 20.1438 3.01544 20.1438V20.388C3.01544 21.9448 3.01544 21.7922 3.01544 21.9753C3.01544 21.9753 3.0459 22.7995 3.01544 22.9522C3.0459 23.0743 3.07636 23.1658 3.10682 23.1964C3.28957 23.3795 3.47232 23.5321 3.65508 23.7458C3.83783 23.929 4.02058 24.1732 4.20334 24.3563C4.62976 24.8142 5.08665 25.2416 5.54353 25.6995C5.63491 25.791 5.72629 25.8826 5.81766 25.9742C5.84812 26.0047 5.90904 26.0352 5.9395 26.0352C5.9395 26.0047 6.00042 25.9437 6.00042 25.8826C6.00042 25.6689 6.00042 25.4247 6.00042 25.2111C6.00042 24.5395 6.00042 23.8679 6.00042 23.1658C6.00042 22.708 6.00042 22.4638 6.00042 21.9753C6.00042 21.4869 6.00042 20.7543 6.00042 20.2659C6.00042 20.1743 6.06134 20.1438 6.15271 20.1438C6.97511 20.1438 7.7975 20.1438 8.65035 20.1133C8.8331 20.1133 8.9854 20.1133 9.16815 20.1133C9.16815 20.1133 9.25953 20.1743 9.25953 20.2049C9.25953 21.0596 9.25953 21.9143 9.25953 22.769C9.25953 23.6237 9.25953 23.9595 9.25953 24.5395C9.25953 25.0584 9.25953 25.6079 9.25953 26.1268C9.25953 27.0731 9.25953 27.9889 9.25953 28.9352C9.25953 29.1489 9.3509 29.332 9.5032 29.4846C10.3865 30.3393 11.2698 31.1941 12.1227 32.0488C12.1531 32.0793 12.214 32.1098 12.275 32.1404C12.275 32.0793 12.3054 32.0488 12.3054 31.9877C12.3054 31.133 12.3054 30.3088 12.3054 29.4541C12.3054 29.0573 12.3054 28.6299 12.3054 28.2331C12.3054 27.6226 12.3054 27.0121 12.3054 26.371C12.3054 25.5163 12.3054 24.6921 12.3054 23.8374V23.349M18.3363 38.276V38.337C14.1025 38.337 9.86871 38.3981 5.60445 38.3981C5.66537 38.4592 5.66537 38.5202 5.72629 38.5813C5.87858 38.7339 6.06133 38.8865 6.24409 39.0392C6.48776 39.2834 6.73143 39.5275 7.00556 39.7107C7.76704 40.2602 8.61989 40.6875 9.53366 40.9623C10.3256 41.2065 11.1175 41.3591 11.9399 41.3591C12.3663 41.3591 12.7623 41.3591 13.1887 41.3591H15.7777C16.6306 41.3591 17.4834 41.3591 18.3058 41.3591C19.2805 41.3591 20.2248 41.3591 21.1994 41.3591C21.4431 41.3591 21.4736 41.3286 21.4736 41.0843C21.4736 40.8401 21.4736 40.5654 21.4736 40.3212C21.4736 39.5581 21.4736 38.7644 21.4736 37.9708C21.4736 37.055 21.4736 36.1392 21.4736 35.254C21.4736 34.1856 21.4736 33.1172 21.4736 32.0488C21.4736 30.9804 21.2299 29.9425 20.8644 28.9657C20.5598 28.2026 20.1638 27.4699 19.6765 26.7984C19.4633 26.5237 19.2196 26.2794 18.9759 26.0352C18.6713 25.73 18.3668 25.3942 18.0317 25.1195C17.7576 24.8753 17.453 24.6921 17.1179 24.509C16.5697 24.1732 15.991 23.8985 15.3209 23.7153C15.3209 23.8069 15.3209 23.8679 15.3209 23.9595C15.3209 24.9974 15.3209 26.0352 15.3209 27.0731C15.3209 27.9278 15.3209 28.752 15.3209 29.6067C15.3209 30.1562 15.3209 30.7362 15.3209 31.2856C15.3209 31.7741 15.3209 32.2319 15.3209 32.7204C15.3209 33.453 15.3209 34.1856 15.3209 34.9182C15.3209 35.1624 15.4122 35.3455 15.5645 35.4982C16.4174 36.3529 17.2702 37.1771 18.1231 38.0318C18.2145 38.1234 18.3058 38.1844 18.4277 38.2455L18.3363 38.276ZM15.1077 35.315V35.254C15.0467 35.1624 14.9554 35.0708 14.864 34.9792C14.072 34.1856 13.3106 33.3919 12.5186 32.6288C12.3663 32.4762 12.214 32.3846 11.9704 32.3846C11.0566 32.3846 10.1733 32.4151 9.25953 32.4456C8.77218 32.4456 8.28484 32.4456 7.7975 32.4456C7.31015 32.4456 6.51822 32.4456 5.87858 32.4456H4.17288C4.0815 32.4456 3.95967 32.4762 3.86829 32.4762C3.68554 32.4762 3.53324 32.4456 3.35049 32.4456C3.10681 32.4456 3.10682 32.4456 3.13727 32.6898C3.16773 33.5445 3.35049 34.3993 3.59416 35.254C3.62462 35.3761 3.68554 35.4371 3.83783 35.4371C4.9039 35.4371 6.00042 35.4371 7.06648 35.4371C8.46759 35.4371 9.89917 35.4371 11.3003 35.4371C12.5186 35.4371 13.737 35.4371 14.9249 35.4371C14.9858 35.4371 15.0163 35.4371 15.0772 35.4371L15.1077 35.315ZM7.58428 29.332C8.01071 29.332 8.40668 29.332 8.8331 29.332C8.89402 29.332 8.95494 29.332 9.01586 29.271C9.01586 29.2099 8.95494 29.1489 8.92448 29.1183C8.04117 28.2636 7.18832 27.3784 6.30501 26.5237C6.15271 26.371 5.96996 26.2489 5.72629 26.2795C5.57399 26.2795 5.4217 26.2795 5.29986 26.2795C4.62976 26.2795 3.95967 26.2795 3.25911 26.2795C3.10682 26.2795 3.07636 26.31 3.07636 26.4626C3.07636 26.7984 3.07636 27.1647 3.07636 27.5005C3.07636 28.0499 3.07636 28.6299 3.07636 29.1794C3.07636 29.2709 3.13728 29.332 3.22865 29.332C3.41141 29.332 3.62462 29.332 3.80737 29.332C4.29471 29.332 4.78206 29.332 5.2694 29.332C5.63491 29.332 6.00042 29.332 6.36592 29.332C6.76189 29.332 7.18832 29.332 7.58428 29.332Z" fill="#20583B"/>
<path d="M12.9531 17.2488C13.3491 9.86159 20.2328 5.13013 26.7815 6.99219C31.5026 8.33531 34.7008 12.4563 34.8836 17.6151C34.914 18.6224 33.8784 19.4466 32.6296 19.4161C32.1423 19.4161 31.6245 19.355 31.1371 19.2329C26.2332 18.1035 21.3293 18.134 16.4255 19.2635C15.6944 19.4466 14.9634 19.5687 14.2324 19.2024C13.1359 18.6835 12.9531 18.4393 12.9531 17.2183V17.2488Z" fill="#DDAE07"/>
<path d="M24.7266 4.0278C24.7875 3.11203 24.8484 2.25731 24.9093 1.4026C24.9702 0.517355 25.5185 0.517349 26.0972 0.547875C26.7369 0.5784 27.0719 0.853133 26.9196 1.6468C26.7369 2.62362 26.615 3.63096 26.4627 4.60778C26.3714 5.24882 26.1886 5.79828 25.4271 5.70671C24.6961 5.5846 24.757 4.97409 24.7266 4.3941V3.99727V4.0278Z" fill="#DDAE07"/>
<path d="M19.646 5.64466C19.7069 6.22465 19.4023 6.43833 19.0368 6.62149C18.6713 6.80464 18.3667 6.65201 18.1839 6.25518C17.7271 5.18678 17.2702 4.11838 16.8438 3.01946C16.4782 2.07317 17.2702 2.04265 17.6966 1.73739C18.1535 1.43214 18.4276 1.64582 18.6104 2.19528C19.0368 3.32472 19.3109 4.51522 19.5851 5.64466H19.646Z" fill="#DDAE07"/>
<path d="M31.6217 8.02526C30.9516 8.02526 30.4338 7.2316 30.7689 6.62109C31.3171 5.58322 31.9263 4.60639 32.505 3.59905C32.9314 2.86644 33.3883 3.20222 33.8452 3.56853C34.3021 3.93484 34.6981 4.27062 34.1803 4.94218C33.5102 5.82742 32.8705 6.74319 32.2004 7.62843C32.0481 7.84211 31.8654 7.99474 31.6217 7.99474V8.02526Z" fill="#DDAE07"/>
<path d="M37.6192 7.54123C37.6192 7.90754 37.4364 8.09069 37.2537 8.24331C36.3399 8.88435 35.4261 9.49486 34.5124 10.1664C33.8727 10.6243 33.4768 10.3191 33.0503 9.89169C32.5934 9.40328 32.9894 9.09803 33.3245 8.8233C34.1164 8.15174 34.8779 7.48017 35.6698 6.80861C35.9439 6.59493 36.1876 6.25915 36.5836 6.50335C37.0709 6.77808 37.4669 7.17492 37.6192 7.60227V7.54123Z" fill="#DDAE07"/>
<path d="M22.7174 4.57959C22.8393 5.46483 22.4433 5.70904 21.956 5.83114C21.4077 5.95324 21.2249 5.58694 21.1336 5.09853C20.9204 3.93855 20.7071 2.77858 20.5548 1.6186C20.433 0.794413 21.0422 0.733365 21.4991 0.611263C22.0169 0.489161 22.4433 0.611263 22.4738 1.3744C22.5347 2.53437 22.7479 4.06065 22.7479 4.57959H22.7174Z" fill="#DDAE07"/>
<path d="M13.3116 12.335C13.3116 12.915 12.672 13.2813 11.9715 13.0982C10.8749 12.7624 9.77841 12.3961 8.68189 12.0298C7.73766 11.694 8.52959 10.8088 8.52959 10.8088C8.62097 10.6867 9.01694 10.0761 9.68703 10.3814C10.6922 10.8393 11.6973 11.2666 12.7025 11.694C13.0375 11.8466 13.3421 11.9687 13.3116 12.335Z" fill="#DDAE07"/>
<path d="M14.4011 3.72266C14.7666 3.72266 14.9494 3.96685 15.1321 4.21106C15.7413 5.0963 16.32 6.01207 16.8987 6.92784C17.1119 7.26362 17.2642 7.5994 16.8378 7.87413C16.4419 8.14886 16.0154 8.45412 15.5585 7.99624C14.7362 7.08047 13.9442 6.1647 13.1827 5.21841C12.8477 4.82158 13.731 3.78371 14.4011 3.72266Z" fill="#DDAE07"/>
<path d="M39.473 11.3231C39.5034 11.6894 39.2293 11.8421 38.9247 11.9642C37.8891 12.3915 36.8231 12.8189 35.7875 13.2462C35.2696 13.4599 34.9041 13.3683 34.6605 12.8799C34.4168 12.422 34.3254 12.0252 34.9651 11.72C35.8788 11.2621 36.7621 10.7431 37.6454 10.2547C38.6506 9.73579 39.5034 10.2242 39.473 11.3231Z" fill="#DDAE07"/>
<path d="M28.6827 6.50194C28.2258 6.31879 27.6166 6.19669 27.8603 5.31145C28.1649 4.21253 28.4695 3.11361 28.7741 2.01469C28.9263 1.4347 29.2309 1.09892 29.7487 1.46522C30.1752 1.77048 31.028 1.77048 30.6625 2.7473C30.2361 3.87675 29.7792 4.97567 29.3223 6.07459C29.2005 6.34932 29.0482 6.563 28.6827 6.50194Z" fill="#DDAE07"/>
<path d="M10.6364 16.1173C9.87488 16.0257 8.93065 15.9341 8.01689 15.8426C7.25541 15.751 7.0422 15.3541 7.19449 14.7131C7.34679 14.1026 7.7123 13.7668 8.44331 13.9194C9.44846 14.1331 10.4536 14.3773 11.4283 14.5605C12.007 14.6826 12.3116 14.8963 12.2507 15.4457C12.1593 15.9952 11.7633 16.1478 11.1846 16.1173C11.0323 16.1173 10.9105 16.1173 10.6059 16.1173H10.6364Z" fill="#DDAE07"/>
<path d="M37.8009 18.9274C38.5624 18.8663 39.5066 18.7748 40.4204 18.6527C41.1818 18.5611 41.3951 18.1948 41.2428 17.6148C41.0905 17.0348 40.725 16.7601 39.9939 16.9127C38.9888 17.0959 37.9836 17.3401 36.9785 17.5232C36.3998 17.6148 36.0952 17.8285 36.1561 18.3169C36.2475 18.8053 36.6434 18.9579 37.2222 18.9274C37.3745 18.9274 37.4963 18.9274 37.8009 18.9274Z" fill="#DDAE07"/>
<path d="M10.0749 19.082C9.283 19.082 8.36923 19.0514 7.45546 19.0209C6.69398 18.9904 6.45031 18.6241 6.54169 18.0441C6.63307 17.4641 6.96811 17.1588 7.72959 17.2504C8.73474 17.3725 9.73988 17.5252 10.7755 17.6167C11.3542 17.6778 11.6893 17.8609 11.6588 18.3493C11.6283 18.8683 11.2019 19.0209 10.6536 19.0514C10.5014 19.0514 10.3795 19.0514 10.0749 19.082Z" fill="#DDAE07"/>
<path d="M37.4025 15.9024C38.1639 15.8109 39.1082 15.7193 40.0219 15.6277C40.7834 15.5361 40.9966 15.1393 40.8443 14.4983C40.692 13.8878 40.3265 13.552 39.5955 13.7046C38.5903 13.9183 37.5852 14.1625 36.5801 14.3456C36.0013 14.4677 35.6968 14.6814 35.7577 15.2309C35.849 15.7803 36.245 15.933 36.8237 15.9024C36.976 15.9024 37.0979 15.9024 37.4025 15.9024Z" fill="#DDAE07"/>
<path d="M14.9628 9.49131C14.9628 10.0408 14.2927 10.5597 13.8053 10.346C12.5565 9.79657 11.46 8.97237 10.3939 8.17871C9.84567 7.75135 10.7594 6.98821 10.7594 6.98821C10.7594 6.98821 11.1554 6.46928 11.7037 6.65243C12.8307 7.4461 13.8967 8.30081 14.8409 9.27763C14.9019 9.33868 14.9019 9.46079 14.9323 9.52184L14.9628 9.49131Z" fill="#DDAE07"/>
</svg>
