<svg width="275" height="70" viewBox="0 0 275 70" fill="none" xmlns="http://www.w3.org/2000/svg">
<g clip-path="url(#clip0_487_208)">
<path d="M141.45 31.5208H145.696V50.5797H141.45V31.5208ZM152.583 35.1562C151.206 35.1562 150.024 35.4518 149.045 36.0383C148.061 36.6248 147.276 37.3374 146.689 38.1808C146.103 39.0242 145.696 39.8385 145.463 40.6286L145.424 38.4861C145.449 38.205 145.541 37.7785 145.691 37.2017C145.846 36.6297 146.079 35.9947 146.399 35.3064C146.718 34.6181 147.15 33.9492 147.697 33.2997C148.245 32.6502 148.924 32.1219 149.723 31.7099C150.528 31.3027 151.478 31.0991 152.573 31.0991V35.1562H152.583Z" fill="#20583B"/>
<path d="M156.131 30.2993H160.415V49.3582H156.131V30.2993Z" fill="#20583B"/>
<path d="M200.226 49.8433C198.093 49.8433 196.183 49.4603 194.487 48.6897C192.791 47.919 191.458 46.7896 190.479 45.3015C189.505 43.8134 189.015 42.0006 189.015 39.8679C189.015 37.7351 189.505 35.9563 190.479 34.4536C191.453 32.951 192.791 31.8023 194.487 31.0073C196.183 30.2124 198.093 29.8149 200.226 29.8149C202.358 29.8149 204.258 30.2124 205.925 31.0073C207.593 31.8023 208.911 32.951 209.875 34.4536C210.84 35.9563 211.32 37.7594 211.32 39.8679C211.32 41.9764 210.84 43.8086 209.875 45.3015C208.911 46.7896 207.597 47.919 205.925 48.6897C204.253 49.4603 202.353 49.8433 200.226 49.8433ZM200.226 46.3388C201.457 46.3388 202.586 46.0964 203.613 45.6069C204.641 45.1173 205.455 44.3854 206.061 43.4111C206.662 42.4369 206.967 41.2542 206.967 39.8679C206.967 38.4816 206.667 37.2989 206.061 36.3246C205.455 35.3504 204.646 34.5991 203.633 34.0707C202.62 33.5424 201.481 33.2806 200.226 33.2806C198.97 33.2806 197.822 33.5375 196.799 34.0513C195.772 34.5651 194.943 35.3116 194.313 36.2859C193.683 37.2601 193.368 38.4574 193.368 39.8679C193.368 41.2784 193.678 42.4369 194.293 43.4111C194.909 44.3854 195.738 45.1173 196.78 45.6069C197.822 46.0964 198.97 46.3388 200.226 46.3388Z" fill="#20583B"/>
<path d="M88.2142 49.3536L99.0417 24.5557H103.709L114.614 49.3536H109.908L100.418 26.9695H102.333L92.8816 49.3536H88.2142Z" fill="#20583B"/>
<path d="M126.207 46.4066C124.424 46.4066 122.81 46.0867 121.365 45.4517C119.926 44.8168 118.787 43.8813 117.958 42.6598C117.129 41.4335 116.713 39.9696 116.713 38.2586C116.713 36.5476 117.115 35.0692 117.919 33.8186C118.724 32.5681 119.844 31.5987 121.288 30.9104C122.727 30.2221 124.37 29.8779 126.202 29.8779C126.74 29.8779 127.254 29.9167 127.753 29.9943C128.253 30.0718 128.728 30.1736 129.188 30.2996L138.101 30.3384V33.8962C136.875 33.9204 135.644 33.7508 134.408 33.3776C133.172 33.0092 132.081 32.6166 131.136 32.2094L131.02 31.9816C131.888 32.4178 132.673 32.9462 133.371 33.5714C134.073 34.1967 134.626 34.9044 135.033 35.6945C135.44 36.4846 135.644 37.3764 135.644 38.3749C135.644 40.0569 135.241 41.5013 134.437 42.6986C133.632 43.8958 132.522 44.8168 131.107 45.4517C129.692 46.0916 128.054 46.4066 126.188 46.4066H126.207ZM132.329 57.1236V56.2414C132.329 54.9909 131.96 54.1087 131.219 53.5998C130.477 53.0908 129.445 52.8339 128.117 52.8339H122.95C121.928 52.8339 121.055 52.7515 120.328 52.5867C119.601 52.4219 119.02 52.1796 118.588 51.8596C118.152 51.5397 117.837 51.1714 117.634 50.7497C117.43 50.328 117.328 49.8626 117.328 49.3537C117.328 48.3358 117.638 47.5699 118.264 47.0561C118.889 46.5472 119.718 46.2127 120.75 46.0625C121.782 45.9074 122.873 45.8831 124.021 45.9849L126.202 46.4066C124.695 46.4599 123.556 46.5908 122.776 46.8089C121.996 47.0271 121.608 47.4536 121.608 48.0886C121.608 48.4715 121.763 48.7769 122.068 49.0047C122.374 49.2325 122.81 49.3488 123.367 49.3488H128.8C130.356 49.3488 131.723 49.533 132.896 49.9014C134.069 50.2698 134.98 50.8951 135.629 51.7772C136.279 52.6594 136.603 53.8615 136.603 55.3932V57.1139H132.319L132.329 57.1236ZM126.207 43.0815C127.225 43.0815 128.131 42.8925 128.926 42.5095C129.716 42.1266 130.341 41.5789 130.802 40.8664C131.262 40.1538 131.49 39.2862 131.49 38.2635C131.49 37.2407 131.262 36.3634 130.802 35.6218C130.341 34.8802 129.716 34.3227 128.926 33.9398C128.136 33.5569 127.23 33.3679 126.207 33.3679C125.185 33.3679 124.312 33.5569 123.508 33.9398C122.703 34.3227 122.073 34.8753 121.613 35.6024C121.152 36.3295 120.924 37.2165 120.924 38.2635C120.924 39.3104 121.152 40.1538 121.613 40.8664C122.073 41.5789 122.698 42.1315 123.488 42.5095C124.278 42.8925 125.185 43.0815 126.207 43.0815Z" fill="#20583B"/>
<path d="M186.015 41.9715C185.86 43.605 185.337 45.0058 184.445 46.1788C183.553 47.3518 182.361 48.2437 180.868 48.8592C179.375 49.47 177.66 49.7753 175.721 49.7753C173.627 49.7753 171.737 49.3924 170.041 48.6266C168.344 47.8607 166.997 46.741 166.003 45.2578C165.01 43.7795 164.51 41.9812 164.51 39.863C164.51 37.7448 165.01 35.9465 166.003 34.4681C166.997 32.9897 168.344 31.8555 170.041 31.0606C171.737 30.2705 173.632 29.873 175.721 29.873C177.66 29.873 179.37 30.1881 180.849 30.8085C182.327 31.4338 183.514 32.3208 184.406 33.4696C185.298 34.6184 185.821 36.0095 185.976 37.643H182.075C181.639 36.2906 180.858 35.2388 179.719 34.4875C178.585 33.7362 177.252 33.3581 175.721 33.3581C174.47 33.3581 173.322 33.6053 172.275 34.1046C171.228 34.6038 170.394 35.3309 169.769 36.2858C169.144 37.2407 168.834 38.4331 168.834 39.863C168.834 41.2929 169.144 42.4513 169.769 43.4208C170.394 44.3902 171.228 45.1124 172.275 45.5826C173.322 46.0528 174.47 46.2903 175.721 46.2903C177.403 46.2903 178.789 45.9122 179.874 45.1609C180.96 44.4096 181.706 43.3432 182.114 41.9666H186.015V41.9715Z" fill="#20583B"/>
<path d="M219.685 24.5605V45.6068H235.141V49.3584H215.323V24.5605H219.685Z" fill="#20583B"/>
<path d="M246.39 49.7753C244.655 49.7753 243.065 49.3536 241.626 48.5102C240.186 47.6668 239.038 46.5035 238.185 45.0106C237.332 43.5177 236.9 41.8018 236.9 39.863C236.9 37.9241 237.332 36.1307 238.199 34.6378C239.067 33.1449 240.24 31.9767 241.718 31.1381C243.196 30.2947 244.854 29.873 246.691 29.873C248.731 29.873 250.35 30.319 251.552 31.2109C252.749 32.1027 253.607 33.3048 254.116 34.8074C254.625 36.3149 254.881 37.9968 254.881 39.8581C254.881 40.9051 254.726 42.0054 254.421 43.1687C254.116 44.332 253.636 45.4081 252.986 46.4017C252.337 47.3954 251.469 48.2049 250.384 48.8302C249.298 49.4554 247.965 49.7656 246.385 49.7656V49.7753H246.39ZM247.694 46.2563C249.124 46.2563 250.34 45.98 251.348 45.4323C252.356 44.8846 253.122 44.1236 253.646 43.1542C254.169 42.1847 254.431 41.0893 254.431 39.863C254.431 38.5106 254.164 37.357 253.626 36.4021C253.088 35.4472 252.327 34.7056 251.329 34.1821C250.335 33.6586 249.124 33.3969 247.694 33.3969C245.653 33.3969 244.073 33.998 242.949 35.1952C241.825 36.3924 241.267 37.9484 241.267 39.863C241.267 41.1135 241.543 42.2235 242.091 43.1929C242.639 44.1624 243.4 44.9137 244.369 45.4517C245.338 45.9897 246.448 46.2563 247.699 46.2563H247.694ZM254.426 30.2996H258.71V49.3585H254.731C254.629 48.3891 254.552 47.5554 254.503 46.8525C254.45 46.1497 254.426 45.4808 254.426 44.8458V30.3044V30.2996Z" fill="#20583B"/>
<path d="M263.867 30.2996H268.113V49.3585H263.867V30.2996ZM275 33.935C273.624 33.935 272.441 34.2306 271.462 34.8172C270.478 35.4037 269.693 36.1162 269.106 36.9596C268.52 37.803 268.113 38.6173 267.88 39.4074L267.841 37.2649C267.866 36.9838 267.958 36.5573 268.108 35.9805C268.263 35.4085 268.496 34.7735 268.816 34.0852C269.136 33.3969 269.567 32.728 270.115 32.0785C270.662 31.429 271.341 30.9007 272.14 30.4887C272.945 30.0815 273.895 29.8779 274.99 29.8779V33.935H275Z" fill="#20583B"/>
<path d="M73.4174 31.2104H56.74C56.3545 31.2104 56.0421 31.5229 56.0421 31.9084V33.4256C56.0421 33.8111 56.3545 34.1236 56.74 34.1236H73.4174C73.8028 34.1236 74.1153 33.8111 74.1153 33.4256V31.9084C74.1153 31.5229 73.8028 31.2104 73.4174 31.2104Z" fill="#20583B"/>
<path d="M56.929 35.5682C56.9435 34.2546 56.9435 32.9459 56.9581 31.6323C56.9581 31.1961 56.9677 31.2009 56.5122 31.2106C56.0323 31.2203 55.5428 31.1912 55.0679 31.2542C54.2439 31.3657 53.4248 31.5063 52.6106 31.6808C50.9579 32.0395 49.373 32.6017 47.8899 33.416C47.1629 33.8135 46.4844 34.2885 45.7622 34.7005C44.5651 35.384 43.6539 36.3873 42.6992 37.3519C42.3405 37.7154 41.9625 38.0693 41.6571 38.4764C41.2112 39.0678 40.8138 39.6931 40.4164 40.3183C39.6215 41.5689 39.0448 42.9213 38.5553 44.3172C38.405 44.7341 38.2499 45.1558 38.1384 45.5823C38.0173 46.0428 37.9494 46.5227 37.8525 46.988C37.7701 47.3903 37.6441 47.7878 37.6053 48.1949C37.5326 48.9559 37.489 49.7218 37.4793 50.4876C37.4599 51.9515 37.4793 53.4104 37.4696 54.8743C37.4696 56.3526 37.4551 57.831 37.4454 59.3094C37.4357 60.5163 37.4066 61.7233 37.4017 62.9302C37.3921 65.0484 37.4017 67.1617 37.3872 69.2799C37.3872 69.4593 37.3872 69.4447 37.3872 69.6435C37.4308 69.6435 37.993 69.6532 38.3323 69.6532C40.1304 69.6532 41.9285 69.6677 43.7266 69.6774C45.9658 69.6919 48.205 69.7016 50.4393 69.7162C52.5185 69.7307 54.5977 69.7549 56.6769 69.7695C57.2149 69.7695 57.7529 69.7986 58.286 69.7501C58.8773 69.6968 59.4589 69.5756 60.0454 69.4738C60.4573 69.4011 60.8742 69.3332 61.2764 69.2266C61.9937 69.0376 62.7304 68.8728 63.4187 68.6013C64.3686 68.2281 65.2992 67.7822 66.2152 67.3217C66.7822 67.0357 67.296 66.6479 67.8582 66.3474C68.4253 66.042 68.9051 65.6349 69.3655 65.1986C70.0441 64.554 70.7468 63.9384 71.3914 63.2598C72.2154 62.397 72.8406 61.384 73.4513 60.3709C74.1783 59.164 74.7696 57.894 75.1767 56.5465C75.4384 55.674 75.671 54.787 75.8601 53.9C75.9909 53.2893 76.0442 52.664 76.1072 52.0435C76.1557 51.5734 76.1993 51.1032 76.1993 50.633C76.1993 49.7654 76.1606 48.8929 76.1557 48.0253C76.1509 47.0413 76.1605 46.0573 76.1654 45.0782C76.1702 43.784 76.1799 42.485 76.1896 41.1908C76.1945 40.2747 76.1993 39.3635 76.209 38.4474C76.2187 37.6718 76.2575 36.8963 76.2623 36.1207C76.2623 34.6908 76.2478 33.2561 76.2526 31.8262C76.2526 31.6468 76.306 31.4723 76.3302 31.3027C74.7453 31.293 73.1605 31.2833 71.5465 31.2736V31.6808C71.5465 34.1673 71.5078 33.9201 71.532 34.1819C71.532 34.1819 71.4835 35.51 71.5174 35.7281C71.4593 35.9269 71.4011 36.0626 71.3672 36.0965C71.0909 36.3922 70.7759 36.6539 70.4948 36.9496C70.1943 37.2598 69.9229 37.604 69.6175 37.9093C68.9148 38.6219 68.1975 39.315 67.485 40.0178C67.3396 40.1632 67.1991 40.3135 67.0488 40.4492C66.9907 40.5025 66.9131 40.5268 66.8404 40.5656C66.8113 40.4928 66.7629 40.4201 66.7629 40.3474C66.758 39.9936 66.7629 39.6397 66.7629 39.2908C66.7774 38.2147 66.7968 37.1386 66.8113 36.0577C66.821 35.3113 66.8404 34.9186 66.8404 34.1673C66.8404 33.416 66.8259 32.2479 66.8162 31.4627C66.8162 31.3027 66.7435 31.2688 66.5884 31.2639C65.2701 31.2542 63.9518 31.23 62.6335 31.2106C62.3621 31.2106 62.0955 31.2106 61.8241 31.23C61.7756 31.23 61.6981 31.3366 61.6981 31.3899C61.6933 32.7423 61.6981 34.0995 61.6981 35.4518C61.6981 36.3825 61.7078 37.318 61.6981 38.2486C61.6933 39.0872 61.6545 39.9209 61.6545 40.7594C61.6545 42.2475 61.669 43.7356 61.6836 45.2236C61.6836 45.5726 61.5527 45.8538 61.3104 46.0913C59.9145 47.4533 58.5235 48.8154 57.1277 50.1726C57.0695 50.2307 56.9774 50.255 56.8999 50.2986C56.8805 50.221 56.8417 50.1435 56.8417 50.0659C56.8417 48.7281 56.8563 47.3855 56.8611 46.0477C56.8611 45.3933 56.8708 44.7389 56.8708 44.0846C56.8708 43.1054 56.8805 42.1263 56.8902 41.1472C56.8999 39.8094 56.9047 38.4716 56.9144 37.1338V36.3679M47.192 59.9395C47.2066 59.9783 47.2211 60.0122 47.2356 60.051C53.9628 60.0898 60.69 60.1286 67.485 60.1722C67.4123 60.2885 67.3687 60.3855 67.3008 60.4533C67.0391 60.7054 66.7677 60.9429 66.5011 61.1901C66.1037 61.5536 65.7451 61.9705 65.3089 62.2758C64.0827 63.1483 62.745 63.8172 61.3007 64.2729C60.0551 64.6606 58.7852 64.8836 57.4863 64.9175C56.8272 64.9369 56.1632 64.8933 55.5041 64.8933H51.4038C50.0564 64.8884 48.709 64.8642 47.3617 64.8593C45.8253 64.8497 44.2937 64.8593 42.7573 64.8545C42.3841 64.8545 42.326 64.8012 42.3308 64.4376C42.3308 64.0353 42.3647 63.633 42.3647 63.2307C42.3647 61.9947 42.355 60.7587 42.3647 59.5227C42.3744 58.0831 42.3987 56.6386 42.4084 55.199C42.4229 53.5122 42.4277 51.8206 42.4423 50.1338C42.4568 48.4373 42.8106 46.8038 43.4068 45.2236C43.872 43.9876 44.5021 42.834 45.3164 41.7919C45.6508 41.3653 46.0385 40.9727 46.4165 40.5849C46.9061 40.0808 47.3907 39.5622 47.9287 39.1114C48.3698 38.7382 48.869 38.4328 49.3633 38.1371C50.2454 37.6088 51.176 37.1871 52.1986 36.8527C52.2132 37.0029 52.2374 37.1144 52.2374 37.2307C52.2277 38.8739 52.218 40.5171 52.2083 42.1603C52.1986 43.4981 52.1938 44.8359 52.1841 46.1737C52.1841 47.0704 52.1744 47.9671 52.1695 48.859C52.1695 49.6151 52.1599 50.3713 52.155 51.1274C52.155 52.3004 52.1259 53.4686 52.1405 54.6416C52.1405 55.0342 51.9902 55.3251 51.7333 55.5771C50.3811 56.9198 49.0289 58.2624 47.667 59.6002C47.5313 59.7359 47.3568 59.8329 47.1969 59.9492V59.9395H47.192ZM52.3586 55.2039L52.3198 55.1312C52.4603 54.9858 52.5961 54.8452 52.7366 54.6998C53.9725 53.4492 55.2084 52.1987 56.4492 50.9529C56.6818 50.7203 56.9338 50.5555 57.307 50.5652C58.7465 50.6088 60.1908 50.6282 61.6302 50.6379C62.4106 50.6427 63.1909 50.6136 63.9663 50.6136C64.9841 50.6136 65.9971 50.6233 67.0149 50.6233H69.7145C69.8793 50.6233 70.0441 50.6912 70.204 50.6864C70.4803 50.6864 70.7565 50.633 71.0376 50.6282C71.4108 50.6185 71.4108 50.6282 71.3963 51.0063C71.3284 52.3877 71.0522 53.7352 70.6741 55.0585C70.616 55.2572 70.5093 55.3347 70.2912 55.3299C68.5755 55.3105 66.8598 55.3008 65.1392 55.2911C62.8904 55.2766 60.6367 55.262 58.3878 55.2475C56.4588 55.2378 54.5299 55.2233 52.6009 55.2136C52.5185 55.2136 52.4361 55.2039 52.3586 55.199V55.2039ZM64.2862 45.718C63.6222 45.718 62.9582 45.7132 62.2942 45.7035C62.2021 45.7035 62.1149 45.655 62.0228 45.6259C62.0713 45.5435 62.1101 45.4466 62.1779 45.3787C63.5689 44.0022 64.9599 42.6304 66.3509 41.2538C66.6078 41.0018 66.8695 40.8176 67.2572 40.8806C67.485 40.9145 67.7225 40.9145 67.9551 40.9145C69.0311 40.9145 70.1071 40.9145 71.183 40.9049C71.4157 40.9049 71.4932 40.9776 71.4835 41.2102C71.4544 41.7628 71.4351 42.3105 71.4351 42.8631C71.4351 43.7501 71.4447 44.6371 71.4544 45.5242C71.4544 45.6841 71.3817 45.7617 71.217 45.7568C70.9068 45.7471 70.5966 45.752 70.2815 45.7471C69.5158 45.7471 68.7451 45.7374 67.9794 45.7326C67.3978 45.7326 66.8113 45.7277 66.2297 45.7229C65.5851 45.7229 64.9357 45.7132 64.2911 45.7132H64.2862V45.718Z" fill="#20583B"/>
<path d="M2.92254 34.1235H19.5999C19.9854 34.1235 20.2979 33.811 20.2979 33.4255V31.9084C20.2979 31.5229 19.9854 31.2104 19.5999 31.2104L2.92254 31.2104C2.53709 31.2104 2.22462 31.5229 2.22462 31.9084V33.4255C2.22462 33.811 2.53709 34.1235 2.92254 34.1235Z" fill="#20583B"/>
<path d="M19.4061 35.5682C19.3915 34.2546 19.3915 32.9459 19.377 31.6323C19.377 31.1961 19.3673 31.2009 19.8229 31.2106C20.3027 31.2203 20.7922 31.1912 21.2672 31.2542C22.0911 31.3657 22.9102 31.5063 23.7244 31.6808C25.3772 32.0395 26.962 32.6017 28.4451 33.416C29.1721 33.8135 29.8506 34.2885 30.5728 34.7005C31.7699 35.384 32.6811 36.3873 33.6359 37.3519C33.9945 37.7154 34.3726 38.0693 34.6779 38.4764C35.1238 39.0678 35.5212 39.6931 35.9187 40.3183C36.7135 41.5689 37.2903 42.9213 37.7798 44.3172C37.93 44.7341 38.0851 45.1558 38.1966 45.5823C38.3178 46.0428 38.3856 46.5227 38.4826 46.988C38.5649 47.3903 38.691 47.7878 38.7297 48.1949C38.8024 48.9559 38.8461 49.7218 38.8557 50.4876C38.8751 51.9515 38.8557 53.4104 38.8654 54.8743C38.8654 56.3526 38.88 57.831 38.8897 59.3094C38.8994 60.5163 38.9284 61.7233 38.9333 62.9302C38.943 65.0484 38.9333 67.1617 38.9478 69.2799C38.9478 69.4593 38.9478 69.4447 38.9478 69.6435C38.9042 69.6435 38.342 69.6532 38.0027 69.6532C36.2046 69.6532 34.4065 69.6677 32.6084 69.6774C30.3692 69.6919 28.1301 69.7016 25.8958 69.7162C23.8165 69.7307 21.7373 69.7549 19.6581 69.7695C19.1201 69.7695 18.5821 69.7986 18.049 69.7501C17.4577 69.6968 16.8761 69.5756 16.2897 69.4738C15.8777 69.4011 15.4609 69.3332 15.0586 69.2266C14.3413 69.0376 13.6046 68.8728 12.9164 68.6013C11.9664 68.2281 11.0359 67.7822 10.1198 67.3217C9.55279 67.0357 9.03904 66.6479 8.47683 66.3474C7.90977 66.042 7.42995 65.6349 6.96951 65.1986C6.29098 64.554 5.58821 63.9384 4.94361 63.2598C4.11967 62.397 3.49445 61.384 2.88377 60.3709C2.15677 59.164 1.56548 57.894 1.15836 56.5465C0.896639 55.674 0.663999 54.787 0.474979 53.9C0.344119 53.2893 0.290806 52.664 0.227799 52.0435C0.179332 51.5734 0.135712 51.1032 0.135712 50.633C0.135712 49.7654 0.174486 48.8929 0.179332 48.0253C0.184179 47.0413 0.174486 46.0573 0.169639 45.0782C0.164792 43.784 0.155099 42.485 0.145406 41.1908C0.140559 40.2747 0.135712 39.3635 0.126019 38.4474C0.116326 37.6718 0.0775523 36.8963 0.0727057 36.1207C0.0727057 34.6908 0.0872457 33.2561 0.082399 31.8262C0.082399 31.6468 0.0290856 31.4723 0.00485229 31.3027C1.58971 31.293 3.17457 31.2833 4.78851 31.2736V31.6808C4.78851 34.1673 4.82729 33.9201 4.80305 34.1819C4.80305 34.1819 4.85152 35.51 4.81759 35.7281C4.87575 35.9269 4.93391 36.0626 4.96784 36.0965C5.2441 36.3922 5.55913 36.6539 5.84024 36.9496C6.14073 37.2598 6.41215 37.604 6.71749 37.9093C7.42025 38.6219 8.13756 39.315 8.85002 40.0178C8.99542 40.1632 9.13598 40.3135 9.28622 40.4492C9.34438 40.5025 9.42193 40.5268 9.49463 40.5656C9.52371 40.4928 9.57218 40.4201 9.57218 40.3474C9.57702 39.9936 9.57218 39.6397 9.57218 39.2908C9.55764 38.2147 9.53825 37.1386 9.52371 36.0577C9.51402 35.3113 9.49463 34.9186 9.49463 34.1673C9.49463 33.416 9.50917 32.2479 9.51886 31.4627C9.51886 31.3027 9.59156 31.2688 9.74666 31.2639C11.0649 31.2542 12.3832 31.23 13.7015 31.2106C13.973 31.2106 14.2395 31.2106 14.5109 31.23C14.5594 31.23 14.6369 31.3366 14.6369 31.3899C14.6418 32.7423 14.6369 34.0995 14.6369 35.4518C14.6369 36.3825 14.6273 37.318 14.6369 38.2486C14.6418 39.0872 14.6806 39.9209 14.6806 40.7594C14.6806 42.2475 14.666 43.7356 14.6515 45.2236C14.6515 45.5726 14.7823 45.8538 15.0247 46.0913C16.4205 47.4533 17.8115 48.8154 19.2074 50.1726C19.2655 50.2307 19.3576 50.255 19.4351 50.2986C19.4545 50.221 19.4933 50.1435 19.4933 50.0659C19.4933 48.7281 19.4788 47.3855 19.4739 46.0477C19.4739 45.3933 19.4642 44.7389 19.4642 44.0846C19.4642 43.1054 19.4545 42.1263 19.4448 41.1472C19.4351 39.8094 19.4303 38.4716 19.4206 37.1338V36.3679M29.143 59.9395C29.1285 59.9783 29.1139 60.0122 29.0994 60.051C22.3722 60.0898 15.6451 60.1286 8.85002 60.1722C8.92272 60.2885 8.96634 60.3855 9.03419 60.4533C9.29592 60.7054 9.56733 60.9429 9.8339 61.1901C10.2313 61.5536 10.59 61.9705 11.0262 62.2758C12.2524 63.1483 13.5901 63.8172 15.0344 64.2729C16.28 64.6606 17.5498 64.8836 18.8487 64.9175C19.5078 64.9369 20.1718 64.8933 20.831 64.8933H24.9313C26.2786 64.8884 27.626 64.8642 28.9734 64.8593C30.5098 64.8497 32.0413 64.8593 33.5777 64.8545C33.9509 64.8545 34.0091 64.8012 34.0042 64.4376C34.0042 64.0353 33.9703 63.633 33.9703 63.2307C33.9703 61.9947 33.98 60.7587 33.9703 59.5227C33.9606 58.0831 33.9364 56.6386 33.9267 55.199C33.9121 53.5122 33.9073 51.8206 33.8928 50.1338C33.8782 48.4373 33.5244 46.8038 32.9283 45.2236C32.463 43.9876 31.8329 42.834 31.0187 41.7919C30.6843 41.3653 30.2965 40.9727 29.9185 40.5849C29.429 40.0808 28.9443 39.5622 28.4063 39.1114C27.9653 38.7382 27.4661 38.4328 26.9717 38.1371C26.0896 37.6088 25.1591 37.1871 24.1364 36.8527C24.1219 37.0029 24.0976 37.1144 24.0976 37.2307C24.1073 38.8739 24.117 40.5171 24.1267 42.1603C24.1364 43.4981 24.1413 44.8359 24.151 46.1737C24.151 47.0704 24.1607 47.9671 24.1655 48.859C24.1655 49.6151 24.1752 50.3713 24.18 51.1274C24.18 52.3004 24.2091 53.4686 24.1946 54.6416C24.1946 55.0342 24.3448 55.3251 24.6017 55.5771C25.9539 56.9198 27.3061 58.2624 28.6681 59.6002C28.8038 59.7359 28.9782 59.8329 29.1382 59.9492V59.9395H29.143ZM23.9765 55.2039L24.0152 55.1312C23.8747 54.9858 23.739 54.8452 23.5984 54.6998C22.3625 53.4492 21.1266 52.1987 19.8859 50.9529C19.6532 50.7203 19.4012 50.5555 19.028 50.5652C17.5886 50.6088 16.1443 50.6282 14.7048 50.6379C13.9245 50.6427 13.1442 50.6136 12.3687 50.6136C11.3509 50.6136 10.3379 50.6233 9.32015 50.6233H6.62055C6.45577 50.6233 6.29098 50.6912 6.13104 50.6864C5.85478 50.6864 5.57852 50.633 5.29741 50.6282C4.92422 50.6185 4.92422 50.6282 4.93876 51.0063C5.00661 52.3877 5.28287 53.7352 5.66091 55.0585C5.71907 55.2572 5.8257 55.3347 6.0438 55.3299C7.75952 55.3105 9.47524 55.3008 11.1958 55.2911C13.4447 55.2766 15.6984 55.262 17.9472 55.2475C19.8762 55.2378 21.8052 55.2233 23.7341 55.2136C23.8165 55.2136 23.8989 55.2039 23.9765 55.199V55.2039ZM12.0488 45.718C12.7128 45.718 13.3768 45.7132 14.0408 45.7035C14.1329 45.7035 14.2201 45.655 14.3122 45.6259C14.2638 45.5435 14.225 45.4466 14.1571 45.3787C12.7661 44.0022 11.3751 42.6304 9.98414 41.2538C9.72727 41.0018 9.46555 40.8176 9.07782 40.8806C8.85002 40.9145 8.61254 40.9145 8.3799 40.9145C7.30394 40.9145 6.22797 40.9145 5.15201 40.9049C4.91937 40.9049 4.84183 40.9776 4.85152 41.2102C4.8806 41.7628 4.89999 42.3105 4.89999 42.8631C4.89999 43.7501 4.89029 44.6371 4.8806 45.5242C4.8806 45.6841 4.9533 45.7617 5.11809 45.7568C5.42827 45.7471 5.73846 45.752 6.05349 45.7471C6.81927 45.7471 7.58989 45.7374 8.35566 45.7326C8.93726 45.7326 9.52371 45.7277 10.1053 45.7229C10.7499 45.7229 11.3994 45.7132 12.044 45.7132H12.0488V45.718Z" fill="#20583B"/>
<path d="M20.5402 26.5188C21.1509 14.7742 32.1479 7.27089 42.5634 10.2276C50.0661 12.3604 55.1599 18.9137 55.4313 27.1102C55.4847 28.7 53.8465 30.0136 51.8593 29.97C51.0645 29.9506 50.2599 29.8488 49.4845 29.6695C41.6716 27.8615 33.8685 27.9099 26.0702 29.7228C24.9022 29.9942 23.7535 30.2026 22.5612 29.6452C20.8116 28.8261 20.5014 28.4383 20.5402 26.5188Z" fill="#DDAE07"/>
<path d="M39.3356 5.52084C39.4374 4.09093 39.5488 2.72889 39.6312 1.36685C39.7185 -0.0388171 40.5957 -0.0388171 41.5214 0.0145013C42.5198 0.0726668 43.053 0.513755 42.8252 1.75462C42.5392 3.31539 42.3308 4.89556 42.0933 6.47087C41.9382 7.50816 41.6523 8.38064 40.4455 8.2013C39.2726 8.03165 39.355 7.05737 39.3356 6.13642V5.52084Z" fill="#DDAE07"/>
<path d="M31.2416 8.0949C31.3434 9.0207 30.849 9.37454 30.2917 9.66537C29.6858 9.97559 29.2254 9.73323 28.954 9.08856C28.2318 7.38237 27.4951 5.67619 26.8408 3.93607C26.2786 2.44315 27.5048 2.3656 28.2076 1.90997C28.954 1.4301 29.366 1.78394 29.6761 2.6128C30.3547 4.41593 30.8006 6.30147 31.2416 8.09975V8.0949Z" fill="#DDAE07"/>
<path d="M50.2793 11.895C49.2179 11.9386 48.3891 10.6541 48.9223 9.66529C49.7947 8.04151 50.7543 6.47104 51.6897 4.88603C52.3683 3.73241 53.1049 4.26559 53.8223 4.82786C54.5444 5.39497 55.1939 5.94755 54.3554 7.01876C53.2649 8.40989 52.2519 9.87372 51.2051 11.3036C50.9676 11.6284 50.6865 11.8756 50.2842 11.895H50.2793Z" fill="#DDAE07"/>
<path d="M59.8321 11.1143C59.8079 11.7057 59.5558 11.9771 59.2263 12.2098C57.7771 13.2228 56.3134 14.2213 54.8836 15.2538C53.8901 15.976 53.2309 15.4961 52.5766 14.803C51.8399 14.0274 52.4797 13.5621 53.0177 13.0919C54.2536 12.0062 55.504 10.9398 56.7545 9.8686C57.1664 9.51476 57.5784 9.00581 58.2085 9.36934C58.9839 9.81528 59.6091 10.426 59.8321 11.1143Z" fill="#DDAE07"/>
<path d="M36.1319 6.38851C36.3015 7.78933 35.7005 8.19164 34.9008 8.37583C34.0527 8.56972 33.7231 8.0026 33.5777 7.20767C33.2384 5.37061 32.8943 3.5287 32.6375 1.67225C32.4533 0.353836 33.3887 0.252047 34.1496 0.0823973C34.9639 -0.0969464 35.6424 0.101786 35.7199 1.27479C35.8411 3.09246 36.1707 5.54511 36.1367 6.38851H36.1319Z" fill="#DDAE07"/>
<path d="M21.1121 18.6906C21.0685 19.6164 20.104 20.2078 18.9941 19.883C17.2299 19.3692 15.4899 18.7876 13.7548 18.1962C12.233 17.6776 13.5077 16.2331 13.5077 16.2331C13.6531 16.0441 14.2637 15.0698 15.3397 15.5642C16.9246 16.2864 18.5482 16.965 20.1524 17.663C20.6613 17.886 21.1751 18.109 21.1121 18.6858V18.6906Z" fill="#DDAE07"/>
<path d="M22.9005 5.04112C23.4773 5.01688 23.7923 5.40465 24.0589 5.80212C25.0185 7.22233 25.9491 8.66192 26.8893 10.0967C27.2431 10.6299 27.4661 11.1776 26.7924 11.6235C26.1623 12.0452 25.4644 12.5639 24.7665 11.798C23.4676 10.3633 22.1929 8.90913 20.9812 7.40652C20.4723 6.77639 21.8536 5.11383 22.9005 5.04112Z" fill="#DDAE07"/>
<path d="M62.7741 17.125C62.8274 17.7115 62.396 17.949 61.9017 18.1478C60.2344 18.8215 58.5623 19.4904 56.8999 20.1836C56.0663 20.5277 55.5041 20.3629 55.1018 19.5777C54.7189 18.8264 54.5784 18.235 55.5671 17.7455C57.0211 17.0281 58.4169 16.2041 59.8515 15.4431C61.4315 14.6045 62.7886 15.3946 62.7741 17.125Z" fill="#DDAE07"/>
<path d="M45.6072 9.47603C44.8995 9.16097 43.9302 8.98647 44.3131 7.56627C44.7881 5.8213 45.2679 4.07633 45.7477 2.33137C45.9997 1.42011 46.4699 0.89662 47.318 1.45889C48.016 1.91936 49.3488 1.9339 48.7672 3.49468C48.1032 5.28327 47.3423 7.02823 46.625 8.79259C46.4408 9.24337 46.1791 9.55359 45.6023 9.47119L45.6072 9.47603Z" fill="#DDAE07"/>
<path d="M16.8519 24.7009C15.6208 24.57 14.1571 24.4294 12.7031 24.2501C11.4818 24.095 11.1619 23.4503 11.3848 22.4567C11.6078 21.463 12.1894 20.9686 13.3865 21.2158C14.9859 21.5454 16.5611 21.9526 18.1605 22.2579C19.0862 22.4324 19.5854 22.7717 19.4497 23.6394C19.314 24.5167 18.6645 24.7397 17.763 24.7057C17.5352 24.696 17.3074 24.7057 16.8519 24.7057V24.7009Z" fill="#DDAE07"/>
<path d="M60.0793 29.2089C61.3104 29.0877 62.7741 28.9617 64.2281 28.7969C65.4494 28.6563 65.7693 28.0698 65.5463 27.1634C65.3234 26.257 64.7418 25.8062 63.5447 26.034C61.9453 26.3346 60.3701 26.7078 58.7707 26.9841C57.845 27.144 57.3458 27.4543 57.4815 28.2443C57.6172 29.0441 58.2667 29.2477 59.1681 29.2186C59.3959 29.2089 59.6237 29.2186 60.0793 29.2186V29.2089Z" fill="#DDAE07"/>
<path d="M16.0037 29.4076C14.7678 29.3786 13.2993 29.3592 11.8356 29.301C10.6094 29.2525 10.2459 28.6854 10.401 27.7693C10.5561 26.8484 11.1037 26.3588 12.3154 26.4945C13.9293 26.6739 15.5287 26.9308 17.1475 27.0907C18.0829 27.1828 18.6015 27.4542 18.5288 28.2492C18.4561 29.0538 17.8212 29.3058 16.9197 29.3446C16.6919 29.3543 16.469 29.3786 16.0086 29.4125H16.0037V29.4076Z" fill="#DDAE07"/>
<path d="M59.4783 24.3713C60.7093 24.2404 62.173 24.0999 63.627 23.9205C64.8484 23.7654 65.1683 23.1207 64.9453 22.1271C64.7224 21.1334 64.1408 20.639 62.9437 20.8862C61.3443 21.2158 59.7691 21.623 58.1697 21.9283C57.244 22.1028 56.7448 22.4421 56.8805 23.3098C57.0162 24.1871 57.6656 24.4101 58.5671 24.3761C58.7949 24.3665 59.0227 24.3761 59.4783 24.3761V24.3713Z" fill="#DDAE07"/>
<path d="M23.7487 14.1975C23.7778 15.0748 22.6969 15.9182 21.9069 15.574C19.9004 14.6967 18.1702 13.4122 16.4981 12.1084C15.616 11.4201 17.0894 10.2228 17.0894 10.2228C17.0894 10.2228 17.7437 9.39881 18.6064 9.6654C20.3802 10.9402 22.1153 12.278 23.6033 13.8388C23.7051 13.9454 23.7196 14.1199 23.7487 14.2023V14.1975Z" fill="#DDAE07"/>
<path d="M158.273 29.4318C159.456 29.4318 160.415 28.4726 160.415 27.2894C160.415 26.1062 159.456 25.147 158.273 25.147C157.09 25.147 156.131 26.1062 156.131 27.2894C156.131 28.4726 157.09 29.4318 158.273 29.4318Z" fill="#20583B"/>
</g>
<defs>
<clipPath id="clip0_487_208">
<rect width="275" height="69.7792" fill="white"/>
</clipPath>
</defs>
</svg>
