<svg width="56" height="57" viewBox="0 0 56 57" fill="none" xmlns="http://www.w3.org/2000/svg">
<path d="M30.8784 0.0126953C34.0283 0.0210951 35.627 0.0378947 37.0073 0.0770938L37.5505 0.0966932C38.1777 0.119093 38.7964 0.147092 39.544 0.180691C42.523 0.320688 44.5557 0.791077 46.3393 1.48266C48.1872 2.19384 49.7439 3.15702 51.3006 4.71098C52.7249 6.1102 53.8266 7.80343 54.5288 9.67246C55.2204 11.456 55.6908 13.4888 55.8308 16.4707C55.8644 17.2155 55.8924 17.8343 55.9148 18.4642L55.9316 19.0074C55.9736 20.385 55.9904 21.9838 55.996 25.1337L55.9988 27.2224V30.8903C56.0056 32.9326 55.9841 34.9749 55.9344 37.0166L55.9176 37.5598C55.8952 38.1898 55.8672 38.8086 55.8336 39.5533C55.6936 42.5353 55.2176 44.5652 54.5288 46.3516C53.8266 48.2206 52.7249 49.9138 51.3006 51.3131C49.9014 52.7374 48.2082 53.8391 46.3393 54.5414C44.5557 55.233 42.523 55.7034 39.544 55.8433L37.5505 55.9273L37.0073 55.9441C35.627 55.9833 34.0283 56.0029 30.8784 56.0085L28.7897 56.0113H25.1247C23.0816 56.0185 21.0384 55.9971 18.9958 55.9469L18.4527 55.9301C17.788 55.905 17.1235 55.876 16.4592 55.8433C13.4801 55.7034 11.4474 55.233 9.66111 54.5414C7.79312 53.8387 6.10092 52.737 4.70256 51.3131C3.27727 49.9141 2.17459 48.2209 1.47152 46.3516C0.779954 44.568 0.309577 42.5353 0.169584 39.5533L0.0855882 37.5598L0.0715893 37.0166C0.0199768 34.9749 -0.00335786 32.9327 0.00159255 30.8903V25.1337C-0.00615716 23.0914 0.0143773 21.0491 0.0631897 19.0074L0.0827886 18.4642C0.105187 17.8343 0.133186 17.2155 0.166784 16.4707C0.306777 13.4888 0.777153 11.4588 1.46872 9.67246C2.17343 7.80266 3.27805 6.10937 4.70536 4.71098C6.10291 3.28735 7.79413 2.18565 9.66111 1.48266C11.4474 0.791077 13.4773 0.320688 16.4592 0.180691C17.2039 0.147092 17.8255 0.119093 18.4527 0.0966932L18.9958 0.0798935C21.0375 0.0301465 23.0797 0.00867826 25.1219 0.015495L30.8784 0.0126953ZM28.0002 14.0124C24.2873 14.0124 20.7266 15.4873 18.1012 18.1128C15.4758 20.7382 14.0009 24.2991 14.0009 28.012C14.0009 31.725 15.4758 35.2858 18.1012 37.9113C20.7266 40.5367 24.2873 42.0117 28.0002 42.0117C31.713 42.0117 35.2738 40.5367 37.8992 37.9113C40.5246 35.2858 41.9995 31.725 41.9995 28.012C41.9995 24.2991 40.5246 20.7382 37.8992 18.1128C35.2738 15.4873 31.713 14.0124 28.0002 14.0124ZM28.0002 19.6122C29.1032 19.612 30.1955 19.8291 31.2147 20.2511C32.2338 20.673 33.1599 21.2916 33.94 22.0715C34.7201 22.8513 35.339 23.7772 35.7612 24.7963C36.1835 25.8153 36.401 26.9075 36.4012 28.0106C36.4013 29.1137 36.1843 30.206 35.7623 31.2252C35.3404 32.2444 34.7218 33.1705 33.942 33.9506C33.1621 34.7307 32.2363 35.3496 31.2173 35.7719C30.1982 36.1942 29.106 36.4116 28.003 36.4118C25.7753 36.4118 23.6388 35.5268 22.0636 33.9516C20.4884 32.3763 19.6034 30.2398 19.6034 28.012C19.6034 25.7843 20.4884 23.6477 22.0636 22.0725C23.6388 20.4972 25.7753 19.6122 28.003 19.6122M42.7022 9.81246C41.774 9.81246 40.8838 10.1812 40.2275 10.8376C39.5711 11.4939 39.2024 12.3841 39.2024 13.3124C39.2024 14.2406 39.5711 15.1308 40.2275 15.7872C40.8838 16.4435 41.774 16.8123 42.7022 16.8123C43.6304 16.8123 44.5206 16.4435 45.177 15.7872C45.8333 15.1308 46.2021 14.2406 46.2021 13.3124C46.2021 12.3841 45.8333 11.4939 45.177 10.8376C44.5206 10.1812 43.6304 9.81246 42.7022 9.81246Z" fill="#FFF1D7"/>
</svg>
