<svg width="52" height="53" viewBox="0 0 52 53" fill="none" xmlns="http://www.w3.org/2000/svg">
<path d="M26 0.0126953C40.3598 0.0126953 52 11.6529 52 26.0127C52 40.3725 40.3598 52.0127 26 52.0127C21.4052 52.0206 16.8911 50.8046 12.922 48.4897L0.0104402 52.0127L3.52564 39.0959C1.20893 35.1255 -0.00801222 30.6095 3.96985e-05 26.0127C3.96985e-05 11.6529 11.6402 0.0126953 26 0.0126953ZM17.1392 13.7927L16.6192 13.8135C16.283 13.8367 15.9545 13.925 15.652 14.0735C15.3701 14.2334 15.1127 14.4331 14.8876 14.6663C14.5756 14.9601 14.3988 15.2149 14.209 15.4619C13.2473 16.7122 12.7296 18.2473 12.7374 19.8247C12.7426 21.0987 13.0754 22.3389 13.5954 23.4985C14.6588 25.8437 16.4086 28.3267 18.7174 30.6277C19.2738 31.1815 19.8198 31.7379 20.4074 32.2553C23.2763 34.7809 26.695 36.6024 30.3914 37.5749L31.8682 37.8011C32.3492 37.8271 32.8302 37.7907 33.3138 37.7673C34.0709 37.7273 34.8101 37.5224 35.4796 37.1667C35.8198 36.9908 36.1521 36.7999 36.4754 36.5947C36.4754 36.5947 36.5855 36.5201 36.8004 36.3607C37.1514 36.1007 37.3672 35.9161 37.6584 35.6119C37.8768 35.3865 38.0588 35.1248 38.2044 34.8267C38.4072 34.4029 38.61 33.5943 38.6932 32.9209C38.7556 32.4061 38.7374 32.1253 38.7296 31.9511C38.7192 31.6729 38.4878 31.3843 38.2356 31.2621L36.7224 30.5835C36.7224 30.5835 34.4604 29.5981 33.0772 28.9689C32.9324 28.9058 32.7774 28.8697 32.6196 28.8623C32.4417 28.8437 32.2619 28.8635 32.0923 28.9205C31.9227 28.9775 31.7674 29.0702 31.6368 29.1925C31.6238 29.1873 31.4496 29.3355 29.5698 31.6131C29.4619 31.7581 29.3133 31.8676 29.1429 31.9278C28.9725 31.988 28.788 31.9961 28.613 31.9511C28.4436 31.9059 28.2776 31.8486 28.1164 31.7795C27.794 31.6443 27.6822 31.5923 27.4612 31.4987C25.9685 30.8484 24.5868 29.9685 23.3662 28.8909C23.0386 28.6049 22.7344 28.2929 22.4224 27.9913C21.3996 27.0116 20.5082 25.9034 19.7704 24.6945L19.617 24.4475C19.5085 24.2806 19.4195 24.1017 19.3518 23.9145C19.253 23.5323 19.5104 23.2255 19.5104 23.2255C19.5104 23.2255 20.1422 22.5339 20.436 22.1595C20.722 21.7955 20.9638 21.4419 21.1198 21.1897C21.4266 20.6957 21.5228 20.1887 21.3616 19.7961C20.6336 18.0177 19.8814 16.2488 19.1048 14.4895C18.9514 14.1411 18.4964 13.8915 18.083 13.8421C17.9426 13.8248 17.8022 13.8109 17.6618 13.8005C17.3127 13.7805 16.9627 13.7839 16.614 13.8109L17.1392 13.7927Z" fill="#FFF1D7"/>
</svg>
