<svg width="56" height="57" viewBox="0 0 56 57" fill="none" xmlns="http://www.w3.org/2000/svg">
<path fill-rule="evenodd" clip-rule="evenodd" d="M52.9088 0.0126953H3.0912C1.3832 0.0126953 0 1.3959 0 3.1039V52.9215C0 54.6295 1.3832 56.0127 3.0912 56.0127H29.9096V34.3267H22.6128V25.8763H29.9096V19.6407C29.9096 12.4055 34.328 8.46869 40.782 8.46869C43.8732 8.46869 46.5276 8.69829 47.3032 8.8019V16.3619H42.8288C39.3176 16.3619 38.64 18.0307 38.64 20.4779V25.8735H47.0092L45.9172 34.3239H38.6372V56.0127H52.9088C54.6168 56.0127 56 54.6295 56 52.9215V3.1039C56 1.3959 54.6168 0.0126953 52.9088 0.0126953Z" fill="#FFF1D7"/>
</svg>
