<svg width="53" height="53" viewBox="0 0 53 53" fill="none" xmlns="http://www.w3.org/2000/svg">
<path fill-rule="evenodd" clip-rule="evenodd" d="M53 7.35523C53 3.30007 49.6494 0.0126953 45.5163 0.0126953H7.48373C3.35059 0.0126953 0 3.30007 0 7.35523V44.6702C0 48.7254 3.35059 52.0127 7.48373 52.0127H45.5163C49.6494 52.0127 53 48.7254 53 44.6702V7.35523ZM43.9078 22.6922C40.4883 22.7297 37.302 21.7155 34.5044 19.837V33.0238C34.5044 38.8846 30.4154 43.9191 24.6334 45.2339C16.7452 46.9996 10.0674 41.4019 9.22518 34.7146C8.34445 28.0272 12.6915 22.1663 19.3543 20.8514C20.6562 20.5884 22.6144 20.5884 23.6246 20.8139V27.8768C23.3138 27.8019 23.0227 27.7267 22.7164 27.6891C20.1125 27.2382 17.5906 28.5156 16.5567 30.8449C15.5228 33.1743 16.2148 35.8792 18.3208 37.4573C20.0822 38.8097 22.0365 38.9974 24.0276 38.0957C26.0189 37.2318 27.089 35.6539 27.3186 33.5125C27.3569 33.212 27.3548 32.8738 27.3548 32.5356V7.17608C27.3548 6.46232 27.3605 6.49345 28.0881 6.49345H33.7935C34.2149 6.49345 34.3681 6.55293 34.4063 7.0416C34.7125 11.3997 38.0849 15.1112 42.4119 15.6748C42.8714 15.7498 43.3638 15.7796 43.9078 15.8171V22.6922Z" fill="#FFF1D7"/>
</svg>
