<svg width="48" height="48" viewBox="0 0 48 48" fill="none" xmlns="http://www.w3.org/2000/svg">
<path d="M46.1789 20.207H35.6706C35.4351 20.207 35.2441 20.3984 35.2441 20.6344V21.6112C35.2441 21.8472 35.4351 22.0386 35.6706 22.0386H46.1789C46.4144 22.0386 46.6053 21.8472 46.6053 21.6112V20.6344C46.6053 20.3984 46.4144 20.207 46.1789 20.207Z" fill="#20583B"/>
<path d="M35.7853 22.9546C35.7853 22.1304 35.7853 21.3062 35.7853 20.482C35.7853 20.2073 35.7853 20.2073 35.5111 20.2073C35.2066 20.2073 34.902 20.2073 34.5974 20.2073C34.0796 20.2684 33.5618 20.3599 33.044 20.482C32.0084 20.6957 31.0032 21.062 30.0894 21.581C29.6326 21.8252 29.2061 22.1304 28.7493 22.3746C27.9878 22.802 27.4091 23.443 26.8303 24.0535C26.6171 24.2977 26.3735 24.5114 26.1907 24.7556C25.9166 25.1219 25.6729 25.5188 25.3988 25.9156C24.9114 26.7092 24.5459 27.564 24.2413 28.4187C24.15 28.6934 24.0586 28.9376 23.9672 29.2124C23.9063 29.5176 23.8454 29.7923 23.7844 30.0976C23.7235 30.3418 23.6626 30.6165 23.6321 30.8607C23.6017 31.3491 23.5712 31.8375 23.5408 32.2954C23.5408 33.2112 23.5408 34.127 23.5408 35.0427C23.5408 35.9585 23.5408 36.9048 23.5408 37.8511C23.5408 38.6142 23.5408 39.3774 23.5408 40.1405C23.5408 41.4836 23.5408 42.7962 23.5408 44.1393C23.5408 44.2615 23.5408 44.2309 23.5408 44.3836C23.5408 44.3836 23.9063 44.3836 24.1195 44.3836C25.2465 44.3836 26.3735 44.3836 27.5004 44.3836C28.9015 44.3836 30.3027 44.3836 31.7342 44.3836C33.044 44.3836 34.3537 44.3836 35.6634 44.4141C35.9985 44.4141 36.3335 44.4141 36.6686 44.4141C37.0341 44.3836 37.3996 44.292 37.7651 44.2309C38.0088 44.1699 38.2829 44.1394 38.5266 44.0783C38.9835 43.9562 39.4404 43.8646 39.8668 43.6815C40.476 43.4373 41.0547 43.1625 41.6334 42.8878C41.9989 42.7047 42.3035 42.4604 42.669 42.2773C43.0345 42.0941 43.3391 41.8194 43.6132 41.5447C44.0397 41.1478 44.4661 40.751 44.8925 40.3237C45.4103 39.7742 45.8063 39.1332 46.1718 38.4921C46.6287 37.729 46.9942 36.9353 47.2683 36.0806C47.4206 35.5311 47.5729 34.9817 47.6947 34.4017C47.7861 34.0049 47.8166 33.6386 47.847 33.2417C47.847 32.9365 47.9079 32.6617 47.9079 32.3565C47.9079 31.807 47.9079 31.2576 47.9079 30.7081C47.9079 30.0976 47.9079 29.4566 47.9079 28.846C47.9079 28.0218 47.9079 27.1977 47.9079 26.404C47.9079 25.824 47.9079 25.244 47.9079 24.664C47.9079 24.1756 47.9079 23.6872 47.9384 23.1988C47.9384 22.283 47.9384 21.3978 47.9384 20.482C47.9384 20.3599 47.9689 20.2684 47.9993 20.1463C46.9942 20.1463 46.0195 20.1463 44.9839 20.1463V20.3905C44.9839 21.9473 44.9839 21.7946 44.9839 21.9778C44.9839 21.9778 44.9534 22.802 44.9839 22.9546C44.9534 23.0767 44.923 23.1683 44.8925 23.1988C44.7098 23.382 44.527 23.5346 44.3442 23.7483C44.1615 23.9314 43.9787 24.1756 43.796 24.3588C43.3696 24.8167 42.9127 25.244 42.4558 25.7019C42.3644 25.7935 42.273 25.8851 42.1817 25.9766C42.1512 26.0072 42.0903 26.0377 42.0598 26.0377C42.0598 26.0072 41.9989 25.9461 41.9989 25.8851C41.9989 25.6714 41.9989 25.4272 41.9989 25.2135C41.9989 24.5419 41.9989 23.8704 41.9989 23.1683C41.9989 22.7104 41.9989 22.4662 41.9989 21.9778C41.9989 21.4894 41.9989 20.7568 41.9989 20.2684C41.9989 20.1768 41.938 20.1463 41.8466 20.1463C41.0242 20.1463 40.2018 20.1462 39.349 20.1157C39.1662 20.1157 39.0139 20.1157 38.8312 20.1157C38.8312 20.1157 38.7398 20.1768 38.7398 20.2073C38.7398 21.062 38.7398 21.9167 38.7398 22.7715C38.7398 23.6262 38.7398 23.9619 38.7398 24.5419C38.7398 25.0609 38.7398 25.6103 38.7398 26.1293C38.7398 27.0756 38.7398 27.9913 38.7398 28.9376C38.7398 29.1513 38.6484 29.3344 38.4961 29.4871C37.6128 30.3418 36.7295 31.1965 35.8767 32.0512C35.8462 32.0818 35.7853 32.1123 35.7244 32.1428C35.7244 32.0817 35.6939 32.0512 35.6939 31.9902C35.6939 31.1355 35.6939 30.3113 35.6939 29.4566C35.6939 29.0597 35.6939 28.6324 35.6939 28.2355C35.6939 27.625 35.6939 27.0145 35.6939 26.3735C35.6939 25.5188 35.6939 24.6946 35.6939 23.8398V23.3514M29.6935 38.2785V38.3395C33.9273 38.3395 38.1611 38.4005 42.4253 38.4005C42.3644 38.4616 42.3644 38.5227 42.3035 38.5837C42.1512 38.7363 41.9684 38.889 41.7857 39.0416C41.542 39.2858 41.2983 39.53 41.0242 39.7131C40.2627 40.2626 39.4099 40.69 38.4961 40.9647C37.7042 41.2089 36.9123 41.3615 36.0899 41.3615C35.6634 41.3615 35.2675 41.3615 34.8411 41.3615H32.252C31.3992 41.3615 30.5463 41.3615 29.7239 41.3615C28.7493 41.3615 27.805 41.3615 26.8303 41.3615C26.5867 41.3615 26.5562 41.331 26.5562 41.0868C26.5562 40.8426 26.5562 40.5679 26.5562 40.3237C26.5562 39.5605 26.5562 38.7669 26.5562 37.9732C26.5562 37.0574 26.5562 36.1417 26.5562 35.2564C26.5562 34.188 26.5562 33.1196 26.5562 32.0512C26.5562 30.9828 26.7999 29.945 27.1654 28.9682C27.47 28.205 27.8659 27.4724 28.3533 26.8008C28.5665 26.5261 28.8102 26.2819 29.0538 26.0377C29.3584 25.7324 29.663 25.3966 29.9981 25.1219C30.2722 24.8777 30.5768 24.6946 30.9118 24.5114C31.4601 24.1756 32.0388 23.9009 32.7089 23.7177C32.7089 23.8093 32.7089 23.8704 32.7089 23.9619C32.7089 24.9998 32.7089 26.0377 32.7089 27.0756C32.7089 27.9303 32.7089 28.7545 32.7089 29.6092C32.7089 30.1586 32.7089 30.7386 32.7089 31.2881C32.7089 31.7765 32.7089 32.2344 32.7089 32.7228C32.7089 33.4554 32.7089 34.188 32.7089 34.9206C32.7089 35.1648 32.6175 35.348 32.4653 35.5006C31.6124 36.3553 30.7595 37.1795 29.9067 38.0342C29.8153 38.1258 29.7239 38.1869 29.6021 38.2479L29.6935 38.2785ZM32.9221 35.3175V35.2564C32.9831 35.1648 33.0744 35.0733 33.1658 34.9817C33.9577 34.188 34.7192 33.3944 35.5111 32.6312C35.6634 32.4786 35.8157 32.387 36.0594 32.387C36.9732 32.387 37.8565 32.4175 38.7703 32.4481C39.2576 32.4481 39.7449 32.4481 40.2323 32.4481C40.7196 32.4481 41.5116 32.4481 42.1512 32.4481H43.8569C43.9483 32.4481 44.0701 32.4786 44.1615 32.4786C44.3442 32.4786 44.4965 32.4481 44.6793 32.4481C44.923 32.4481 44.923 32.4481 44.8925 32.6923C44.8621 33.547 44.6793 34.4017 44.4356 35.2564C44.4052 35.3785 44.3442 35.4396 44.192 35.4396C43.1259 35.4396 42.0294 35.4396 40.9633 35.4396C39.5622 35.4396 38.1306 35.4396 36.7295 35.4396C35.5111 35.4396 34.2928 35.4396 33.1049 35.4396C33.044 35.4396 33.0135 35.4396 32.9526 35.4396L32.9221 35.3175ZM40.415 29.3344C39.9886 29.3344 39.5926 29.3344 39.1662 29.3344C39.1053 29.3344 39.0444 29.3345 38.9835 29.2734C38.9835 29.2124 39.0444 29.1513 39.0748 29.1208C39.9582 28.2661 40.811 27.3808 41.6943 26.5261C41.8466 26.3735 42.0294 26.2514 42.273 26.2819C42.4253 26.2819 42.5776 26.2819 42.6995 26.2819C43.3696 26.2819 44.0397 26.2819 44.7402 26.2819C44.8925 26.2819 44.923 26.3124 44.923 26.465C44.923 26.8008 44.923 27.1671 44.923 27.5029C44.923 28.0524 44.923 28.6324 44.923 29.1818C44.923 29.2734 44.862 29.3344 44.7707 29.3344C44.5879 29.3344 44.3747 29.3344 44.192 29.3344C43.7046 29.3344 43.2173 29.3344 42.7299 29.3344C42.3644 29.3344 41.9989 29.3344 41.6334 29.3344C41.2374 29.3344 40.811 29.3344 40.415 29.3344Z" fill="#20583B"/>
<path d="M1.82841 22.0371H12.3368C12.5723 22.0371 12.7632 21.8458 12.7632 21.6098V20.6329C12.7632 20.3969 12.5723 20.2056 12.3368 20.2056H1.82841C1.5929 20.2056 1.40199 20.3969 1.40199 20.6329V21.6098C1.40199 21.8458 1.5929 22.0371 1.82841 22.0371Z" fill="#20583B"/>
<path d="M12.214 22.9546C12.214 22.1304 12.214 21.3062 12.214 20.482C12.214 20.2073 12.214 20.2073 12.4882 20.2073C12.7928 20.2073 13.0974 20.2073 13.4019 20.2073C13.9197 20.2684 14.4376 20.3599 14.9554 20.482C15.991 20.6957 16.9961 21.062 17.9099 21.581C18.3668 21.8252 18.7932 22.1304 19.2501 22.3746C20.0115 22.802 20.5903 23.443 21.169 24.0535C21.3822 24.2977 21.6259 24.5114 21.8086 24.7556C22.0828 25.1219 22.3264 25.5188 22.6006 25.9156C23.0879 26.7092 23.4534 27.564 23.758 28.4187C23.8494 28.6934 23.9408 28.9376 24.0321 29.2124C24.093 29.5176 24.154 29.7923 24.2149 30.0976C24.2758 30.3418 24.3367 30.6165 24.3672 30.8607C24.3976 31.3491 24.4281 31.8375 24.4586 32.2954C24.4586 33.2112 24.4586 34.127 24.4586 35.0427C24.4586 35.9585 24.4586 36.9048 24.4586 37.8511C24.4586 38.6142 24.4586 39.3774 24.4586 40.1405C24.4586 41.4836 24.4586 42.7962 24.4586 44.1393C24.4586 44.2615 24.4586 44.2309 24.4586 44.3836C24.4586 44.3836 24.093 44.3836 23.8798 44.3836C22.7529 44.3836 21.6259 44.3836 20.4989 44.3836C19.0978 44.3836 17.6967 44.3836 16.2651 44.3836C14.9554 44.3836 13.6456 44.3836 12.3359 44.4141C12.0008 44.4141 11.6658 44.4141 11.3307 44.4141C10.9652 44.3836 10.5997 44.292 10.2342 44.2309C9.99054 44.1699 9.71641 44.1394 9.47274 44.0783C9.01586 43.9562 8.55897 43.8646 8.13255 43.6815C7.52337 43.4373 6.94465 43.1625 6.36592 42.8878C6.00042 42.7047 5.69583 42.4604 5.33032 42.2773C4.96481 42.0941 4.66022 41.8194 4.38609 41.5447C3.95967 41.1478 3.53324 40.751 3.10682 40.3237C2.58901 39.7742 2.19305 39.1332 1.82754 38.4921C1.37065 37.729 1.00515 36.9353 0.731016 36.0806C0.578721 35.5311 0.426426 34.9817 0.30459 34.4017C0.213213 34.0049 0.182754 33.6386 0.152295 33.2417C0.152295 32.9365 0.0913778 32.6617 0.0913778 32.3565C0.0913778 31.807 0.0913778 31.2576 0.0913778 30.7081C0.0913778 30.0976 0.0913778 29.4566 0.0913778 28.846C0.0913778 28.0218 0.0913778 27.1977 0.0913778 26.404C0.0913778 25.824 0.0913778 25.244 0.0913778 24.664C0.0913778 24.1756 0.0913783 23.6872 0.0609193 23.1988C0.0609193 22.283 0.0609193 21.3978 0.0609193 20.482C0.0609193 20.3599 0.030459 20.2684 0 20.1463C1.00515 20.1463 1.97983 20.1463 3.01544 20.1463V20.3905C3.01544 21.9473 3.01544 21.7946 3.01544 21.9778C3.01544 21.9778 3.0459 22.802 3.01544 22.9546C3.0459 23.0767 3.07636 23.1683 3.10682 23.1988C3.28957 23.382 3.47232 23.5346 3.65508 23.7483C3.83783 23.9314 4.02058 24.1756 4.20334 24.3588C4.62976 24.8167 5.08665 25.244 5.54353 25.7019C5.63491 25.7935 5.72629 25.8851 5.81767 25.9766C5.84812 26.0072 5.90904 26.0377 5.9395 26.0377C5.9395 26.0072 6.00042 25.9461 6.00042 25.8851C6.00042 25.6714 6.00042 25.4272 6.00042 25.2135C6.00042 24.5419 6.00042 23.8704 6.00042 23.1683C6.00042 22.7104 6.00042 22.4662 6.00042 21.9778C6.00042 21.4894 6.00042 20.7568 6.00042 20.2684C6.00042 20.1768 6.06134 20.1463 6.15271 20.1463C6.97511 20.1463 7.7975 20.1462 8.65035 20.1157C8.8331 20.1157 8.9854 20.1157 9.16815 20.1157C9.16815 20.1157 9.25953 20.1768 9.25953 20.2073C9.25953 21.062 9.25953 21.9167 9.25953 22.7715C9.25953 23.6262 9.25953 23.9619 9.25953 24.5419C9.25953 25.0609 9.25953 25.6103 9.25953 26.1293C9.25953 27.0756 9.25953 27.9913 9.25953 28.9376C9.25953 29.1513 9.3509 29.3344 9.5032 29.4871C10.3865 30.3418 11.2698 31.1965 12.1227 32.0512C12.1531 32.0818 12.214 32.1123 12.275 32.1428C12.275 32.0817 12.3054 32.0512 12.3054 31.9902C12.3054 31.1355 12.3054 30.3113 12.3054 29.4566C12.3054 29.0597 12.3054 28.6324 12.3054 28.2355C12.3054 27.625 12.3054 27.0145 12.3054 26.3735C12.3054 25.5188 12.3054 24.6946 12.3054 23.8398V23.3514M18.3363 38.2785V38.3395C14.1025 38.3395 9.86871 38.4005 5.60445 38.4005C5.66537 38.4616 5.66537 38.5227 5.72629 38.5837C5.87858 38.7363 6.06133 38.889 6.24409 39.0416C6.48776 39.2858 6.73143 39.53 7.00556 39.7131C7.76704 40.2626 8.61989 40.69 9.53366 40.9647C10.3256 41.2089 11.1175 41.3615 11.9399 41.3615C12.3663 41.3615 12.7623 41.3615 13.1887 41.3615H15.7777C16.6306 41.3615 17.4834 41.3615 18.3058 41.3615C19.2805 41.3615 20.2248 41.3615 21.1994 41.3615C21.4431 41.3615 21.4736 41.331 21.4736 41.0868C21.4736 40.8426 21.4736 40.5679 21.4736 40.3237C21.4736 39.5605 21.4736 38.7669 21.4736 37.9732C21.4736 37.0574 21.4736 36.1417 21.4736 35.2564C21.4736 34.188 21.4736 33.1196 21.4736 32.0512C21.4736 30.9828 21.2299 29.945 20.8644 28.9682C20.5598 28.205 20.1638 27.4724 19.6765 26.8008C19.4633 26.5261 19.2196 26.2819 18.9759 26.0377C18.6713 25.7324 18.3668 25.3966 18.0317 25.1219C17.7576 24.8777 17.453 24.6946 17.1179 24.5114C16.5697 24.1756 15.991 23.9009 15.3209 23.7177C15.3209 23.8093 15.3209 23.8704 15.3209 23.9619C15.3209 24.9998 15.3209 26.0377 15.3209 27.0756C15.3209 27.9303 15.3209 28.7545 15.3209 29.6092C15.3209 30.1586 15.3209 30.7386 15.3209 31.2881C15.3209 31.7765 15.3209 32.2344 15.3209 32.7228C15.3209 33.4554 15.3209 34.188 15.3209 34.9206C15.3209 35.1648 15.4122 35.348 15.5645 35.5006C16.4174 36.3553 17.2702 37.1795 18.1231 38.0342C18.2145 38.1258 18.3058 38.1869 18.4277 38.2479L18.3363 38.2785ZM15.1077 35.3175V35.2564C15.0467 35.1648 14.9554 35.0733 14.864 34.9817C14.072 34.188 13.3106 33.3944 12.5186 32.6312C12.3663 32.4786 12.214 32.387 11.9704 32.387C11.0566 32.387 10.1733 32.4175 9.25953 32.4481C8.77218 32.4481 8.28484 32.4481 7.7975 32.4481C7.31015 32.4481 6.51822 32.4481 5.87858 32.4481H4.17288C4.0815 32.4481 3.95967 32.4786 3.86829 32.4786C3.68554 32.4786 3.53324 32.4481 3.35049 32.4481C3.10681 32.4481 3.10682 32.4481 3.13727 32.6923C3.16773 33.547 3.35049 34.4017 3.59416 35.2564C3.62462 35.3785 3.68554 35.4396 3.83783 35.4396C4.9039 35.4396 6.00042 35.4396 7.06648 35.4396C8.4676 35.4396 9.89917 35.4396 11.3003 35.4396C12.5186 35.4396 13.737 35.4396 14.9249 35.4396C14.9858 35.4396 15.0163 35.4396 15.0772 35.4396L15.1077 35.3175ZM7.58428 29.3344C8.01071 29.3344 8.40668 29.3344 8.8331 29.3344C8.89402 29.3344 8.95494 29.3345 9.01586 29.2734C9.01586 29.2124 8.95494 29.1513 8.92448 29.1208C8.04117 28.2661 7.18832 27.3808 6.30501 26.5261C6.15271 26.3735 5.96996 26.2514 5.72629 26.2819C5.57399 26.2819 5.4217 26.2819 5.29986 26.2819C4.62976 26.2819 3.95967 26.2819 3.25911 26.2819C3.10682 26.2819 3.07636 26.3124 3.07636 26.465C3.07636 26.8008 3.07636 27.1671 3.07636 27.5029C3.07636 28.0524 3.07636 28.6324 3.07636 29.1818C3.07636 29.2734 3.13728 29.3344 3.22865 29.3344C3.41141 29.3344 3.62462 29.3344 3.80737 29.3344C4.29471 29.3344 4.78206 29.3344 5.2694 29.3344C5.63491 29.3344 6.00042 29.3344 6.36592 29.3344C6.76189 29.3344 7.18832 29.3344 7.58428 29.3344Z" fill="#20583B"/>
<path d="M12.9536 17.2493C13.3496 9.86208 20.2333 5.13061 26.782 6.99267C31.5031 8.3358 34.7013 12.4568 34.8841 17.6156C34.9145 18.6229 33.8789 19.4471 32.6301 19.4166C32.1428 19.4166 31.625 19.3555 31.1376 19.2334C26.2337 18.104 21.3298 18.1345 16.4259 19.264C15.6949 19.4471 14.9639 19.5692 14.2329 19.2029C13.1364 18.684 12.9536 18.4398 12.9536 17.2187V17.2493Z" fill="#DDAE07"/>
<path d="M24.7256 4.02926C24.7865 3.1135 24.8474 2.25878 24.9083 1.40406C24.9693 0.51882 25.5175 0.518814 26.0962 0.54934C26.7359 0.579865 27.0709 0.854597 26.9186 1.64826C26.7359 2.62508 26.614 3.63243 26.4618 4.60925C26.3704 5.25028 26.1876 5.79975 25.4261 5.70817C24.6951 5.58607 24.756 4.97555 24.7256 4.39556V3.99874V4.02926Z" fill="#DDAE07"/>
<path d="M19.6465 5.64711C19.7074 6.22709 19.4028 6.44077 19.0373 6.62393C18.6718 6.80708 18.3672 6.65445 18.1844 6.25762C17.7276 5.18922 17.2707 4.12082 16.8442 3.0219C16.4787 2.07561 17.2707 2.04509 17.6971 1.73983C18.154 1.43458 18.4281 1.64826 18.6109 2.19772C19.0373 3.32717 19.3114 4.51766 19.5856 5.64711H19.6465Z" fill="#DDAE07"/>
<path d="M31.6227 8.02819C30.9526 8.02819 30.4348 7.23453 30.7698 6.62402C31.3181 5.58615 31.9273 4.60932 32.506 3.60198C32.9324 2.86937 33.3893 3.20515 33.8462 3.57146C34.3031 3.93777 34.699 4.27355 34.1812 4.94511C33.5111 5.83035 32.8715 6.74612 32.2014 7.63136C32.0491 7.84504 31.8664 7.99767 31.6227 7.99767V8.02819Z" fill="#DDAE07"/>
<path d="M37.6209 7.54221C37.6209 7.90851 37.4381 8.09166 37.2554 8.24429C36.3416 8.88533 35.4278 9.49584 34.5141 10.1674C33.8744 10.6253 33.4785 10.32 33.052 9.89267C32.5952 9.40426 32.9911 9.099 33.3262 8.82427C34.1181 8.15271 34.8796 7.48115 35.6715 6.80958C35.9456 6.59591 36.1893 6.26012 36.5853 6.50433C37.0726 6.77906 37.4686 7.17589 37.6209 7.60325V7.54221Z" fill="#DDAE07"/>
<path d="M22.7182 4.58008C22.84 5.46532 22.444 5.70953 21.9567 5.83163C21.4084 5.95373 21.2257 5.58742 21.1343 5.09902C20.9211 3.93904 20.7079 2.77906 20.5556 1.61909C20.4337 0.794901 21.0429 0.733854 21.4998 0.611751C22.0176 0.489649 22.444 0.611751 22.4745 1.37489C22.5354 2.53486 22.7486 4.06114 22.7486 4.58008H22.7182Z" fill="#DDAE07"/>
<path d="M13.3119 12.338C13.3119 12.9179 12.6723 13.2843 11.9717 13.1011C10.8752 12.7653 9.77865 12.399 8.68213 12.0327C7.7379 11.6969 8.52984 10.8117 8.52984 10.8117C8.62121 10.6896 9.01718 10.0791 9.68728 10.3843C10.6924 10.8422 11.6976 11.2696 12.7027 11.6969C13.0378 11.8496 13.3424 11.9717 13.3119 12.338Z" fill="#DDAE07"/>
<path d="M14.3979 3.72363C14.7634 3.72363 14.9462 3.96783 15.1289 4.21203C15.7381 5.09728 16.3168 6.01305 16.8956 6.92882C17.1088 7.2646 17.2611 7.60037 16.8346 7.8751C16.4387 8.14983 16.0123 8.4551 15.5554 7.99721C14.733 7.08145 13.941 6.16568 13.1796 5.21938C12.8445 4.82255 13.7278 3.78468 14.3979 3.72363Z" fill="#DDAE07"/>
<path d="M39.4735 11.3241C39.5039 11.6904 39.2298 11.843 38.9252 11.9651C37.8896 12.3925 36.8235 12.8199 35.7879 13.2472C35.2701 13.4609 34.9046 13.3693 34.661 12.8809C34.4173 12.423 34.3259 12.0262 34.9655 11.7209C35.8793 11.263 36.7626 10.7441 37.6459 10.2557C38.6511 9.73677 39.5039 10.2252 39.4735 11.3241Z" fill="#DDAE07"/>
<path d="M28.6839 6.5039C28.227 6.32074 27.6178 6.19864 27.8615 5.3134C28.1661 4.21448 28.4707 3.11556 28.7753 2.01664C28.9276 1.43666 29.2322 1.10087 29.75 1.46718C30.1764 1.77243 31.0292 1.77244 30.6637 2.74926C30.2373 3.8787 29.7804 4.97762 29.3235 6.07654C29.2017 6.35127 29.0494 6.56495 28.6839 6.5039Z" fill="#DDAE07"/>
<path d="M10.6395 16.1178C9.87806 16.0262 8.93383 15.9346 8.02006 15.843C7.25859 15.7515 7.04537 15.3546 7.19767 14.7136C7.34996 14.1031 7.71547 13.7673 8.44649 13.9199C9.45163 14.1336 10.4568 14.3778 11.4315 14.561C12.0102 14.6831 12.3148 14.8968 12.2539 15.4462C12.1625 15.9957 11.7665 16.1483 11.1878 16.1178C11.0355 16.1178 10.9137 16.1178 10.6091 16.1178H10.6395Z" fill="#DDAE07"/>
<path d="M37.7992 18.9279C38.5607 18.8668 39.5049 18.7753 40.4187 18.6531C41.1801 18.5616 41.3933 18.1953 41.241 17.6153C41.0888 17.0353 40.7232 16.7606 39.9922 16.9132C38.9871 17.0963 37.9819 17.3405 36.9768 17.5237C36.3981 17.6153 36.0935 17.829 36.1544 18.3174C36.2458 18.8058 36.6417 18.9584 37.2205 18.9279C37.3728 18.9279 37.4946 18.9279 37.7992 18.9279Z" fill="#DDAE07"/>
<path d="M10.0703 19.0815C9.27836 19.0815 8.36459 19.0509 7.45082 19.0204C6.68935 18.9899 6.44567 18.6236 6.53705 18.0436C6.62843 17.4636 6.96348 17.1584 7.72495 17.2499C8.7301 17.372 9.73524 17.5247 10.7708 17.6162C11.3496 17.6773 11.6846 17.8604 11.6542 18.3489C11.6237 18.8678 11.1973 19.0204 10.649 19.0509C10.4967 19.0509 10.3749 19.0509 10.0703 19.0815Z" fill="#DDAE07"/>
<path d="M37.4029 15.9039C38.1644 15.8123 39.1086 15.7208 40.0224 15.6292C40.7839 15.5376 40.9971 15.1408 40.8448 14.4997C40.6925 13.8892 40.327 13.5534 39.596 13.7061C38.5908 13.9197 37.5857 14.164 36.5805 14.3471C36.0018 14.4692 35.6972 14.6829 35.7582 15.2323C35.8495 15.7818 36.2455 15.9344 36.8242 15.9039C36.9765 15.9039 37.0983 15.9039 37.4029 15.9039Z" fill="#DDAE07"/>
<path d="M14.9606 9.49131C14.9606 10.0408 14.2905 10.5597 13.8031 10.346C12.5543 9.79657 11.4578 8.97237 10.3917 8.17871C9.84348 7.75135 10.7572 6.98821 10.7572 6.98821C10.7572 6.98821 11.1532 6.46928 11.7015 6.65243C12.8285 7.4461 13.8945 8.30081 14.8387 9.27763C14.8997 9.33868 14.8997 9.46079 14.9301 9.52184L14.9606 9.49131Z" fill="#DDAE07"/>
<path d="M46.1789 20.207H35.6706C35.4351 20.207 35.2441 20.3984 35.2441 20.6344V21.6112C35.2441 21.8472 35.4351 22.0386 35.6706 22.0386H46.1789C46.4144 22.0386 46.6053 21.8472 46.6053 21.6112V20.6344C46.6053 20.3984 46.4144 20.207 46.1789 20.207Z" fill="#20583B"/>
<path d="M35.7853 22.9546C35.7853 22.1304 35.7853 21.3062 35.7853 20.482C35.7853 20.2073 35.7853 20.2073 35.5111 20.2073C35.2066 20.2073 34.902 20.2073 34.5974 20.2073C34.0796 20.2684 33.5618 20.3599 33.044 20.482C32.0084 20.6957 31.0032 21.062 30.0894 21.581C29.6326 21.8252 29.2061 22.1304 28.7493 22.3746C27.9878 22.802 27.4091 23.443 26.8303 24.0535C26.6171 24.2977 26.3735 24.5114 26.1907 24.7556C25.9166 25.1219 25.6729 25.5188 25.3988 25.9156C24.9114 26.7092 24.5459 27.564 24.2413 28.4187C24.15 28.6934 24.0586 28.9376 23.9672 29.2124C23.9063 29.5176 23.8454 29.7923 23.7844 30.0976C23.7235 30.3418 23.6626 30.6165 23.6321 30.8607C23.6017 31.3491 23.5712 31.8375 23.5408 32.2954C23.5408 33.2112 23.5408 34.127 23.5408 35.0427C23.5408 35.9585 23.5408 36.9048 23.5408 37.8511C23.5408 38.6142 23.5408 39.3774 23.5408 40.1405C23.5408 41.4836 23.5408 42.7962 23.5408 44.1393C23.5408 44.2615 23.5408 44.2309 23.5408 44.3836C23.5408 44.3836 23.9063 44.3836 24.1195 44.3836C25.2465 44.3836 26.3735 44.3836 27.5004 44.3836C28.9015 44.3836 30.3027 44.3836 31.7342 44.3836C33.044 44.3836 34.3537 44.3836 35.6634 44.4141C35.9985 44.4141 36.3335 44.4141 36.6686 44.4141C37.0341 44.3836 37.3996 44.292 37.7651 44.2309C38.0088 44.1699 38.2829 44.1394 38.5266 44.0783C38.9835 43.9562 39.4404 43.8646 39.8668 43.6815C40.476 43.4373 41.0547 43.1625 41.6334 42.8878C41.9989 42.7047 42.3035 42.4604 42.669 42.2773C43.0345 42.0941 43.3391 41.8194 43.6132 41.5447C44.0397 41.1478 44.4661 40.751 44.8925 40.3237C45.4103 39.7742 45.8063 39.1332 46.1718 38.4921C46.6287 37.729 46.9942 36.9353 47.2683 36.0806C47.4206 35.5311 47.5729 34.9817 47.6947 34.4017C47.7861 34.0049 47.8166 33.6386 47.847 33.2417C47.847 32.9365 47.9079 32.6617 47.9079 32.3565C47.9079 31.807 47.9079 31.2576 47.9079 30.7081C47.9079 30.0976 47.9079 29.4566 47.9079 28.846C47.9079 28.0218 47.9079 27.1977 47.9079 26.404C47.9079 25.824 47.9079 25.244 47.9079 24.664C47.9079 24.1756 47.9079 23.6872 47.9384 23.1988C47.9384 22.283 47.9384 21.3978 47.9384 20.482C47.9384 20.3599 47.9689 20.2684 47.9993 20.1463C46.9942 20.1463 46.0195 20.1463 44.9839 20.1463V20.3905C44.9839 21.9473 44.9839 21.7946 44.9839 21.9778C44.9839 21.9778 44.9534 22.802 44.9839 22.9546C44.9534 23.0767 44.923 23.1683 44.8925 23.1988C44.7098 23.382 44.527 23.5346 44.3442 23.7483C44.1615 23.9314 43.9787 24.1756 43.796 24.3588C43.3696 24.8167 42.9127 25.244 42.4558 25.7019C42.3644 25.7935 42.273 25.8851 42.1817 25.9766C42.1512 26.0072 42.0903 26.0377 42.0598 26.0377C42.0598 26.0072 41.9989 25.9461 41.9989 25.8851C41.9989 25.6714 41.9989 25.4272 41.9989 25.2135C41.9989 24.5419 41.9989 23.8704 41.9989 23.1683C41.9989 22.7104 41.9989 22.4662 41.9989 21.9778C41.9989 21.4894 41.9989 20.7568 41.9989 20.2684C41.9989 20.1768 41.938 20.1463 41.8466 20.1463C41.0242 20.1463 40.2018 20.1462 39.349 20.1157C39.1662 20.1157 39.0139 20.1157 38.8312 20.1157C38.8312 20.1157 38.7398 20.1768 38.7398 20.2073C38.7398 21.062 38.7398 21.9167 38.7398 22.7715C38.7398 23.6262 38.7398 23.9619 38.7398 24.5419C38.7398 25.0609 38.7398 25.6103 38.7398 26.1293C38.7398 27.0756 38.7398 27.9913 38.7398 28.9376C38.7398 29.1513 38.6484 29.3344 38.4961 29.4871C37.6128 30.3418 36.7295 31.1965 35.8767 32.0512C35.8462 32.0818 35.7853 32.1123 35.7244 32.1428C35.7244 32.0817 35.6939 32.0512 35.6939 31.9902C35.6939 31.1355 35.6939 30.3113 35.6939 29.4566C35.6939 29.0597 35.6939 28.6324 35.6939 28.2355C35.6939 27.625 35.6939 27.0145 35.6939 26.3735C35.6939 25.5188 35.6939 24.6946 35.6939 23.8398V23.3514M29.6935 38.2785V38.3395C33.9273 38.3395 38.1611 38.4005 42.4253 38.4005C42.3644 38.4616 42.3644 38.5227 42.3035 38.5837C42.1512 38.7363 41.9684 38.889 41.7857 39.0416C41.542 39.2858 41.2983 39.53 41.0242 39.7131C40.2627 40.2626 39.4099 40.69 38.4961 40.9647C37.7042 41.2089 36.9123 41.3615 36.0899 41.3615C35.6634 41.3615 35.2675 41.3615 34.8411 41.3615H32.252C31.3992 41.3615 30.5463 41.3615 29.7239 41.3615C28.7493 41.3615 27.805 41.3615 26.8303 41.3615C26.5867 41.3615 26.5562 41.331 26.5562 41.0868C26.5562 40.8426 26.5562 40.5679 26.5562 40.3237C26.5562 39.5605 26.5562 38.7669 26.5562 37.9732C26.5562 37.0574 26.5562 36.1417 26.5562 35.2564C26.5562 34.188 26.5562 33.1196 26.5562 32.0512C26.5562 30.9828 26.7999 29.945 27.1654 28.9682C27.47 28.205 27.8659 27.4724 28.3533 26.8008C28.5665 26.5261 28.8102 26.2819 29.0538 26.0377C29.3584 25.7324 29.663 25.3966 29.9981 25.1219C30.2722 24.8777 30.5768 24.6946 30.9118 24.5114C31.4601 24.1756 32.0388 23.9009 32.7089 23.7177C32.7089 23.8093 32.7089 23.8704 32.7089 23.9619C32.7089 24.9998 32.7089 26.0377 32.7089 27.0756C32.7089 27.9303 32.7089 28.7545 32.7089 29.6092C32.7089 30.1586 32.7089 30.7386 32.7089 31.2881C32.7089 31.7765 32.7089 32.2344 32.7089 32.7228C32.7089 33.4554 32.7089 34.188 32.7089 34.9206C32.7089 35.1648 32.6175 35.348 32.4653 35.5006C31.6124 36.3553 30.7595 37.1795 29.9067 38.0342C29.8153 38.1258 29.7239 38.1869 29.6021 38.2479L29.6935 38.2785ZM32.9221 35.3175V35.2564C32.9831 35.1648 33.0744 35.0733 33.1658 34.9817C33.9577 34.188 34.7192 33.3944 35.5111 32.6312C35.6634 32.4786 35.8157 32.387 36.0594 32.387C36.9732 32.387 37.8565 32.4175 38.7703 32.4481C39.2576 32.4481 39.7449 32.4481 40.2323 32.4481C40.7196 32.4481 41.5116 32.4481 42.1512 32.4481H43.8569C43.9483 32.4481 44.0701 32.4786 44.1615 32.4786C44.3442 32.4786 44.4965 32.4481 44.6793 32.4481C44.923 32.4481 44.923 32.4481 44.8925 32.6923C44.8621 33.547 44.6793 34.4017 44.4356 35.2564C44.4052 35.3785 44.3442 35.4396 44.192 35.4396C43.1259 35.4396 42.0294 35.4396 40.9633 35.4396C39.5622 35.4396 38.1306 35.4396 36.7295 35.4396C35.5111 35.4396 34.2928 35.4396 33.1049 35.4396C33.044 35.4396 33.0135 35.4396 32.9526 35.4396L32.9221 35.3175ZM40.415 29.3344C39.9886 29.3344 39.5926 29.3344 39.1662 29.3344C39.1053 29.3344 39.0444 29.3345 38.9835 29.2734C38.9835 29.2124 39.0444 29.1513 39.0748 29.1208C39.9582 28.2661 40.811 27.3808 41.6943 26.5261C41.8466 26.3735 42.0294 26.2514 42.273 26.2819C42.4253 26.2819 42.5776 26.2819 42.6995 26.2819C43.3696 26.2819 44.0397 26.2819 44.7402 26.2819C44.8925 26.2819 44.923 26.3124 44.923 26.465C44.923 26.8008 44.923 27.1671 44.923 27.5029C44.923 28.0524 44.923 28.6324 44.923 29.1818C44.923 29.2734 44.862 29.3344 44.7707 29.3344C44.5879 29.3344 44.3747 29.3344 44.192 29.3344C43.7046 29.3344 43.2173 29.3344 42.7299 29.3344C42.3644 29.3344 41.9989 29.3344 41.6334 29.3344C41.2374 29.3344 40.811 29.3344 40.415 29.3344Z" fill="#20583B"/>
<path d="M1.82841 22.0371H12.3368C12.5723 22.0371 12.7632 21.8458 12.7632 21.6098V20.6329C12.7632 20.3969 12.5723 20.2056 12.3368 20.2056H1.82841C1.5929 20.2056 1.40199 20.3969 1.40199 20.6329V21.6098C1.40199 21.8458 1.5929 22.0371 1.82841 22.0371Z" fill="#20583B"/>
<path d="M12.214 22.9546C12.214 22.1304 12.214 21.3062 12.214 20.482C12.214 20.2073 12.214 20.2073 12.4882 20.2073C12.7928 20.2073 13.0974 20.2073 13.4019 20.2073C13.9197 20.2684 14.4376 20.3599 14.9554 20.482C15.991 20.6957 16.9961 21.062 17.9099 21.581C18.3668 21.8252 18.7932 22.1304 19.2501 22.3746C20.0115 22.802 20.5903 23.443 21.169 24.0535C21.3822 24.2977 21.6259 24.5114 21.8086 24.7556C22.0828 25.1219 22.3264 25.5188 22.6006 25.9156C23.0879 26.7092 23.4534 27.564 23.758 28.4187C23.8494 28.6934 23.9408 28.9376 24.0321 29.2124C24.093 29.5176 24.154 29.7923 24.2149 30.0976C24.2758 30.3418 24.3367 30.6165 24.3672 30.8607C24.3976 31.3491 24.4281 31.8375 24.4586 32.2954C24.4586 33.2112 24.4586 34.127 24.4586 35.0427C24.4586 35.9585 24.4586 36.9048 24.4586 37.8511C24.4586 38.6142 24.4586 39.3774 24.4586 40.1405C24.4586 41.4836 24.4586 42.7962 24.4586 44.1393C24.4586 44.2615 24.4586 44.2309 24.4586 44.3836C24.4586 44.3836 24.093 44.3836 23.8798 44.3836C22.7529 44.3836 21.6259 44.3836 20.4989 44.3836C19.0978 44.3836 17.6967 44.3836 16.2651 44.3836C14.9554 44.3836 13.6456 44.3836 12.3359 44.4141C12.0008 44.4141 11.6658 44.4141 11.3307 44.4141C10.9652 44.3836 10.5997 44.292 10.2342 44.2309C9.99054 44.1699 9.71641 44.1394 9.47274 44.0783C9.01586 43.9562 8.55897 43.8646 8.13255 43.6815C7.52337 43.4373 6.94465 43.1625 6.36592 42.8878C6.00042 42.7047 5.69583 42.4604 5.33032 42.2773C4.96481 42.0941 4.66022 41.8194 4.38609 41.5447C3.95967 41.1478 3.53324 40.751 3.10682 40.3237C2.58901 39.7742 2.19305 39.1332 1.82754 38.4921C1.37065 37.729 1.00515 36.9353 0.731016 36.0806C0.578721 35.5311 0.426426 34.9817 0.30459 34.4017C0.213213 34.0049 0.182754 33.6386 0.152295 33.2417C0.152295 32.9365 0.0913778 32.6617 0.0913778 32.3565C0.0913778 31.807 0.0913778 31.2576 0.0913778 30.7081C0.0913778 30.0976 0.0913778 29.4566 0.0913778 28.846C0.0913778 28.0218 0.0913778 27.1977 0.0913778 26.404C0.0913778 25.824 0.0913778 25.244 0.0913778 24.664C0.0913778 24.1756 0.0913783 23.6872 0.0609193 23.1988C0.0609193 22.283 0.0609193 21.3978 0.0609193 20.482C0.0609193 20.3599 0.030459 20.2684 0 20.1463C1.00515 20.1463 1.97983 20.1463 3.01544 20.1463V20.3905C3.01544 21.9473 3.01544 21.7946 3.01544 21.9778C3.01544 21.9778 3.0459 22.802 3.01544 22.9546C3.0459 23.0767 3.07636 23.1683 3.10682 23.1988C3.28957 23.382 3.47232 23.5346 3.65508 23.7483C3.83783 23.9314 4.02058 24.1756 4.20334 24.3588C4.62976 24.8167 5.08665 25.244 5.54353 25.7019C5.63491 25.7935 5.72629 25.8851 5.81767 25.9766C5.84812 26.0072 5.90904 26.0377 5.9395 26.0377C5.9395 26.0072 6.00042 25.9461 6.00042 25.8851C6.00042 25.6714 6.00042 25.4272 6.00042 25.2135C6.00042 24.5419 6.00042 23.8704 6.00042 23.1683C6.00042 22.7104 6.00042 22.4662 6.00042 21.9778C6.00042 21.4894 6.00042 20.7568 6.00042 20.2684C6.00042 20.1768 6.06134 20.1463 6.15271 20.1463C6.97511 20.1463 7.7975 20.1462 8.65035 20.1157C8.8331 20.1157 8.9854 20.1157 9.16815 20.1157C9.16815 20.1157 9.25953 20.1768 9.25953 20.2073C9.25953 21.062 9.25953 21.9167 9.25953 22.7715C9.25953 23.6262 9.25953 23.9619 9.25953 24.5419C9.25953 25.0609 9.25953 25.6103 9.25953 26.1293C9.25953 27.0756 9.25953 27.9913 9.25953 28.9376C9.25953 29.1513 9.3509 29.3344 9.5032 29.4871C10.3865 30.3418 11.2698 31.1965 12.1227 32.0512C12.1531 32.0818 12.214 32.1123 12.275 32.1428C12.275 32.0817 12.3054 32.0512 12.3054 31.9902C12.3054 31.1355 12.3054 30.3113 12.3054 29.4566C12.3054 29.0597 12.3054 28.6324 12.3054 28.2355C12.3054 27.625 12.3054 27.0145 12.3054 26.3735C12.3054 25.5188 12.3054 24.6946 12.3054 23.8398V23.3514M18.3363 38.2785V38.3395C14.1025 38.3395 9.86871 38.4005 5.60445 38.4005C5.66537 38.4616 5.66537 38.5227 5.72629 38.5837C5.87858 38.7363 6.06133 38.889 6.24409 39.0416C6.48776 39.2858 6.73143 39.53 7.00556 39.7131C7.76704 40.2626 8.61989 40.69 9.53366 40.9647C10.3256 41.2089 11.1175 41.3615 11.9399 41.3615C12.3663 41.3615 12.7623 41.3615 13.1887 41.3615H15.7777C16.6306 41.3615 17.4834 41.3615 18.3058 41.3615C19.2805 41.3615 20.2248 41.3615 21.1994 41.3615C21.4431 41.3615 21.4736 41.331 21.4736 41.0868C21.4736 40.8426 21.4736 40.5679 21.4736 40.3237C21.4736 39.5605 21.4736 38.7669 21.4736 37.9732C21.4736 37.0574 21.4736 36.1417 21.4736 35.2564C21.4736 34.188 21.4736 33.1196 21.4736 32.0512C21.4736 30.9828 21.2299 29.945 20.8644 28.9682C20.5598 28.205 20.1638 27.4724 19.6765 26.8008C19.4633 26.5261 19.2196 26.2819 18.9759 26.0377C18.6713 25.7324 18.3668 25.3966 18.0317 25.1219C17.7576 24.8777 17.453 24.6946 17.1179 24.5114C16.5697 24.1756 15.991 23.9009 15.3209 23.7177C15.3209 23.8093 15.3209 23.8704 15.3209 23.9619C15.3209 24.9998 15.3209 26.0377 15.3209 27.0756C15.3209 27.9303 15.3209 28.7545 15.3209 29.6092C15.3209 30.1586 15.3209 30.7386 15.3209 31.2881C15.3209 31.7765 15.3209 32.2344 15.3209 32.7228C15.3209 33.4554 15.3209 34.188 15.3209 34.9206C15.3209 35.1648 15.4122 35.348 15.5645 35.5006C16.4174 36.3553 17.2702 37.1795 18.1231 38.0342C18.2145 38.1258 18.3058 38.1869 18.4277 38.2479L18.3363 38.2785ZM15.1077 35.3175V35.2564C15.0467 35.1648 14.9554 35.0733 14.864 34.9817C14.072 34.188 13.3106 33.3944 12.5186 32.6312C12.3663 32.4786 12.214 32.387 11.9704 32.387C11.0566 32.387 10.1733 32.4175 9.25953 32.4481C8.77218 32.4481 8.28484 32.4481 7.7975 32.4481C7.31015 32.4481 6.51822 32.4481 5.87858 32.4481H4.17288C4.0815 32.4481 3.95967 32.4786 3.86829 32.4786C3.68554 32.4786 3.53324 32.4481 3.35049 32.4481C3.10681 32.4481 3.10682 32.4481 3.13727 32.6923C3.16773 33.547 3.35049 34.4017 3.59416 35.2564C3.62462 35.3785 3.68554 35.4396 3.83783 35.4396C4.9039 35.4396 6.00042 35.4396 7.06648 35.4396C8.4676 35.4396 9.89917 35.4396 11.3003 35.4396C12.5186 35.4396 13.737 35.4396 14.9249 35.4396C14.9858 35.4396 15.0163 35.4396 15.0772 35.4396L15.1077 35.3175ZM7.58428 29.3344C8.01071 29.3344 8.40668 29.3344 8.8331 29.3344C8.89402 29.3344 8.95494 29.3345 9.01586 29.2734C9.01586 29.2124 8.95494 29.1513 8.92448 29.1208C8.04117 28.2661 7.18832 27.3808 6.30501 26.5261C6.15271 26.3735 5.96996 26.2514 5.72629 26.2819C5.57399 26.2819 5.4217 26.2819 5.29986 26.2819C4.62976 26.2819 3.95967 26.2819 3.25911 26.2819C3.10682 26.2819 3.07636 26.3124 3.07636 26.465C3.07636 26.8008 3.07636 27.1671 3.07636 27.5029C3.07636 28.0524 3.07636 28.6324 3.07636 29.1818C3.07636 29.2734 3.13728 29.3344 3.22865 29.3344C3.41141 29.3344 3.62462 29.3344 3.80737 29.3344C4.29471 29.3344 4.78206 29.3344 5.2694 29.3344C5.63491 29.3344 6.00042 29.3344 6.36592 29.3344C6.76189 29.3344 7.18832 29.3344 7.58428 29.3344Z" fill="#20583B"/>
<path d="M12.9536 17.2493C13.3496 9.86208 20.2333 5.13061 26.782 6.99267C31.5031 8.3358 34.7013 12.4568 34.8841 17.6156C34.9145 18.6229 33.8789 19.4471 32.6301 19.4166C32.1428 19.4166 31.625 19.3555 31.1376 19.2334C26.2337 18.104 21.3298 18.1345 16.4259 19.264C15.6949 19.4471 14.9639 19.5692 14.2329 19.2029C13.1364 18.684 12.9536 18.4398 12.9536 17.2187V17.2493Z" fill="#DDAE07"/>
<path d="M24.7256 4.02926C24.7865 3.1135 24.8474 2.25878 24.9083 1.40406C24.9693 0.51882 25.5175 0.518814 26.0962 0.54934C26.7359 0.579865 27.0709 0.854597 26.9186 1.64826C26.7359 2.62508 26.614 3.63243 26.4618 4.60925C26.3704 5.25028 26.1876 5.79975 25.4261 5.70817C24.6951 5.58607 24.756 4.97555 24.7256 4.39556V3.99874V4.02926Z" fill="#DDAE07"/>
<path d="M19.6465 5.64711C19.7074 6.22709 19.4028 6.44077 19.0373 6.62393C18.6718 6.80708 18.3672 6.65445 18.1844 6.25762C17.7276 5.18922 17.2707 4.12082 16.8442 3.0219C16.4787 2.07561 17.2707 2.04509 17.6971 1.73983C18.154 1.43458 18.4281 1.64826 18.6109 2.19772C19.0373 3.32717 19.3114 4.51766 19.5856 5.64711H19.6465Z" fill="#DDAE07"/>
<path d="M31.6227 8.02819C30.9526 8.02819 30.4348 7.23453 30.7698 6.62402C31.3181 5.58615 31.9273 4.60932 32.506 3.60198C32.9324 2.86937 33.3893 3.20515 33.8462 3.57146C34.3031 3.93777 34.699 4.27355 34.1812 4.94511C33.5111 5.83035 32.8715 6.74612 32.2014 7.63136C32.0491 7.84504 31.8664 7.99767 31.6227 7.99767V8.02819Z" fill="#DDAE07"/>
<path d="M37.6209 7.54221C37.6209 7.90851 37.4381 8.09166 37.2554 8.24429C36.3416 8.88533 35.4278 9.49584 34.5141 10.1674C33.8744 10.6253 33.4785 10.32 33.052 9.89267C32.5952 9.40426 32.9911 9.099 33.3262 8.82427C34.1181 8.15271 34.8796 7.48115 35.6715 6.80958C35.9456 6.59591 36.1893 6.26012 36.5853 6.50433C37.0726 6.77906 37.4686 7.17589 37.6209 7.60325V7.54221Z" fill="#DDAE07"/>
<path d="M22.7182 4.58008C22.84 5.46532 22.444 5.70953 21.9567 5.83163C21.4084 5.95373 21.2257 5.58742 21.1343 5.09902C20.9211 3.93904 20.7079 2.77906 20.5556 1.61909C20.4337 0.794901 21.0429 0.733854 21.4998 0.611751C22.0176 0.489649 22.444 0.611751 22.4745 1.37489C22.5354 2.53486 22.7486 4.06114 22.7486 4.58008H22.7182Z" fill="#DDAE07"/>
<path d="M13.3119 12.338C13.3119 12.9179 12.6723 13.2843 11.9717 13.1011C10.8752 12.7653 9.77865 12.399 8.68213 12.0327C7.7379 11.6969 8.52984 10.8117 8.52984 10.8117C8.62121 10.6896 9.01718 10.0791 9.68728 10.3843C10.6924 10.8422 11.6976 11.2696 12.7027 11.6969C13.0378 11.8496 13.3424 11.9717 13.3119 12.338Z" fill="#DDAE07"/>
<path d="M14.3979 3.72363C14.7634 3.72363 14.9462 3.96783 15.1289 4.21203C15.7381 5.09728 16.3168 6.01305 16.8956 6.92882C17.1088 7.2646 17.2611 7.60037 16.8346 7.8751C16.4387 8.14983 16.0123 8.4551 15.5554 7.99721C14.733 7.08145 13.941 6.16568 13.1796 5.21938C12.8445 4.82255 13.7278 3.78468 14.3979 3.72363Z" fill="#DDAE07"/>
<path d="M39.4735 11.3241C39.5039 11.6904 39.2298 11.843 38.9252 11.9651C37.8896 12.3925 36.8235 12.8199 35.7879 13.2472C35.2701 13.4609 34.9046 13.3693 34.661 12.8809C34.4173 12.423 34.3259 12.0262 34.9655 11.7209C35.8793 11.263 36.7626 10.7441 37.6459 10.2557C38.6511 9.73677 39.5039 10.2252 39.4735 11.3241Z" fill="#DDAE07"/>
<path d="M28.6839 6.5039C28.227 6.32074 27.6178 6.19864 27.8615 5.3134C28.1661 4.21448 28.4707 3.11556 28.7753 2.01664C28.9276 1.43666 29.2322 1.10087 29.75 1.46718C30.1764 1.77243 31.0292 1.77244 30.6637 2.74926C30.2373 3.8787 29.7804 4.97762 29.3235 6.07654C29.2017 6.35127 29.0494 6.56495 28.6839 6.5039Z" fill="#DDAE07"/>
<path d="M10.6395 16.1178C9.87806 16.0262 8.93383 15.9346 8.02006 15.843C7.25859 15.7515 7.04537 15.3546 7.19767 14.7136C7.34996 14.1031 7.71547 13.7673 8.44649 13.9199C9.45163 14.1336 10.4568 14.3778 11.4315 14.561C12.0102 14.6831 12.3148 14.8968 12.2539 15.4462C12.1625 15.9957 11.7665 16.1483 11.1878 16.1178C11.0355 16.1178 10.9137 16.1178 10.6091 16.1178H10.6395Z" fill="#DDAE07"/>
<path d="M37.7992 18.9279C38.5607 18.8668 39.5049 18.7753 40.4187 18.6531C41.1801 18.5616 41.3933 18.1953 41.241 17.6153C41.0888 17.0353 40.7232 16.7606 39.9922 16.9132C38.9871 17.0963 37.9819 17.3405 36.9768 17.5237C36.3981 17.6153 36.0935 17.829 36.1544 18.3174C36.2458 18.8058 36.6417 18.9584 37.2205 18.9279C37.3728 18.9279 37.4946 18.9279 37.7992 18.9279Z" fill="#DDAE07"/>
<path d="M10.0703 19.0815C9.27836 19.0815 8.36459 19.0509 7.45082 19.0204C6.68935 18.9899 6.44567 18.6236 6.53705 18.0436C6.62843 17.4636 6.96348 17.1584 7.72495 17.2499C8.7301 17.372 9.73524 17.5247 10.7708 17.6162C11.3496 17.6773 11.6846 17.8604 11.6542 18.3489C11.6237 18.8678 11.1973 19.0204 10.649 19.0509C10.4967 19.0509 10.3749 19.0509 10.0703 19.0815Z" fill="#DDAE07"/>
<path d="M37.4029 15.9039C38.1644 15.8123 39.1086 15.7208 40.0224 15.6292C40.7839 15.5376 40.9971 15.1408 40.8448 14.4997C40.6925 13.8892 40.327 13.5534 39.596 13.7061C38.5908 13.9197 37.5857 14.164 36.5805 14.3471C36.0018 14.4692 35.6972 14.6829 35.7582 15.2323C35.8495 15.7818 36.2455 15.9344 36.8242 15.9039C36.9765 15.9039 37.0983 15.9039 37.4029 15.9039Z" fill="#DDAE07"/>
<path d="M14.9606 9.49131C14.9606 10.0408 14.2905 10.5597 13.8031 10.346C12.5543 9.79657 11.4578 8.97237 10.3917 8.17871C9.84348 7.75135 10.7572 6.98821 10.7572 6.98821C10.7572 6.98821 11.1532 6.46928 11.7015 6.65243C12.8285 7.4461 13.8945 8.30081 14.8387 9.27763C14.8997 9.33868 14.8997 9.46079 14.9301 9.52184L14.9606 9.49131Z" fill="#DDAE07"/>
<path d="M46.1743 20.2021H35.6659C35.4304 20.2021 35.2395 20.3935 35.2395 20.6295V21.6063C35.2395 21.8423 35.4304 22.0337 35.6659 22.0337H46.1743C46.4098 22.0337 46.6007 21.8423 46.6007 21.6063V20.6295C46.6007 20.3935 46.4098 20.2021 46.1743 20.2021Z" fill="#20583B"/>
<path d="M35.7806 22.9531C35.7806 22.129 35.7806 21.3048 35.7806 20.4806C35.7806 20.2058 35.7806 20.2058 35.5065 20.2058C35.2019 20.2058 34.8973 20.2058 34.5927 20.2058C34.0749 20.2669 33.5571 20.3585 33.0393 20.4806C32.0037 20.6942 30.9986 21.0606 30.0848 21.5795C29.6279 21.8237 29.2015 22.1289 28.7446 22.3731C27.9831 22.8005 27.4044 23.4415 26.8257 24.0521C26.6125 24.2963 26.3688 24.5099 26.1861 24.7541C25.9119 25.1205 25.6683 25.5173 25.3941 25.9141C24.9068 26.7078 24.5413 27.5625 24.2367 28.4172C24.1453 28.6919 24.0539 28.9362 23.9626 29.2109C23.9016 29.5161 23.8407 29.7909 23.7798 30.0961C23.7189 30.3403 23.658 30.6151 23.6275 30.8593C23.5971 31.3477 23.5666 31.8361 23.5361 32.294C23.5361 33.2097 23.5361 34.1255 23.5361 35.0413C23.5361 35.957 23.5361 36.9033 23.5361 37.8496C23.5361 38.6128 23.5361 39.3759 23.5361 40.139C23.5361 41.4822 23.5361 42.7948 23.5361 44.1379C23.5361 44.26 23.5361 44.2295 23.5361 44.3821C23.5361 44.3821 23.9016 44.3821 24.1149 44.3821C25.2418 44.3821 26.3688 44.3821 27.4958 44.3821C28.8969 44.3821 30.298 44.3821 31.7296 44.3821C33.0393 44.3821 34.3491 44.3821 35.6588 44.4126C35.9939 44.4126 36.3289 44.4126 36.6639 44.4126C37.0295 44.3821 37.395 44.2905 37.7605 44.2295C38.0041 44.1684 38.2783 44.1379 38.5219 44.0768C38.9788 43.9547 39.4357 43.8632 39.8621 43.68C40.4713 43.4358 41.05 43.1611 41.6288 42.8863C41.9943 42.7032 42.2989 42.459 42.6644 42.2758C43.0299 42.0927 43.3345 41.8179 43.6086 41.5432C44.035 41.1464 44.4614 40.7495 44.8879 40.3222C45.4057 39.7727 45.8016 39.1317 46.1671 38.4907C46.624 37.7275 46.9895 36.9339 47.2637 36.0791C47.416 35.5297 47.5683 34.9802 47.6901 34.4002C47.7815 34.0034 47.8119 33.6371 47.8424 33.2403C47.8424 32.935 47.9033 32.6603 47.9033 32.355C47.9033 31.8056 47.9033 31.2561 47.9033 30.7066C47.9033 30.0961 47.9033 29.4551 47.9033 28.8446C47.9033 28.0204 47.9033 27.1962 47.9033 26.4025C47.9033 25.8225 47.9033 25.2426 47.9033 24.6626C47.9033 24.1742 47.9033 23.6858 47.9338 23.1973C47.9338 22.2816 47.9338 21.3963 47.9338 20.4806C47.9338 20.3585 47.9642 20.2669 47.9947 20.1448C46.9895 20.1448 46.0149 20.1448 44.9792 20.1448V20.389C44.9792 21.9458 44.9792 21.7932 44.9792 21.9763C44.9792 21.9763 44.9488 22.8005 44.9792 22.9531C44.9488 23.0752 44.9183 23.1668 44.8879 23.1973C44.7051 23.3805 44.5224 23.5331 44.3396 23.7468C44.1569 23.93 43.9741 24.1742 43.7913 24.3573C43.3649 24.8152 42.908 25.2426 42.4512 25.7004C42.3598 25.792 42.2684 25.8836 42.177 25.9752C42.1466 26.0057 42.0856 26.0362 42.0552 26.0362C42.0552 26.0057 41.9943 25.9446 41.9943 25.8836C41.9943 25.6699 41.9943 25.4257 41.9943 25.212C41.9943 24.5405 41.9943 23.8689 41.9943 23.1668C41.9943 22.7089 41.9943 22.4647 41.9943 21.9763C41.9943 21.4879 41.9943 20.7553 41.9943 20.2669C41.9943 20.1753 41.9334 20.1448 41.842 20.1448C41.0196 20.1448 40.1972 20.1448 39.3443 20.1143C39.1616 20.1143 39.0093 20.1143 38.8265 20.1143C38.8265 20.1143 38.7352 20.1753 38.7352 20.2058C38.7352 21.0606 38.7352 21.9153 38.7352 22.77C38.7352 23.6247 38.7352 23.9605 38.7352 24.5405C38.7352 25.0594 38.7352 25.6089 38.7352 26.1278C38.7352 27.0741 38.7352 27.9899 38.7352 28.9361C38.7352 29.1498 38.6438 29.333 38.4915 29.4856C37.6082 30.3403 36.7249 31.195 35.872 32.0498C35.8416 32.0803 35.7806 32.1108 35.7197 32.1413C35.7197 32.0803 35.6893 32.0498 35.6893 31.9887C35.6893 31.134 35.6893 30.3098 35.6893 29.4551C35.6893 29.0583 35.6893 28.6309 35.6893 28.2341C35.6893 27.6236 35.6893 27.013 35.6893 26.372C35.6893 25.5173 35.6893 24.6931 35.6893 23.8384V23.35M29.6888 38.277V38.338C33.9226 38.338 38.1564 38.3991 42.4207 38.3991C42.3598 38.4601 42.3598 38.5212 42.2989 38.5822C42.1466 38.7349 41.9638 38.8875 41.7811 39.0401C41.5374 39.2843 41.2937 39.5285 41.0196 39.7117C40.2581 40.2611 39.4053 40.6885 38.4915 40.9632C37.6996 41.2074 36.9076 41.3601 36.0852 41.3601C35.6588 41.3601 35.2628 41.3601 34.8364 41.3601H32.2474C31.3945 41.3601 30.5417 41.3601 29.7193 41.3601C28.7446 41.3601 27.8004 41.3601 26.8257 41.3601C26.582 41.3601 26.5516 41.3295 26.5516 41.0853C26.5516 40.8411 26.5516 40.5664 26.5516 40.3222C26.5516 39.559 26.5516 38.7654 26.5516 37.9717C26.5516 37.056 26.5516 36.1402 26.5516 35.2549C26.5516 34.1866 26.5516 33.1182 26.5516 32.0498C26.5516 30.9814 26.7952 29.9435 27.1607 28.9667C27.4653 28.2035 27.8613 27.4709 28.3487 26.7994C28.5619 26.5246 28.8055 26.2804 29.0492 26.0362C29.3538 25.731 29.6584 25.3952 29.9934 25.1205C30.2676 24.8762 30.5722 24.6931 30.9072 24.5099C31.4555 24.1742 32.0342 23.8994 32.7043 23.7163C32.7043 23.8079 32.7043 23.8689 32.7043 23.9605C32.7043 24.9984 32.7043 26.0362 32.7043 27.0741C32.7043 27.9288 32.7043 28.753 32.7043 29.6077C32.7043 30.1572 32.7043 30.7372 32.7043 31.2866C32.7043 31.775 32.7043 32.2329 32.7043 32.7213C32.7043 33.4539 32.7043 34.1866 32.7043 34.9192C32.7043 35.1634 32.6129 35.3465 32.4606 35.4991C31.6078 36.3539 30.7549 37.1781 29.9021 38.0328C29.8107 38.1243 29.7193 38.1854 29.5975 38.2465L29.6888 38.277ZM32.9175 35.316V35.2549C32.9784 35.1634 33.0698 35.0718 33.1612 34.9802C33.9531 34.1865 34.7146 33.3929 35.5065 32.6298C35.6588 32.4771 35.8111 32.3855 36.0548 32.3855C36.9685 32.3855 37.8518 32.4161 38.7656 32.4466C39.253 32.4466 39.7403 32.4466 40.2276 32.4466C40.715 32.4466 41.5069 32.4466 42.1466 32.4466H43.8523C43.9436 32.4466 44.0655 32.4771 44.1569 32.4771C44.3396 32.4771 44.4919 32.4466 44.6747 32.4466C44.9183 32.4466 44.9183 32.4466 44.8879 32.6908C44.8574 33.5455 44.6747 34.4002 44.431 35.2549C44.4005 35.377 44.3396 35.4381 44.1873 35.4381C43.1213 35.4381 42.0247 35.4381 40.9587 35.4381C39.5576 35.4381 38.126 35.4381 36.7249 35.4381C35.5065 35.4381 34.2881 35.4381 33.1002 35.4381C33.0393 35.4381 33.0089 35.4381 32.948 35.4381L32.9175 35.316ZM40.4104 29.333C39.984 29.333 39.588 29.333 39.1616 29.333C39.1007 29.333 39.0397 29.333 38.9788 29.2719C38.9788 29.2109 39.0397 29.1498 39.0702 29.1193C39.9535 28.2646 40.8064 27.3793 41.6897 26.5246C41.842 26.372 42.0247 26.2499 42.2684 26.2804C42.4207 26.2804 42.573 26.2804 42.6948 26.2804C43.3649 26.2804 44.035 26.2804 44.7356 26.2804C44.8879 26.2804 44.9183 26.311 44.9183 26.4636C44.9183 26.7994 44.9183 27.1657 44.9183 27.5015C44.9183 28.0509 44.9183 28.6309 44.9183 29.1803C44.9183 29.2719 44.8574 29.333 44.766 29.333C44.5833 29.333 44.3701 29.333 44.1873 29.333C43.7 29.333 43.2126 29.333 42.7253 29.333C42.3598 29.333 41.9943 29.333 41.6288 29.333C41.2328 29.333 40.8064 29.333 40.4104 29.333Z" fill="#20583B"/>
<path d="M1.82841 22.0396H12.3368C12.5723 22.0396 12.7632 21.8482 12.7632 21.6122V20.6354C12.7632 20.3994 12.5723 20.208 12.3368 20.208H1.82841C1.5929 20.208 1.40199 20.3994 1.40199 20.6354V21.6122C1.40199 21.8482 1.5929 22.0396 1.82841 22.0396Z" fill="#20583B"/>
<path d="M12.214 22.9531C12.214 22.129 12.214 21.3048 12.214 20.4806C12.214 20.2058 12.214 20.2058 12.4882 20.2058C12.7928 20.2058 13.0974 20.2058 13.4019 20.2058C13.9197 20.2669 14.4376 20.3585 14.9554 20.4806C15.991 20.6942 16.9961 21.0606 17.9099 21.5795C18.3668 21.8237 18.7932 22.1289 19.2501 22.3731C20.0115 22.8005 20.5903 23.4415 21.169 24.0521C21.3822 24.2963 21.6259 24.5099 21.8086 24.7541C22.0828 25.1205 22.3264 25.5173 22.6006 25.9141C23.0879 26.7078 23.4534 27.5625 23.758 28.4172C23.8494 28.6919 23.9408 28.9362 24.0321 29.2109C24.093 29.5161 24.154 29.7909 24.2149 30.0961C24.2758 30.3403 24.3367 30.6151 24.3672 30.8593C24.3976 31.3477 24.4281 31.8361 24.4586 32.294C24.4586 33.2097 24.4586 34.1255 24.4586 35.0413C24.4586 35.957 24.4586 36.9033 24.4586 37.8496C24.4586 38.6128 24.4586 39.3759 24.4586 40.139C24.4586 41.4822 24.4586 42.7948 24.4586 44.1379C24.4586 44.26 24.4586 44.2295 24.4586 44.3821C24.4586 44.3821 24.093 44.3821 23.8798 44.3821C22.7529 44.3821 21.6259 44.3821 20.4989 44.3821C19.0978 44.3821 17.6967 44.3821 16.2651 44.3821C14.9554 44.3821 13.6456 44.3821 12.3359 44.4126C12.0008 44.4126 11.6658 44.4126 11.3307 44.4126C10.9652 44.3821 10.5997 44.2905 10.2342 44.2295C9.99054 44.1684 9.71641 44.1379 9.47274 44.0768C9.01586 43.9547 8.55897 43.8632 8.13255 43.68C7.52337 43.4358 6.94465 43.1611 6.36592 42.8863C6.00042 42.7032 5.69583 42.459 5.33032 42.2758C4.96481 42.0927 4.66022 41.8179 4.38609 41.5432C3.95967 41.1464 3.53324 40.7495 3.10682 40.3222C2.58901 39.7727 2.19305 39.1317 1.82754 38.4907C1.37065 37.7275 1.00515 36.9339 0.731016 36.0791C0.578721 35.5297 0.426426 34.9802 0.30459 34.4002C0.213213 34.0034 0.182754 33.6371 0.152295 33.2403C0.152295 32.935 0.0913778 32.6603 0.0913778 32.355C0.0913778 31.8056 0.0913778 31.2561 0.0913778 30.7066C0.0913778 30.0961 0.0913778 29.4551 0.0913778 28.8446C0.0913778 28.0204 0.0913778 27.1962 0.0913778 26.4025C0.0913778 25.8225 0.0913778 25.2426 0.0913778 24.6626C0.0913778 24.1742 0.0913783 23.6858 0.0609193 23.1973C0.0609193 22.2816 0.0609193 21.3963 0.0609193 20.4806C0.0609193 20.3585 0.030459 20.2669 0 20.1448C1.00515 20.1448 1.97983 20.1448 3.01544 20.1448V20.389C3.01544 21.9458 3.01544 21.7932 3.01544 21.9763C3.01544 21.9763 3.0459 22.8005 3.01544 22.9531C3.0459 23.0752 3.07636 23.1668 3.10682 23.1973C3.28957 23.3805 3.47232 23.5331 3.65508 23.7468C3.83783 23.93 4.02058 24.1742 4.20334 24.3573C4.62976 24.8152 5.08665 25.2426 5.54353 25.7004C5.63491 25.792 5.72629 25.8836 5.81767 25.9752C5.84812 26.0057 5.90904 26.0362 5.9395 26.0362C5.9395 26.0057 6.00042 25.9446 6.00042 25.8836C6.00042 25.6699 6.00042 25.4257 6.00042 25.212C6.00042 24.5405 6.00042 23.8689 6.00042 23.1668C6.00042 22.7089 6.00042 22.4647 6.00042 21.9763C6.00042 21.4879 6.00042 20.7553 6.00042 20.2669C6.00042 20.1753 6.06134 20.1448 6.15271 20.1448C6.97511 20.1448 7.7975 20.1448 8.65035 20.1143C8.8331 20.1143 8.9854 20.1143 9.16815 20.1143C9.16815 20.1143 9.25953 20.1753 9.25953 20.2058C9.25953 21.0606 9.25953 21.9153 9.25953 22.77C9.25953 23.6247 9.25953 23.9605 9.25953 24.5405C9.25953 25.0594 9.25953 25.6089 9.25953 26.1278C9.25953 27.0741 9.25953 27.9899 9.25953 28.9361C9.25953 29.1498 9.3509 29.333 9.5032 29.4856C10.3865 30.3403 11.2698 31.195 12.1227 32.0498C12.1531 32.0803 12.214 32.1108 12.275 32.1413C12.275 32.0803 12.3054 32.0498 12.3054 31.9887C12.3054 31.134 12.3054 30.3098 12.3054 29.4551C12.3054 29.0583 12.3054 28.6309 12.3054 28.2341C12.3054 27.6236 12.3054 27.013 12.3054 26.372C12.3054 25.5173 12.3054 24.6931 12.3054 23.8384V23.35M18.3363 38.277V38.338C14.1025 38.338 9.86871 38.3991 5.60445 38.3991C5.66537 38.4601 5.66537 38.5212 5.72629 38.5822C5.87858 38.7349 6.06133 38.8875 6.24409 39.0401C6.48776 39.2843 6.73143 39.5285 7.00556 39.7117C7.76704 40.2611 8.61989 40.6885 9.53366 40.9632C10.3256 41.2074 11.1175 41.3601 11.9399 41.3601C12.3663 41.3601 12.7623 41.3601 13.1887 41.3601H15.7777C16.6306 41.3601 17.4834 41.3601 18.3058 41.3601C19.2805 41.3601 20.2248 41.3601 21.1994 41.3601C21.4431 41.3601 21.4736 41.3295 21.4736 41.0853C21.4736 40.8411 21.4736 40.5664 21.4736 40.3222C21.4736 39.559 21.4736 38.7654 21.4736 37.9717C21.4736 37.056 21.4736 36.1402 21.4736 35.2549C21.4736 34.1866 21.4736 33.1182 21.4736 32.0498C21.4736 30.9814 21.2299 29.9435 20.8644 28.9667C20.5598 28.2035 20.1638 27.4709 19.6765 26.7994C19.4633 26.5246 19.2196 26.2804 18.9759 26.0362C18.6713 25.731 18.3668 25.3952 18.0317 25.1205C17.7576 24.8762 17.453 24.6931 17.1179 24.5099C16.5697 24.1742 15.991 23.8994 15.3209 23.7163C15.3209 23.8079 15.3209 23.8689 15.3209 23.9605C15.3209 24.9984 15.3209 26.0362 15.3209 27.0741C15.3209 27.9288 15.3209 28.753 15.3209 29.6077C15.3209 30.1572 15.3209 30.7372 15.3209 31.2866C15.3209 31.775 15.3209 32.2329 15.3209 32.7213C15.3209 33.4539 15.3209 34.1866 15.3209 34.9192C15.3209 35.1634 15.4122 35.3465 15.5645 35.4991C16.4174 36.3539 17.2702 37.1781 18.1231 38.0328C18.2145 38.1243 18.3058 38.1854 18.4277 38.2465L18.3363 38.277ZM15.1077 35.316V35.2549C15.0467 35.1634 14.9554 35.0718 14.864 34.9802C14.072 34.1865 13.3106 33.3929 12.5186 32.6298C12.3663 32.4771 12.214 32.3855 11.9704 32.3855C11.0566 32.3855 10.1733 32.4161 9.25953 32.4466C8.77218 32.4466 8.28484 32.4466 7.7975 32.4466C7.31015 32.4466 6.51822 32.4466 5.87858 32.4466H4.17288C4.0815 32.4466 3.95967 32.4771 3.86829 32.4771C3.68554 32.4771 3.53324 32.4466 3.35049 32.4466C3.10681 32.4466 3.10682 32.4466 3.13727 32.6908C3.16773 33.5455 3.35049 34.4002 3.59416 35.2549C3.62462 35.377 3.68554 35.4381 3.83783 35.4381C4.9039 35.4381 6.00042 35.4381 7.06648 35.4381C8.4676 35.4381 9.89917 35.4381 11.3003 35.4381C12.5186 35.4381 13.737 35.4381 14.9249 35.4381C14.9858 35.4381 15.0163 35.4381 15.0772 35.4381L15.1077 35.316ZM7.58428 29.333C8.01071 29.333 8.40668 29.333 8.8331 29.333C8.89402 29.333 8.95494 29.333 9.01586 29.2719C9.01586 29.2109 8.95494 29.1498 8.92448 29.1193C8.04117 28.2646 7.18832 27.3793 6.30501 26.5246C6.15271 26.372 5.96996 26.2499 5.72629 26.2804C5.57399 26.2804 5.4217 26.2804 5.29986 26.2804C4.62976 26.2804 3.95967 26.2804 3.25911 26.2804C3.10682 26.2804 3.07636 26.311 3.07636 26.4636C3.07636 26.7994 3.07636 27.1657 3.07636 27.5015C3.07636 28.0509 3.07636 28.6309 3.07636 29.1803C3.07636 29.2719 3.13728 29.333 3.22865 29.333C3.41141 29.333 3.62462 29.333 3.80737 29.333C4.29471 29.333 4.78206 29.333 5.2694 29.333C5.63491 29.333 6.00042 29.333 6.36592 29.333C6.76189 29.333 7.18832 29.333 7.58428 29.333Z" fill="#20583B"/>
<path d="M12.9536 17.2478C13.3496 9.86062 20.2333 5.12915 26.782 6.99121C31.5031 8.33433 34.7013 12.4553 34.8841 17.6141C34.9145 18.6215 33.8789 19.4456 32.6301 19.4151C32.1428 19.4151 31.625 19.3541 31.1376 19.232C26.2337 18.1025 21.3298 18.133 16.4259 19.2625C15.6949 19.4456 14.9639 19.5677 14.2329 19.2014C13.1364 18.6825 12.9536 18.4383 12.9536 17.2173V17.2478Z" fill="#DDAE07"/>
<path d="M24.7256 4.0278C24.7865 3.11203 24.8474 2.25731 24.9083 1.4026C24.9693 0.517355 25.5175 0.517349 26.0962 0.547875C26.7359 0.5784 27.0709 0.853133 26.9186 1.6468C26.7359 2.62362 26.614 3.63096 26.4618 4.60778C26.3704 5.24882 26.1876 5.79828 25.4261 5.70671C24.6951 5.5846 24.756 4.97409 24.7256 4.3941V3.99727V4.0278Z" fill="#DDAE07"/>
<path d="M19.6465 5.64564C19.7074 6.22563 19.4028 6.43931 19.0373 6.62246C18.6718 6.80562 18.3672 6.65299 18.1844 6.25615C17.7276 5.18776 17.2707 4.11936 16.8442 3.02044C16.4787 2.07415 17.2707 2.04363 17.6971 1.73837C18.154 1.43311 18.4281 1.64679 18.6109 2.19625C19.0373 3.3257 19.3114 4.51619 19.5856 5.64564H19.6465Z" fill="#DDAE07"/>
<path d="M31.6227 8.02672C30.9526 8.02672 30.4348 7.23307 30.7698 6.62255C31.3181 5.58468 31.9273 4.60786 32.506 3.60051C32.9324 2.8679 33.3893 3.20369 33.8462 3.57C34.3031 3.9363 34.699 4.27208 34.1812 4.94365C33.5111 5.82889 32.8715 6.74465 32.2014 7.62989C32.0491 7.84357 31.8664 7.99621 31.6227 7.99621V8.02672Z" fill="#DDAE07"/>
<path d="M37.6209 7.54074C37.6209 7.90705 37.4381 8.0902 37.2554 8.24283C36.3416 8.88386 35.4278 9.49437 34.5141 10.1659C33.8744 10.6238 33.4785 10.3186 33.052 9.89121C32.5952 9.4028 32.9911 9.09754 33.3262 8.82281C34.1181 8.15125 34.8796 7.47968 35.6715 6.80812C35.9456 6.59444 36.1893 6.25866 36.5853 6.50286C37.0726 6.77759 37.4686 7.17443 37.6209 7.60179V7.54074Z" fill="#DDAE07"/>
<path d="M22.7182 4.57861C22.84 5.46385 22.444 5.70806 21.9567 5.83016C21.4084 5.95226 21.2257 5.58596 21.1343 5.09755C20.9211 3.93758 20.7079 2.7776 20.5556 1.61763C20.4337 0.793436 21.0429 0.732389 21.4998 0.610287C22.0176 0.488184 22.444 0.610287 22.4745 1.37343C22.5354 2.5334 22.7486 4.05968 22.7486 4.57861H22.7182Z" fill="#DDAE07"/>
<path d="M13.3119 12.3365C13.3119 12.9165 12.6723 13.2828 11.9717 13.0996C10.8752 12.7639 9.77865 12.3975 8.68213 12.0312C7.7379 11.6955 8.52984 10.8102 8.52984 10.8102C8.62121 10.6881 9.01718 10.0776 9.68728 10.3829C10.6924 10.8407 11.6976 11.2681 12.7027 11.6955C13.0378 11.8481 13.3424 11.9702 13.3119 12.3365Z" fill="#DDAE07"/>
<path d="M14.3979 3.72217C14.7634 3.72217 14.9462 3.96637 15.1289 4.21057C15.7381 5.09581 16.3168 6.01159 16.8956 6.92735C17.1088 7.26314 17.2611 7.59891 16.8346 7.87364C16.4387 8.14837 16.0123 8.45363 15.5554 7.99575C14.733 7.07998 13.941 6.16421 13.1796 5.21792C12.8445 4.82109 13.7278 3.78322 14.3979 3.72217Z" fill="#DDAE07"/>
<path d="M39.4735 11.3226C39.5039 11.6889 39.2298 11.8416 38.9252 11.9637C37.8896 12.391 36.8235 12.8184 35.7879 13.2457C35.2701 13.4594 34.9046 13.3679 34.661 12.8794C34.4173 12.4216 34.3259 12.0247 34.9655 11.7195C35.8793 11.2616 36.7626 10.7427 37.6459 10.2542C38.6511 9.73531 39.5039 10.2237 39.4735 11.3226Z" fill="#DDAE07"/>
<path d="M28.6839 6.50243C28.227 6.31928 27.6178 6.19718 27.8615 5.31194C28.1661 4.21302 28.4707 3.1141 28.7753 2.01518C28.9276 1.43519 29.2322 1.09941 29.75 1.46571C30.1764 1.77097 31.0292 1.77097 30.6637 2.74779C30.2373 3.87724 29.7804 4.97616 29.3235 6.07508C29.2017 6.34981 29.0494 6.56348 28.6839 6.50243Z" fill="#DDAE07"/>
<path d="M10.6395 16.1163C9.87806 16.0247 8.93383 15.9332 8.02006 15.8416C7.25859 15.75 7.04537 15.3532 7.19767 14.7121C7.34996 14.1016 7.71547 13.7658 8.44649 13.9185C9.45163 14.1321 10.4568 14.3764 11.4315 14.5595C12.0102 14.6816 12.3148 14.8953 12.2539 15.4447C12.1625 15.9942 11.7665 16.1468 11.1878 16.1163C11.0355 16.1163 10.9137 16.1163 10.6091 16.1163H10.6395Z" fill="#DDAE07"/>
<path d="M37.7992 18.9264C38.5607 18.8654 39.5049 18.7738 40.4187 18.6517C41.1801 18.5601 41.3933 18.1938 41.241 17.6138C41.0888 17.0338 40.7232 16.7591 39.9922 16.9117C38.9871 17.0949 37.9819 17.3391 36.9768 17.5222C36.3981 17.6138 36.0935 17.8275 36.1544 18.3159C36.2458 18.8043 36.6417 18.9569 37.2205 18.9264C37.3728 18.9264 37.4946 18.9264 37.7992 18.9264Z" fill="#DDAE07"/>
<path d="M10.0779 19.08C9.28593 19.08 8.37216 19.0495 7.45839 19.0189C6.69691 18.9884 6.45324 18.6221 6.54462 18.0421C6.636 17.4621 6.97104 17.1569 7.73252 17.2485C8.73766 17.3706 9.74281 17.5232 10.7784 17.6148C11.3571 17.6758 11.6922 17.859 11.6617 18.3474C11.6313 18.8663 11.2048 19.0189 10.6566 19.0495C10.5043 19.0495 10.3825 19.0495 10.0779 19.08Z" fill="#DDAE07"/>
<path d="M37.4029 15.9024C38.1644 15.8109 39.1086 15.7193 40.0224 15.6277C40.7839 15.5361 40.9971 15.1393 40.8448 14.4983C40.6925 13.8878 40.327 13.552 39.596 13.7046C38.5908 13.9183 37.5857 14.1625 36.5805 14.3456C36.0018 14.4677 35.6972 14.6814 35.7582 15.2309C35.8495 15.7803 36.2455 15.933 36.8242 15.9024C36.9765 15.9024 37.0983 15.9024 37.4029 15.9024Z" fill="#DDAE07"/>
<path d="M14.9606 9.48985C14.9606 10.0393 14.2905 10.5582 13.8031 10.3446C12.5543 9.7951 11.4578 8.97091 10.3917 8.17724C9.84348 7.74989 10.7572 6.98675 10.7572 6.98675C10.7572 6.98675 11.1532 6.46781 11.7015 6.65097C12.8285 7.44463 13.8945 8.29935 14.8387 9.27617C14.8997 9.33722 14.8997 9.45933 14.9301 9.52038L14.9606 9.48985Z" fill="#DDAE07"/>
</svg>
