<svg width="5277" height="1339" viewBox="0 0 5277 1339" fill="none" xmlns="http://www.w3.org/2000/svg">
<g clip-path="url(#clip0_205_395)">
<path d="M2714.3 604.857H2795.77V970.58H2714.3V604.857ZM2927.93 674.616C2901.51 674.616 2878.82 680.289 2860.03 691.544C2841.15 702.798 2826.09 716.471 2814.83 732.655C2803.58 748.839 2795.77 764.465 2791.3 779.626L2790.56 738.515C2791.02 733.12 2792.79 724.935 2795.67 713.867C2798.65 702.891 2803.11 690.707 2809.25 677.499C2815.39 664.291 2823.67 651.456 2834.18 638.992C2844.69 626.528 2857.71 616.39 2873.05 608.484C2888.49 600.671 2906.72 596.765 2927.74 596.765V674.616H2927.93Z" fill="#20583B"/>
<path d="M2996 581.417H3078.22V947.14H2996V581.417Z" fill="#20583B"/>
<path d="M3842.15 956.442C3801.23 956.442 3764.58 949.094 3732.03 934.305C3699.48 919.516 3673.91 897.844 3655.12 869.29C3636.42 840.735 3627.03 805.948 3627.03 765.023C3627.03 724.098 3636.42 689.963 3655.12 661.129C3673.81 632.295 3699.48 610.251 3732.03 594.997C3764.58 579.743 3801.23 572.116 3842.15 572.116C3883.07 572.116 3919.53 579.743 3951.52 594.997C3983.51 610.251 4008.81 632.295 4027.32 661.129C4045.82 689.963 4055.03 724.563 4055.03 765.023C4055.03 805.483 4045.82 840.642 4027.32 869.29C4008.81 897.844 3983.61 919.516 3951.52 934.305C3919.43 949.094 3882.98 956.442 3842.15 956.442ZM3842.15 889.194C3865.77 889.194 3887.44 884.544 3907.16 875.149C3926.87 865.755 3942.5 851.71 3954.12 833.015C3965.66 814.32 3971.52 791.625 3971.52 765.023C3971.52 738.422 3965.75 715.727 3954.12 697.032C3942.5 678.336 3926.97 663.919 3907.53 653.781C3888.09 643.643 3866.24 638.62 3842.15 638.62C3818.06 638.62 3796.02 643.55 3776.39 653.409C3756.68 663.268 3740.77 677.592 3728.68 696.287C3716.59 714.983 3710.55 737.957 3710.55 765.023C3710.55 792.09 3716.5 814.32 3728.31 833.015C3740.12 851.71 3756.03 865.755 3776.02 875.149C3796.02 884.544 3818.06 889.194 3842.15 889.194Z" fill="#20583B"/>
<path d="M1692.75 947.048L1900.52 471.198H1990.08L2199.34 947.048H2109.03L1926.93 517.518H1963.67L1782.31 947.048H1692.75Z" fill="#20583B"/>
<path d="M2421.8 890.496C2387.58 890.496 2356.61 884.358 2328.89 872.173C2301.27 859.988 2279.41 842.037 2263.51 818.598C2247.61 795.066 2239.61 766.977 2239.61 734.143C2239.61 701.31 2247.33 672.941 2262.77 648.944C2278.21 624.947 2299.69 606.345 2327.4 593.137C2355.03 579.93 2386.55 573.326 2421.71 573.326C2432.03 573.326 2441.89 574.07 2451.47 575.558C2461.05 577.046 2470.16 578.999 2479 581.418L2650.03 582.162V650.433C2626.5 650.898 2602.88 647.642 2579.16 640.48C2555.45 633.411 2534.52 625.877 2516.39 618.064L2514.15 613.693C2530.8 622.064 2545.87 632.202 2559.26 644.201C2572.75 656.199 2583.35 669.779 2591.16 684.94C2598.97 700.101 2602.88 717.215 2602.88 736.376C2602.88 768.651 2595.16 796.368 2579.72 819.342C2564.28 842.316 2542.99 859.988 2515.83 872.173C2488.67 884.451 2457.24 890.496 2421.43 890.496H2421.8ZM2539.27 1096.15V1079.22C2539.27 1055.22 2532.2 1038.29 2517.97 1028.53C2503.74 1018.76 2483.93 1013.83 2458.45 1013.83H2359.3C2339.68 1013.83 2322.94 1012.25 2308.99 1009.09C2295.04 1005.92 2283.88 1001.27 2275.6 995.135C2267.23 988.996 2261.19 981.927 2257.28 973.835C2253.37 965.743 2251.42 956.814 2251.42 947.048C2251.42 927.515 2257.37 912.819 2269.37 902.96C2281.37 893.194 2297.27 886.776 2317.08 883.893C2336.89 880.916 2357.82 880.451 2379.86 882.404L2421.71 890.496C2392.79 891.52 2370.93 894.031 2355.96 898.216C2340.98 902.402 2333.54 910.587 2333.54 922.772C2333.54 930.119 2336.52 935.979 2342.38 940.351C2348.24 944.722 2356.61 946.955 2367.3 946.955H2471.56C2501.41 946.955 2527.64 950.489 2550.15 957.558C2572.65 964.627 2590.14 976.625 2602.6 993.554C2615.06 1010.48 2621.29 1033.55 2621.29 1062.94V1095.96H2539.08L2539.27 1096.15ZM2421.8 826.69C2441.33 826.69 2458.72 823.063 2473.98 815.715C2489.14 808.367 2501.13 797.856 2509.97 784.184C2518.8 770.511 2523.18 753.862 2523.18 734.236C2523.18 714.611 2518.8 697.776 2509.97 683.545C2501.13 669.314 2489.14 658.618 2473.98 651.27C2458.82 643.922 2441.43 640.294 2421.8 640.294C2402.18 640.294 2385.44 643.922 2370 651.27C2354.56 658.618 2342.47 669.221 2333.64 683.173C2324.8 697.125 2320.43 714.146 2320.43 734.236C2320.43 754.327 2324.8 770.511 2333.64 784.184C2342.47 797.856 2354.47 808.46 2369.63 815.715C2384.79 823.063 2402.18 826.69 2421.8 826.69Z" fill="#20583B"/>
<path d="M3569.46 805.39C3566.48 836.735 3556.44 863.616 3539.33 886.125C3522.21 908.634 3499.34 925.748 3470.69 937.56C3442.05 949.28 3409.12 955.14 3371.92 955.14C3331.74 955.14 3295.47 947.792 3262.92 933.096C3230.37 918.4 3204.52 896.914 3185.45 868.453C3166.38 840.084 3156.8 805.576 3156.8 764.93C3156.8 724.284 3166.38 689.777 3185.45 661.408C3204.52 633.039 3230.37 611.275 3262.92 596.021C3295.47 580.86 3331.84 573.233 3371.92 573.233C3409.12 573.233 3441.95 579.278 3470.32 591.184C3498.68 603.183 3521.47 620.204 3538.58 642.248C3555.7 664.291 3565.74 690.986 3568.72 722.331H3493.85C3485.48 696.381 3470.5 676.197 3448.65 661.78C3426.89 647.363 3401.31 640.108 3371.92 640.108C3347.93 640.108 3325.88 644.852 3305.8 654.432C3285.71 664.012 3269.71 677.964 3257.71 696.287C3245.72 714.611 3239.76 737.492 3239.76 764.93C3239.76 792.369 3245.72 814.599 3257.71 833.201C3269.71 851.803 3285.71 865.662 3305.8 874.684C3325.88 883.707 3347.93 888.264 3371.92 888.264C3404.19 888.264 3430.79 881.009 3451.62 866.592C3472.46 852.175 3486.78 831.713 3494.59 805.297H3569.46V805.39Z" fill="#20583B"/>
<path d="M4215.55 471.292V875.149H4512.14V947.141H4131.85V471.292H4215.55Z" fill="#20583B"/>
<path d="M4728 955.14C4694.71 955.14 4664.2 947.048 4636.58 930.864C4608.96 914.68 4586.92 892.357 4570.55 863.709C4554.18 835.061 4545.9 802.135 4545.9 764.93C4545.9 727.725 4554.18 693.311 4570.83 664.663C4587.47 636.016 4609.98 613.6 4638.35 597.509C4666.71 581.325 4698.52 573.233 4733.77 573.233C4772.92 573.233 4803.99 581.79 4827.05 598.904C4850.02 616.018 4866.48 639.085 4876.25 667.919C4886.01 696.846 4890.94 729.121 4890.94 764.837C4890.94 784.928 4887.97 806.042 4882.11 828.364C4876.25 850.687 4867.04 871.336 4854.58 890.403C4842.12 909.471 4825.47 925.004 4804.64 937.002C4783.8 949.001 4758.23 954.954 4727.91 954.954V955.14H4728ZM4753.02 887.613C4780.46 887.613 4803.8 882.311 4823.14 871.801C4842.49 861.291 4857.18 846.688 4867.23 828.085C4877.27 809.483 4882.29 788.462 4882.29 764.93C4882.29 738.98 4877.18 716.843 4866.86 698.52C4856.53 680.196 4841.93 665.966 4822.77 655.92C4803.71 645.875 4780.46 640.852 4753.02 640.852C4713.87 640.852 4683.55 652.386 4661.97 675.36C4640.39 698.334 4629.7 728.191 4629.7 764.93C4629.7 788.927 4635 810.227 4645.51 828.829C4656.02 847.432 4670.62 861.849 4689.22 872.173C4707.82 882.497 4729.12 887.613 4753.11 887.613H4753.02ZM4882.2 581.418H4964.42V947.141H4888.06C4886.11 928.538 4884.62 912.54 4883.69 899.054C4882.67 885.567 4882.2 872.731 4882.2 860.547V581.511V581.418Z" fill="#20583B"/>
<path d="M5063.37 581.418H5144.84V947.141H5063.37V581.418ZM5277 651.177C5250.59 651.177 5227.89 656.85 5209.11 668.105C5190.23 679.359 5175.16 693.032 5163.91 709.216C5152.65 725.4 5144.84 741.026 5140.38 756.187L5139.63 715.076C5140.1 709.681 5141.87 701.496 5144.75 690.428C5147.72 679.452 5152.19 667.268 5158.33 654.06C5164.47 640.852 5172.74 628.017 5183.25 615.553C5193.76 603.09 5206.78 592.951 5222.13 585.045C5237.57 577.232 5255.79 573.326 5276.81 573.326V651.177H5277Z" fill="#20583B"/>
<path d="M1408.81 598.904H1088.79C1081.39 598.904 1075.39 604.901 1075.39 612.298V641.411C1075.39 648.808 1081.39 654.804 1088.79 654.804H1408.81C1416.21 654.804 1422.2 648.808 1422.2 641.411V612.298C1422.2 604.901 1416.21 598.904 1408.81 598.904Z" fill="#20583B"/>
<path d="M1092.41 682.522C1092.69 657.316 1092.69 632.202 1092.97 606.996C1092.97 598.625 1093.16 598.718 1084.42 598.904C1075.21 599.09 1065.82 598.532 1056.7 599.741C1040.89 601.881 1025.17 604.578 1009.55 607.926C977.835 614.809 947.423 625.599 918.964 641.225C905.013 648.852 891.993 657.967 878.135 665.873C855.163 678.987 837.679 698.241 819.357 716.75C812.475 723.726 805.221 730.516 799.362 738.329C790.805 749.677 783.179 761.675 775.553 773.674C760.3 797.671 749.233 823.621 739.84 850.409C736.956 858.408 733.98 866.5 731.841 874.685C729.516 883.521 728.214 892.729 726.354 901.658C724.773 909.378 722.355 917.005 721.611 924.818C720.216 939.421 719.379 954.117 719.193 968.813C718.821 996.902 719.193 1024.9 719.007 1052.99C719.007 1081.36 718.728 1109.73 718.542 1138.09C718.356 1161.25 717.798 1184.41 717.705 1207.57C717.519 1248.22 717.705 1288.77 717.426 1329.42C717.426 1332.86 717.426 1332.58 717.426 1336.4C718.263 1336.4 729.051 1336.58 735.561 1336.58C770.066 1336.58 804.57 1336.86 839.074 1337.05C882.041 1337.33 925.009 1337.51 967.883 1337.79C1007.78 1338.07 1047.68 1338.54 1087.58 1338.81C1097.9 1338.81 1108.23 1339.37 1118.46 1338.44C1129.8 1337.42 1140.96 1335.09 1152.22 1333.14C1160.12 1331.75 1168.12 1330.44 1175.84 1328.4C1189.6 1324.77 1203.74 1321.61 1216.95 1316.4C1235.17 1309.24 1253.03 1300.68 1270.61 1291.84C1281.49 1286.36 1291.35 1278.91 1302.14 1273.15C1313.02 1267.29 1322.23 1259.47 1331.06 1251.1C1344.08 1238.73 1357.57 1226.92 1369.94 1213.9C1385.75 1197.34 1397.74 1177.9 1409.46 1158.46C1423.41 1135.3 1434.76 1110.94 1442.57 1085.08C1447.59 1068.34 1452.06 1051.31 1455.68 1034.29C1458.2 1022.57 1459.22 1010.58 1460.43 998.67C1461.36 989.647 1462.2 980.625 1462.2 971.603C1462.2 954.954 1461.45 938.212 1461.36 921.563C1461.27 902.681 1461.45 883.8 1461.54 865.011C1461.64 840.177 1461.82 815.25 1462.01 790.416C1462.1 772.837 1462.2 755.35 1462.38 737.771C1462.57 722.889 1463.31 708.007 1463.4 693.125C1463.4 665.687 1463.13 638.155 1463.22 610.717C1463.22 607.275 1464.24 603.927 1464.71 600.671C1434.29 600.485 1403.88 600.299 1372.91 600.113V607.926C1372.91 655.641 1372.17 650.898 1372.63 655.92C1372.63 655.92 1371.7 681.406 1372.35 685.591C1371.24 689.405 1370.12 692.009 1369.47 692.66C1364.17 698.334 1358.12 703.357 1352.73 709.03C1346.96 714.983 1341.76 721.587 1335.9 727.447C1322.41 741.119 1308.65 754.42 1294.98 767.907C1292.19 770.697 1289.49 773.581 1286.61 776.185C1285.49 777.208 1284 777.673 1282.61 778.417C1282.05 777.022 1281.12 775.627 1281.12 774.232C1281.02 767.442 1281.12 760.652 1281.12 753.955C1281.4 733.306 1281.77 712.658 1282.05 691.916C1282.23 677.592 1282.61 670.058 1282.61 655.641C1282.61 641.225 1282.33 618.809 1282.14 603.741C1282.14 600.671 1280.75 600.02 1277.77 599.927C1252.47 599.741 1227.18 599.276 1201.88 598.904C1196.67 598.904 1191.56 598.904 1186.35 599.276C1185.42 599.276 1183.93 601.323 1183.93 602.346C1183.84 628.296 1183.93 654.339 1183.93 680.29C1183.93 698.148 1184.12 716.099 1183.93 733.958C1183.84 750.049 1183.09 766.047 1183.09 782.138C1183.09 810.692 1183.37 839.247 1183.65 867.802C1183.65 874.499 1181.14 879.893 1176.49 884.451C1149.7 910.587 1123.01 936.724 1096.23 962.767C1095.11 963.883 1093.34 964.348 1091.86 965.185C1091.48 963.697 1090.74 962.209 1090.74 960.721C1090.74 935.049 1091.02 909.285 1091.11 883.614C1091.11 871.057 1091.3 858.501 1091.3 845.944C1091.3 827.155 1091.48 808.367 1091.67 789.579C1091.86 763.907 1091.95 738.236 1092.14 712.565V697.869M905.571 1150.19C905.85 1150.93 906.129 1151.58 906.408 1152.33C1035.5 1153.07 1164.59 1153.81 1294.98 1154.65C1293.58 1156.88 1292.74 1158.74 1291.44 1160.05C1286.42 1164.88 1281.21 1169.44 1276.1 1174.18C1268.47 1181.16 1261.59 1189.16 1253.22 1195.02C1229.69 1211.76 1204.02 1224.6 1176.3 1233.34C1152.4 1240.78 1128.03 1245.06 1103.11 1245.71C1090.46 1246.08 1077.72 1245.24 1065.07 1245.24H986.391C960.536 1245.15 934.681 1244.69 908.826 1244.59C879.344 1244.41 849.955 1244.59 820.473 1244.5C813.312 1244.5 812.196 1243.48 812.289 1236.5C812.289 1228.78 812.94 1221.06 812.94 1213.34C812.94 1189.62 812.754 1165.91 812.94 1142.19C813.126 1114.56 813.591 1086.84 813.777 1059.22C814.056 1026.85 814.149 994.391 814.428 962.023C814.707 929.469 821.496 898.124 832.936 867.802C841.864 844.084 853.954 821.947 869.579 801.949C875.996 793.764 883.436 786.23 890.691 778.789C900.084 769.116 909.384 759.164 919.708 750.514C928.171 743.352 937.75 737.492 947.237 731.818C964.163 721.68 982.02 713.588 1001.64 707.17C1001.92 710.053 1002.39 712.193 1002.39 714.425C1002.2 745.956 1002.02 777.487 1001.83 809.018C1001.64 834.69 1001.55 860.361 1001.36 886.032C1001.36 903.239 1001.18 920.447 1001.09 937.561C1001.09 952.071 1000.9 966.58 1000.81 981.09C1000.81 1003.6 1000.25 1026.02 1000.53 1048.52C1000.53 1056.06 997.644 1061.64 992.715 1066.48C966.767 1092.24 940.819 1118 914.685 1143.68C912.081 1146.28 908.733 1148.14 905.664 1150.37V1150.19H905.571ZM1004.71 1059.31L1003.97 1057.92C1006.67 1055.13 1009.27 1052.43 1011.97 1049.64C1035.68 1025.64 1059.4 1001.65 1083.21 977.742C1087.67 973.277 1092.51 970.115 1099.67 970.301C1127.29 971.138 1155.01 971.51 1182.63 971.696C1197.6 971.789 1212.57 971.231 1227.46 971.231C1246.99 971.231 1266.42 971.417 1285.95 971.417H1337.76C1340.92 971.417 1344.08 972.719 1347.15 972.626C1352.45 972.626 1357.75 971.603 1363.15 971.51C1370.31 971.324 1370.31 971.51 1370.03 978.765C1368.73 1005.27 1363.43 1031.13 1356.17 1056.52C1355.06 1060.34 1353.01 1061.82 1348.82 1061.73C1315.9 1061.36 1282.98 1061.17 1249.96 1060.99C1206.81 1060.71 1163.56 1060.43 1120.41 1060.15C1083.39 1059.96 1046.38 1059.69 1009.36 1059.5C1007.78 1059.5 1006.2 1059.31 1004.71 1059.22V1059.31ZM1233.59 877.289C1220.85 877.289 1208.11 877.196 1195.37 877.01C1193.6 877.01 1191.93 876.08 1190.16 875.522C1191.09 873.94 1191.83 872.08 1193.14 870.778C1219.83 844.363 1246.52 818.04 1273.21 791.625C1278.14 786.788 1283.16 783.254 1290.6 784.463C1294.98 785.114 1299.53 785.114 1304 785.114C1324.64 785.114 1345.29 785.114 1365.94 784.928C1370.4 784.928 1371.89 786.323 1371.7 790.788C1371.15 801.391 1370.77 811.902 1370.77 822.505C1370.77 839.526 1370.96 856.547 1371.14 873.568C1371.14 876.638 1369.75 878.126 1366.59 878.033C1360.64 877.847 1354.68 877.94 1348.64 877.847C1333.94 877.847 1319.16 877.661 1304.46 877.568C1293.3 877.568 1282.05 877.475 1270.89 877.382C1258.52 877.382 1246.06 877.196 1233.69 877.196H1233.59V877.289Z" fill="#20583B"/>
<path d="M56.0836 654.804H376.108C383.504 654.804 389.5 648.808 389.5 641.41V612.298C389.5 604.901 383.504 598.904 376.108 598.904H56.0836C48.6872 598.904 42.6912 604.901 42.6912 612.298V641.41C42.6912 648.808 48.6872 654.804 56.0836 654.804Z" fill="#20583B"/>
<path d="M372.385 682.522C372.106 657.316 372.106 632.202 371.827 606.996C371.827 598.625 371.641 598.718 380.384 598.904C389.591 599.09 398.984 598.532 408.099 599.741C423.909 601.881 439.627 604.578 455.251 607.926C486.965 614.809 517.377 625.599 545.836 641.225C559.787 648.852 572.807 657.967 586.665 665.873C609.637 678.987 627.121 698.241 645.443 716.75C652.325 723.726 659.579 730.516 665.438 738.329C673.995 749.677 681.621 761.675 689.247 773.674C704.5 797.671 715.567 823.621 724.96 850.409C727.844 858.408 730.82 866.5 732.959 874.685C735.284 883.521 736.586 892.729 738.446 901.658C740.027 909.378 742.445 917.005 743.189 924.818C744.584 939.421 745.421 954.117 745.607 968.813C745.979 996.902 745.607 1024.9 745.793 1052.99C745.793 1081.36 746.072 1109.73 746.258 1138.09C746.444 1161.25 747.002 1184.41 747.095 1207.57C747.281 1248.22 747.095 1288.77 747.374 1329.42C747.374 1332.86 747.374 1332.58 747.374 1336.4C746.537 1336.4 735.749 1336.58 729.239 1336.58C694.734 1336.58 660.23 1336.86 625.726 1337.05C582.759 1337.33 539.791 1337.51 496.917 1337.79C457.018 1338.07 417.12 1338.54 377.222 1338.81C366.898 1338.81 356.575 1339.37 346.345 1338.44C334.998 1337.42 323.838 1335.09 312.584 1333.14C304.679 1331.75 296.681 1330.44 288.962 1328.4C275.197 1324.77 261.061 1321.61 247.854 1316.4C229.626 1309.24 211.769 1300.68 194.191 1291.84C183.31 1286.36 173.452 1278.91 162.663 1273.15C151.782 1267.29 142.575 1259.47 133.739 1251.1C120.719 1238.73 107.233 1226.92 94.864 1213.9C79.0534 1197.34 67.056 1177.9 55.3376 1158.46C41.3872 1135.3 30.0408 1110.94 22.2285 1085.08C17.2063 1068.34 12.7422 1051.31 9.11506 1034.29C6.60397 1022.57 5.58094 1010.58 4.3719 998.67C3.44186 989.647 2.60484 980.625 2.60484 971.603C2.60484 954.954 3.34886 938.212 3.44186 921.563C3.53487 902.681 3.34886 883.8 3.25586 865.011C3.16285 840.177 2.97685 815.25 2.79084 790.416C2.69784 772.837 2.60484 755.35 2.41883 737.771C2.23282 722.889 1.4888 708.007 1.39579 693.125C1.39579 665.687 1.6748 638.155 1.5818 610.717C1.5818 607.275 0.558766 603.927 0.09375 600.671C30.5058 600.485 60.9178 600.299 91.8879 600.113V607.926C91.8879 655.641 92.6319 650.898 92.1669 655.92C92.1669 655.92 93.0969 681.406 92.4459 685.591C93.5619 689.405 94.678 692.009 95.329 692.66C100.63 698.334 106.675 703.357 112.07 709.03C117.836 714.983 123.044 721.587 128.903 727.447C142.389 741.119 156.153 754.42 169.825 767.907C172.615 770.697 175.312 773.581 178.195 776.185C179.311 777.208 180.799 777.673 182.194 778.417C182.752 777.022 183.682 775.627 183.682 774.232C183.775 767.442 183.682 760.652 183.682 753.955C183.403 733.306 183.031 712.658 182.752 691.916C182.566 677.592 182.194 670.058 182.194 655.641C182.194 641.225 182.473 618.809 182.659 603.741C182.659 600.671 184.054 600.02 187.03 599.927C212.327 599.741 237.624 599.276 262.921 598.904C268.129 598.904 273.244 598.904 278.452 599.276C279.382 599.276 280.87 601.323 280.87 602.346C280.963 628.296 280.87 654.339 280.87 680.29C280.87 698.148 280.684 716.099 280.87 733.958C280.963 750.049 281.707 766.047 281.707 782.138C281.707 810.692 281.428 839.247 281.149 867.802C281.149 874.499 283.66 879.893 288.311 884.451C315.095 910.587 341.787 936.724 368.572 962.767C369.688 963.883 371.455 964.348 372.943 965.185C373.315 963.697 374.06 962.209 374.06 960.721C374.06 935.049 373.78 909.285 373.688 883.614C373.688 871.057 373.501 858.501 373.501 845.944C373.501 827.155 373.315 808.367 373.129 789.579C372.943 763.907 372.85 738.236 372.664 712.565V697.869M559.229 1150.19C558.95 1150.93 558.671 1151.58 558.392 1152.33C429.303 1153.07 300.215 1153.81 169.825 1154.65C171.22 1156.88 172.057 1158.74 173.359 1160.05C178.381 1164.88 183.589 1169.44 188.704 1174.18C196.33 1181.16 203.213 1189.16 211.583 1195.02C235.113 1211.76 260.782 1224.6 288.497 1233.34C312.398 1240.78 336.765 1245.06 361.69 1245.71C374.339 1246.08 387.08 1245.24 399.728 1245.24H478.409C504.264 1245.15 530.119 1244.69 555.974 1244.59C585.456 1244.41 614.845 1244.59 644.327 1244.5C651.488 1244.5 652.604 1243.48 652.511 1236.5C652.511 1228.78 651.86 1221.06 651.86 1213.34C651.86 1189.62 652.046 1165.91 651.86 1142.19C651.674 1114.56 651.209 1086.84 651.023 1059.22C650.744 1026.85 650.651 994.391 650.372 962.023C650.093 929.469 643.304 898.124 631.864 867.802C622.936 844.084 610.846 821.947 595.221 801.949C588.804 793.764 581.364 786.23 574.109 778.789C564.716 769.116 555.416 759.164 545.092 750.514C536.629 743.352 527.05 737.492 517.563 731.818C500.637 721.68 482.78 713.588 463.157 707.17C462.878 710.053 462.413 712.193 462.413 714.425C462.599 745.956 462.785 777.487 462.971 809.018C463.157 834.69 463.25 860.361 463.436 886.032C463.436 903.239 463.622 920.447 463.715 937.561C463.715 952.071 463.901 966.58 463.994 981.09C463.994 1003.6 464.552 1026.02 464.273 1048.52C464.273 1056.06 467.156 1061.64 472.085 1066.48C498.033 1092.24 523.981 1118 550.115 1143.68C552.719 1146.28 556.067 1148.14 559.136 1150.37V1150.19H559.229ZM460.087 1059.31L460.831 1057.92C458.134 1055.13 455.53 1052.43 452.833 1049.64C429.117 1025.64 405.402 1001.65 381.593 977.742C377.129 973.277 372.292 970.115 365.131 970.301C337.509 971.138 309.794 971.51 282.172 971.696C267.199 971.789 252.225 971.231 237.345 971.231C217.814 971.231 198.376 971.417 178.846 971.417H127.043C123.881 971.417 120.719 972.719 117.65 972.626C112.349 972.626 107.047 971.603 101.653 971.51C94.492 971.324 94.492 971.51 94.771 978.765C96.073 1005.27 101.374 1031.13 108.628 1056.52C109.744 1060.34 111.791 1061.82 115.976 1061.73C148.899 1061.36 181.822 1061.17 214.838 1060.99C257.992 1060.71 301.238 1060.43 344.391 1060.15C381.407 1059.96 418.422 1059.69 455.437 1059.5C457.018 1059.5 458.599 1059.31 460.087 1059.22V1059.31ZM231.207 877.289C243.948 877.289 256.689 877.196 269.431 877.01C271.198 877.01 272.872 876.08 274.639 875.522C273.709 873.94 272.965 872.08 271.663 870.778C244.971 844.363 218.279 818.04 191.587 791.625C186.658 786.788 181.636 783.254 174.196 784.463C169.825 785.114 165.267 785.114 160.803 785.114C140.157 785.114 119.51 785.114 98.8631 784.928C94.399 784.928 92.9109 786.323 93.0969 790.788C93.6549 801.391 94.0269 811.902 94.0269 822.505C94.0269 839.526 93.8409 856.547 93.6549 873.568C93.6549 876.638 95.05 878.126 98.2121 878.033C104.164 877.847 110.116 877.94 116.162 877.847C130.856 877.847 145.644 877.661 160.338 877.568C171.499 877.568 182.752 877.475 193.912 877.382C206.282 877.382 218.744 877.196 231.114 877.196H231.207V877.289Z" fill="#20583B"/>
<path d="M394.149 508.868C405.867 283.5 616.891 139.518 816.755 196.255C960.724 237.18 1058.47 362.933 1063.68 520.216C1064.7 550.724 1033.27 575.93 995.135 575.093C979.883 574.721 964.444 572.768 949.564 569.326C799.642 534.633 649.907 535.563 500.265 570.349C477.852 575.558 455.81 579.557 432.931 568.861C399.357 553.142 393.405 545.701 394.149 508.868Z" fill="#DDAE07"/>
<path d="M754.812 105.941C756.766 78.5021 758.905 52.3657 760.486 26.2294C762.16 -0.7441 778.993 -0.744099 796.757 0.279033C815.916 1.39518 826.146 9.85926 821.775 33.6703C816.288 63.6202 812.288 93.9421 807.731 124.171C804.755 144.076 799.268 160.818 776.11 157.376C753.603 154.121 755.185 135.425 754.812 117.753V105.941Z" fill="#DDAE07"/>
<path d="M599.497 155.33C601.45 173.095 591.964 179.885 581.268 185.466C569.643 191.419 560.808 186.768 555.599 174.397C541.742 141.657 527.605 108.917 515.05 75.5258C504.262 46.8781 527.791 45.3899 541.277 36.6468C555.599 27.4386 563.505 34.2285 569.457 50.1335C582.477 84.734 591.034 120.916 599.497 155.423V155.33Z" fill="#DDAE07"/>
<path d="M964.817 228.251C944.449 229.089 928.545 204.44 938.776 185.466C955.516 154.307 973.931 124.171 991.881 93.7561C1004.9 71.6193 1019.04 81.8506 1032.8 92.64C1046.66 103.522 1059.12 114.126 1043.03 134.681C1022.11 161.376 1002.67 189.465 982.58 216.904C978.023 223.136 972.629 227.879 964.91 228.251H964.817Z" fill="#DDAE07"/>
<path d="M1148.12 213.276C1147.66 224.624 1142.82 229.833 1136.5 234.297C1108.69 253.737 1080.6 272.897 1053.17 292.709C1034.1 306.567 1021.45 297.359 1008.9 284.059C994.763 269.177 1007.04 260.248 1017.36 251.225C1041.08 230.391 1065.07 209.928 1089.07 189.372C1096.97 182.583 1104.88 172.816 1116.97 179.792C1131.85 188.349 1143.85 200.069 1148.12 213.276Z" fill="#DDAE07"/>
<path d="M693.338 122.59C696.593 149.47 685.061 157.19 669.716 160.725C653.44 164.445 647.116 153.563 644.326 138.309C637.815 103.057 631.212 67.7128 626.283 32.0892C622.749 6.78997 640.698 4.83672 655.3 1.5813C670.925 -1.86014 683.945 1.95335 685.433 24.4622C687.758 59.3417 694.082 106.406 693.431 122.59H693.338Z" fill="#DDAE07"/>
<path d="M405.122 358.654C404.285 376.419 385.778 387.767 364.48 381.535C330.627 371.676 297.239 360.514 263.944 349.167C234.741 339.215 259.2 311.497 259.2 311.497C261.991 307.87 273.709 289.174 294.356 298.661C324.768 312.52 355.924 325.542 386.708 338.936C396.473 343.214 406.331 347.493 405.122 358.561V358.654Z" fill="#DDAE07"/>
<path d="M439.44 96.7324C450.507 96.2673 456.552 103.708 461.667 111.335C480.082 138.588 497.939 166.212 515.981 193.744C522.77 203.975 527.049 214.486 514.121 223.043C502.031 231.135 488.638 241.087 475.246 226.391C450.321 198.86 425.861 170.956 402.61 142.122C392.845 130.031 419.351 98.1276 439.44 96.7324Z" fill="#DDAE07"/>
<path d="M1204.58 328.611C1205.6 339.866 1197.32 344.423 1187.84 348.237C1155.84 361.165 1123.76 374.001 1091.86 387.302C1075.86 393.906 1065.07 390.743 1057.35 375.675C1050.01 361.258 1047.31 349.911 1066.28 340.517C1094.18 326.751 1120.97 310.939 1148.5 296.336C1178.81 280.245 1204.86 295.406 1204.58 328.611Z" fill="#DDAE07"/>
<path d="M875.161 181.838C861.583 175.793 842.982 172.444 850.33 145.192C859.444 111.707 868.651 78.2231 877.859 44.7388C882.695 27.2526 891.716 17.2073 907.992 27.9967C921.384 36.8328 946.96 37.1118 935.8 67.0617C923.058 101.383 908.457 134.867 894.692 168.724C891.158 177.374 886.136 183.327 875.068 181.745L875.161 181.838Z" fill="#DDAE07"/>
<path d="M323.37 473.989C299.748 471.478 271.661 468.78 243.76 465.339C220.323 462.362 214.185 449.992 218.463 430.924C222.741 411.857 233.901 402.37 256.873 407.113C287.564 413.438 317.79 421.251 348.481 427.111C366.245 430.459 375.824 436.97 373.22 453.619C370.616 470.455 358.154 474.733 340.855 474.082C336.484 473.896 332.113 474.082 323.37 474.082V473.989Z" fill="#DDAE07"/>
<path d="M1152.87 560.49C1176.49 558.165 1204.58 555.746 1232.48 552.584C1255.91 549.887 1262.05 538.632 1257.77 521.239C1253.5 503.846 1242.33 495.196 1219.36 499.567C1188.67 505.334 1158.45 512.496 1127.76 517.797C1109.99 520.867 1100.41 526.82 1103.02 541.981C1105.62 557.328 1118.08 561.234 1135.38 560.676C1139.75 560.49 1144.12 560.676 1152.87 560.676V560.49Z" fill="#DDAE07"/>
<path d="M307.096 564.303C283.38 563.745 255.2 563.373 227.113 562.257C203.584 561.327 196.608 550.445 199.584 532.865C202.561 515.193 213.07 505.799 236.321 508.403C267.291 511.845 297.982 516.774 329.045 519.844C346.994 521.611 356.946 526.82 355.551 542.074C354.156 557.514 341.972 562.35 324.674 563.094C320.303 563.28 316.024 563.745 307.189 564.396H307.096V564.303Z" fill="#DDAE07"/>
<path d="M1141.33 467.664C1164.96 465.153 1193.04 462.455 1220.95 459.014C1244.38 456.038 1250.52 443.667 1246.24 424.6C1241.96 405.532 1230.8 396.045 1207.83 400.788C1177.14 407.113 1146.91 414.926 1116.22 420.786C1098.46 424.134 1088.88 430.645 1091.48 447.294C1094.09 464.13 1106.55 468.408 1123.85 467.757C1128.22 467.571 1132.59 467.757 1141.33 467.757V467.664Z" fill="#DDAE07"/>
<path d="M455.716 272.432C456.274 289.267 435.535 305.451 420.375 298.847C381.872 282.012 348.67 257.364 316.584 232.344C299.657 219.136 327.93 196.162 327.93 196.162C327.93 196.162 340.486 180.35 357.04 185.466C391.079 209.928 424.374 235.599 452.926 265.549C454.879 267.595 455.158 270.944 455.716 272.525V272.432Z" fill="#DDAE07"/>
<path d="M3037.11 564.768C3059.81 564.768 3078.22 546.362 3078.22 523.657C3078.22 500.952 3059.81 482.546 3037.11 482.546C3014.41 482.546 2996 500.952 2996 523.657C2996 546.362 3014.41 564.768 3037.11 564.768Z" fill="#20583B"/>
</g>
<defs>
<clipPath id="clip0_205_395">
<rect width="5277" height="1339" fill="white"/>
</clipPath>
</defs>
</svg>
