<svg width="88" height="83" viewBox="0 0 88 83" fill="none" xmlns="http://www.w3.org/2000/svg">
<g clip-path="url(#clip0_649_2)">
<path d="M86.1463 37.1377H66.5782C66.1259 37.1377 65.7593 37.5044 65.7593 37.9567V39.7368C65.7593 40.1891 66.1259 40.5558 66.5782 40.5558H86.1463C86.5986 40.5558 86.9652 40.1891 86.9652 39.7368V37.9567C86.9652 37.5044 86.5986 37.1377 86.1463 37.1377Z" fill="#20583B"/>
<path d="M66.8001 42.2507C66.8172 40.7094 66.8172 39.1739 66.8342 37.6326C66.8342 37.1207 66.8456 37.1264 66.311 37.1378C65.748 37.1492 65.1737 37.1151 64.6164 37.189C63.6496 37.3198 62.6886 37.4847 61.7332 37.6895C59.794 38.1103 57.9344 38.7701 56.1943 39.7255C55.3413 40.1919 54.5451 40.7492 53.6978 41.2327C52.2932 42.0346 51.2241 43.2118 50.1038 44.3436C49.683 44.7702 49.2394 45.1853 48.8811 45.6631C48.3579 46.3569 47.8916 47.0906 47.4253 47.8242C46.4927 49.2916 45.816 50.8783 45.2416 52.5162C45.0653 53.0054 44.8833 53.5002 44.7525 54.0006C44.6104 54.5409 44.5308 55.104 44.417 55.65C44.3203 56.122 44.1725 56.5884 44.127 57.0661C44.0417 57.959 43.9905 58.8576 43.9791 59.7562C43.9564 61.4737 43.9791 63.1856 43.9678 64.9032C43.9678 66.6378 43.9507 68.3724 43.9393 70.1071C43.928 71.5232 43.8938 72.9393 43.8882 74.3555C43.8768 76.8408 43.8882 79.3205 43.8711 81.8058C43.8711 82.0162 43.8711 81.9992 43.8711 82.2324C43.9223 82.2324 44.5819 82.2437 44.98 82.2437C47.0898 82.2437 49.1996 82.2608 51.3094 82.2722C53.9367 82.2892 56.5639 82.3006 59.1855 82.3177C61.6252 82.3347 64.0648 82.3632 66.5044 82.3802C67.1356 82.3802 67.7669 82.4144 68.3924 82.3575C69.0862 82.2949 69.7686 82.1527 70.4567 82.0333C70.9401 81.948 71.4291 81.8684 71.9011 81.7433C72.7428 81.5215 73.6072 81.3281 74.4147 81.0096C75.5293 80.5717 76.6211 80.0484 77.6959 79.5081C78.3613 79.1726 78.9641 78.7176 79.6237 78.365C80.2891 78.0067 80.8521 77.529 81.3923 77.0171C82.1885 76.2607 83.013 75.5384 83.7694 74.7422C84.7361 73.7299 85.4697 72.5412 86.1863 71.3526C87.0393 69.9364 87.7331 68.4464 88.2107 66.8653C88.5178 65.8416 88.7908 64.8008 89.0126 63.76C89.1661 63.0434 89.2287 62.3098 89.3026 61.5818C89.3595 61.0301 89.4106 60.4785 89.4106 59.9268C89.4106 58.9088 89.3652 57.8851 89.3595 56.867C89.3538 55.7125 89.3652 54.558 89.3708 53.4092C89.3765 51.8906 89.3879 50.3665 89.3993 48.8479C89.405 47.773 89.4107 46.7038 89.422 45.6289C89.4334 44.719 89.4789 43.809 89.4846 42.899C89.4846 41.2213 89.4675 39.5378 89.4732 37.8601C89.4732 37.6497 89.5358 37.4449 89.5642 37.2459C87.7046 37.2345 85.845 37.2231 83.9514 37.2117V37.6895C83.9514 40.6071 83.9059 40.317 83.9343 40.6241C83.9343 40.6241 83.8774 42.1824 83.9172 42.4384C83.849 42.6715 83.7808 42.8308 83.741 42.8706C83.4168 43.2175 83.0472 43.5246 82.7173 43.8716C82.3648 44.2356 82.0463 44.6393 81.688 44.9976C80.8635 45.8337 80.0218 46.647 79.1859 47.4716C79.0153 47.6422 78.8503 47.8185 78.674 47.9778C78.6058 48.0403 78.5148 48.0688 78.4295 48.1143C78.3954 48.029 78.3385 47.9437 78.3385 47.8584C78.3328 47.4432 78.3385 47.028 78.3385 46.6185C78.3556 45.3559 78.3783 44.0934 78.3954 42.8251C78.4068 41.9493 78.4295 41.4886 78.4295 40.6071C78.4295 39.7255 78.4125 38.3549 78.4011 37.4335C78.4011 37.2459 78.3158 37.2061 78.1338 37.2004C76.587 37.189 75.0402 37.1606 73.4934 37.1378C73.175 37.1378 72.8622 37.1378 72.5437 37.1606C72.4869 37.1606 72.3959 37.2857 72.3959 37.3482C72.3902 38.935 72.3959 40.5274 72.3959 42.1142C72.3959 43.2061 72.4072 44.3038 72.3959 45.3958C72.3902 46.3797 72.3447 47.3579 72.3447 48.3418C72.3447 50.0878 72.3617 51.8338 72.3788 53.5798C72.3788 53.9893 72.2253 54.3191 71.9409 54.5978C70.3031 56.1959 68.671 57.7941 67.0333 59.3865C66.965 59.4548 66.857 59.4832 66.766 59.5344C66.7432 59.4434 66.6977 59.3524 66.6977 59.2614C66.6977 57.6917 66.7148 56.1163 66.7205 54.5466C66.7205 53.7788 66.7319 53.011 66.7319 52.2433C66.7319 51.0944 66.7432 49.9456 66.7546 48.7968C66.766 47.2271 66.7717 45.6574 66.783 44.0877V43.1891M55.3754 70.8464C55.3925 70.8919 55.4095 70.9317 55.4266 70.9772C63.3198 71.0227 71.213 71.0682 79.1859 71.1194C79.1006 71.2559 79.0494 71.3696 78.9698 71.4493C78.6627 71.745 78.3442 72.0237 78.0315 72.3137C77.5651 72.7403 77.1443 73.2294 76.6325 73.5877C75.1938 74.6114 73.6242 75.3962 71.9296 75.9308C70.4681 76.3858 68.9781 76.6474 67.4541 76.6872C66.6807 76.71 65.9016 76.6588 65.1282 76.6588H60.3172C58.7363 76.6531 57.1554 76.6247 55.5744 76.619C53.7717 76.6076 51.9747 76.619 50.172 76.6133C49.7341 76.6133 49.6659 76.5508 49.6716 76.1242C49.6716 75.6522 49.7114 75.1801 49.7114 74.7081C49.7114 73.2578 49.7 71.8076 49.7114 70.3573C49.7228 68.6682 49.7512 66.9734 49.7626 65.2842C49.7796 63.305 49.7853 61.3202 49.8024 59.341C49.8194 57.3505 50.2346 55.4338 50.934 53.5798C51.48 52.1295 52.2193 50.7759 53.1746 49.5532C53.567 49.0527 54.022 48.592 54.4655 48.137C55.0399 47.5456 55.6086 46.937 56.2398 46.4081C56.7573 45.9702 57.343 45.6119 57.9231 45.2649C58.9581 44.645 60.0499 44.1502 61.2498 43.7578C61.2669 43.9341 61.2953 44.0649 61.2953 44.2014C61.2839 46.1294 61.2726 48.0574 61.2612 49.9854C61.2498 51.5551 61.2441 53.1248 61.2328 54.6945C61.2328 55.7466 61.2214 56.7988 61.2157 57.8452C61.2157 58.7325 61.2043 59.6197 61.1986 60.5069C61.1986 61.8832 61.1645 63.2539 61.1816 64.6302C61.1816 65.0909 61.0053 65.4321 60.7039 65.7278C59.1173 67.3032 57.5307 68.8786 55.9327 70.4483C55.7735 70.6075 55.5688 70.7213 55.3811 70.8578V70.8464H55.3754ZM61.4375 65.2899L61.392 65.2046C61.5569 65.034 61.7161 64.8691 61.8811 64.6984C63.3312 63.2311 64.7813 61.7638 66.2371 60.3022C66.5101 60.0292 66.8058 59.8358 67.2437 59.8472C68.9326 59.8984 70.6273 59.9211 72.3163 59.9325C73.2318 59.9382 74.1474 59.904 75.0573 59.904C76.2515 59.904 77.44 59.9154 78.6342 59.9154H81.8018C81.9951 59.9154 82.1885 59.995 82.3761 59.9894C82.7003 59.9894 83.0244 59.9268 83.3543 59.9211C83.7921 59.9097 83.7921 59.9211 83.7751 60.3647C83.6955 61.9856 83.3713 63.5667 82.9277 65.1193C82.8595 65.3525 82.7344 65.4435 82.4785 65.4378C80.4654 65.415 78.4523 65.4037 76.4335 65.3923C73.7948 65.3752 71.1505 65.3582 68.5118 65.3411C66.2485 65.3297 63.9852 65.3127 61.7218 65.3013C61.6252 65.3013 61.5285 65.2899 61.4375 65.2842V65.2899ZM75.4326 54.1599C74.6535 54.1599 73.8744 54.1542 73.0953 54.1428C72.9873 54.1428 72.8849 54.0859 72.7769 54.0518C72.8338 53.9551 72.8792 53.8414 72.9589 53.7618C74.591 52.1466 76.2231 50.5371 77.8552 48.9219C78.1566 48.6261 78.4636 48.41 78.9186 48.484C79.1859 48.5238 79.4645 48.5238 79.7375 48.5238C80.9999 48.5238 82.2624 48.5238 83.5249 48.5124C83.7978 48.5124 83.8888 48.5977 83.8774 48.8707C83.8433 49.519 83.8206 50.1617 83.8206 50.8101C83.8206 51.8508 83.8319 52.8916 83.8433 53.9324C83.8433 54.1201 83.758 54.2111 83.5647 54.2054C83.2007 54.194 82.8368 54.1997 82.4671 54.194C81.5686 54.194 80.6644 54.1826 79.7659 54.1769C79.0835 54.1769 78.3954 54.1713 77.713 54.1656C76.9566 54.1656 76.1946 54.1542 75.4383 54.1542H75.4326V54.1599Z" fill="#20583B"/>
<path d="M3.41766 40.5439H22.9858C23.4381 40.5439 23.8047 40.1773 23.8047 39.725V37.9449C23.8047 37.4925 23.4381 37.1259 22.9858 37.1259H3.41766C2.9654 37.1259 2.59876 37.4925 2.59876 37.9449V39.725C2.59876 40.1773 2.9654 40.5439 3.41766 40.5439Z" fill="#20583B"/>
<path d="M22.7641 42.2487C22.747 40.7075 22.747 39.1719 22.73 37.6306C22.73 37.1188 22.7186 37.1245 23.2532 37.1359C23.8161 37.1472 24.3905 37.1131 24.9478 37.187C25.9146 37.3178 26.8756 37.4828 27.831 37.6875C29.7702 38.1084 31.6297 38.7681 33.3699 39.7236C34.2229 40.1899 35.0191 40.7473 35.8664 41.2307C37.271 42.0326 38.3401 43.2099 39.4604 44.3417C39.8812 44.7682 40.3248 45.1834 40.6831 45.6611C41.2062 46.355 41.6726 47.0886 42.1389 47.8223C43.0715 49.2896 43.7482 50.8764 44.3226 52.5143C44.4989 53.0034 44.6809 53.4982 44.8117 53.9987C44.9538 54.539 45.0334 55.102 45.1472 55.648C45.2438 56.12 45.3917 56.5864 45.4372 57.0641C45.5225 57.957 45.5737 58.8556 45.5851 59.7542C45.6078 61.4718 45.5851 63.1837 45.5964 64.9012C45.5964 66.6358 45.6135 68.3705 45.6249 70.1051C45.6362 71.5212 45.6704 72.9374 45.676 74.3535C45.6874 76.8389 45.676 79.3185 45.6931 81.8039C45.6931 82.0143 45.6931 81.9972 45.6931 82.2304C45.6419 82.2304 44.9823 82.2418 44.5842 82.2418C42.4744 82.2418 40.3646 82.2588 38.2548 82.2702C35.6275 82.2873 33.0003 82.2987 30.3787 82.3157C27.939 82.3328 25.4994 82.3612 23.0598 82.3783C22.4286 82.3783 21.7973 82.4124 21.1718 82.3555C20.478 82.293 19.7956 82.1508 19.1075 82.0314C18.6241 81.946 18.1351 81.8664 17.6631 81.7413C16.8214 81.5195 15.957 81.3261 15.1495 81.0076C14.0349 80.5697 12.9431 80.0465 11.8683 79.5062C11.2029 79.1706 10.6001 78.7157 9.94045 78.3631C9.2751 78.0048 8.71211 77.527 8.17187 77.0152C7.37573 76.2587 6.55115 75.5365 5.79481 74.7402C4.82806 73.7279 4.09447 72.5393 3.37793 71.3506C2.52492 69.9345 1.83114 68.4444 1.35345 66.8633C1.04636 65.8396 0.773399 64.7989 0.551616 63.7581C0.398073 63.0415 0.335519 62.3078 0.261591 61.5798C0.204723 61.0282 0.153542 60.4765 0.153542 59.9248C0.153542 58.9068 0.199037 57.8831 0.204723 56.8651C0.21041 55.7106 0.199037 54.556 0.19335 53.4072C0.187663 51.8887 0.17629 50.3645 0.164916 48.846C0.159229 47.7711 0.153542 46.7019 0.142169 45.627C0.130795 44.717 0.0853014 43.807 0.0796146 42.8971C0.0796146 41.2193 0.0966749 39.5359 0.0909881 37.8581C0.0909881 37.6477 0.0284338 37.443 0 37.2439C1.85957 37.2325 3.71914 37.2212 5.61283 37.2098V37.6875C5.61283 40.6051 5.65832 40.315 5.62989 40.6222C5.62989 40.6222 5.68676 42.1805 5.64695 42.4364C5.71519 42.6696 5.78343 42.8288 5.82324 42.8686C6.14739 43.2156 6.51702 43.5227 6.84686 43.8696C7.19944 44.2336 7.51789 44.6374 7.87616 44.9957C8.70074 45.8317 9.54238 46.645 10.3783 47.4697C10.5489 47.6403 10.7139 47.8166 10.8901 47.9758C10.9584 48.0384 11.0494 48.0668 11.1347 48.1123C11.1688 48.027 11.2257 47.9417 11.2257 47.8564C11.2313 47.4412 11.2257 47.0261 11.2257 46.6166C11.2086 45.354 11.1859 44.0914 11.1688 42.8231C11.1574 41.9473 11.1347 41.4866 11.1347 40.6051C11.1347 39.7236 11.1517 38.3529 11.1631 37.4316C11.1631 37.2439 11.2484 37.2041 11.4304 37.1984C12.9772 37.187 14.524 37.1586 16.0708 37.1359C16.3892 37.1359 16.702 37.1359 17.0205 37.1586C17.0773 37.1586 17.1683 37.2837 17.1683 37.3463C17.174 38.933 17.1683 40.5255 17.1683 42.1122C17.1683 43.2042 17.1569 44.3018 17.1683 45.3938C17.174 46.3777 17.2195 47.3559 17.2195 48.3398C17.2195 50.0858 17.2024 51.8318 17.1854 53.5778C17.1854 53.9873 17.3389 54.3172 17.6233 54.5958C19.261 56.194 20.8932 57.7921 22.5309 59.3846C22.5992 59.4528 22.7072 59.4812 22.7982 59.5324C22.821 59.4414 22.8665 59.3504 22.8665 59.2594C22.8665 57.6897 22.8494 56.1144 22.8437 54.5447C22.8437 53.7769 22.8323 53.0091 22.8323 52.2413C22.8323 51.0925 22.821 49.9436 22.8096 48.7948C22.7982 47.2251 22.7925 45.6554 22.7812 44.0857V43.1871M34.1888 70.8444C34.1717 70.8899 34.1547 70.9298 34.1376 70.9753C26.2444 71.0208 18.3512 71.0662 10.3783 71.1174C10.4636 71.2539 10.5148 71.3677 10.5944 71.4473C10.9015 71.743 11.22 72.0217 11.5327 72.3118C11.9991 72.7383 12.4199 73.2274 12.9317 73.5857C14.3704 74.6094 15.94 75.3943 17.6346 75.9289C19.0961 76.3839 20.5861 76.6455 22.1101 76.6853C22.8835 76.708 23.6626 76.6569 24.436 76.6569H29.247C30.8279 76.6512 32.4088 76.6227 33.9898 76.617C35.7925 76.6057 37.5895 76.6171 39.3922 76.6114C39.8301 76.6114 39.8983 76.5488 39.8926 76.1223C39.8926 75.6502 39.8528 75.1782 39.8528 74.7061C39.8528 73.2559 39.8642 71.8056 39.8528 70.3553C39.8414 68.6662 39.813 66.9714 39.8016 65.2823C39.7846 63.3031 39.7789 61.3182 39.7618 59.3391C39.7448 57.3485 39.3296 55.4319 38.6301 53.5778C38.0842 52.1276 37.3449 50.774 36.3896 49.5512C35.9972 49.0507 35.5422 48.5901 35.0987 48.1351C34.5243 47.5436 33.9556 46.9351 33.3244 46.4061C32.8069 45.9682 32.2212 45.6099 31.6411 45.263C30.6061 44.6431 29.5143 44.1483 28.3144 43.7559C28.2973 43.9322 28.2689 44.063 28.2689 44.1995C28.2803 46.1275 28.2916 48.0555 28.303 49.9835C28.3144 51.5531 28.3201 53.1228 28.3314 54.6925C28.3314 55.7447 28.3428 56.7968 28.3485 57.8433C28.3485 58.7305 28.3599 59.6177 28.3656 60.5049C28.3656 61.8813 28.3997 63.2519 28.3826 64.6282C28.3826 65.0889 28.5589 65.4301 28.8603 65.7259C30.4469 67.3013 32.0335 68.8766 33.6315 70.4463C33.7907 70.6056 33.9954 70.7193 34.1831 70.8558V70.8444H34.1888ZM28.1267 65.288L28.1722 65.2027C28.0073 65.032 27.8481 64.8671 27.6831 64.6965C26.233 63.2292 24.7829 61.7618 23.3271 60.3002C23.0541 60.0272 22.7584 59.8338 22.3205 59.8452C20.6316 59.8964 18.9369 59.9192 17.2479 59.9305C16.3324 59.9362 15.4168 59.9021 14.5069 59.9021C13.3127 59.9021 12.1242 59.9135 10.9299 59.9135H7.76242C7.56908 59.9135 7.37572 59.9931 7.18806 59.9874C6.86392 59.9874 6.53977 59.9248 6.20994 59.9192C5.77206 59.9078 5.77206 59.9192 5.78912 60.3628C5.86873 61.9836 6.19288 63.5647 6.63645 65.1173C6.70469 65.3505 6.8298 65.4415 7.0857 65.4358C9.09881 65.4131 11.1119 65.4017 13.1307 65.3903C15.7694 65.3733 18.4137 65.3562 21.0524 65.3391C23.3157 65.3278 25.579 65.3107 27.8424 65.2993C27.939 65.2993 28.0357 65.288 28.1267 65.2823V65.288ZM14.1316 54.1579C14.9107 54.1579 15.6898 54.1522 16.4689 54.1409C16.5769 54.1409 16.6793 54.084 16.7873 54.0499C16.7304 53.9532 16.6849 53.8394 16.6053 53.7598C14.9732 52.1446 13.3411 50.5351 11.709 48.9199C11.4076 48.6242 11.1006 48.4081 10.6456 48.482C10.3783 48.5218 10.0997 48.5218 9.82672 48.5218C8.56426 48.5218 7.3018 48.5218 6.03934 48.5104C5.76637 48.5104 5.67538 48.5957 5.68676 48.8687C5.72088 49.5171 5.74363 50.1598 5.74363 50.8081C5.74363 51.8489 5.73225 52.8897 5.72088 53.9304C5.72088 54.1181 5.80618 54.2091 5.99953 54.2034C6.36348 54.192 6.72743 54.1977 7.09707 54.192C7.99558 54.192 8.89978 54.1807 9.79828 54.175C10.4807 54.175 11.1688 54.1693 11.8512 54.1636C12.6075 54.1636 13.3696 54.1522 14.1259 54.1522H14.1316V54.1579Z" fill="#20583B"/>
<path d="M24.0949 31.6274C24.8114 17.8471 37.7147 9.04314 49.9355 12.5124C58.7386 15.0148 64.7154 22.704 65.0339 32.3212C65.0964 34.1867 63.1743 35.7279 60.8427 35.6767C59.9101 35.654 58.9661 35.5346 58.0562 35.3241C48.8892 33.2028 39.7335 33.2596 30.5835 35.3867C29.213 35.7052 27.8652 35.9497 26.4663 35.2957C24.4134 34.3345 24.0494 33.8796 24.0949 31.6274Z" fill="#DDAE07"/>
<path d="M46.1538 7.00294C46.2732 5.32518 46.404 3.72706 46.5007 2.12893C46.6031 0.479611 47.6324 0.479611 48.7185 0.542171C49.89 0.610419 50.5156 1.12796 50.2483 2.58391C49.9128 4.41522 49.6682 6.26928 49.3896 8.11765C49.2076 9.33473 48.8721 10.3584 47.4561 10.148C46.0799 9.94895 46.1766 8.80581 46.1538 7.72522V7.00294Z" fill="#DDAE07"/>
<path d="M36.6559 10.0131C36.7753 11.0994 36.1953 11.5145 35.5413 11.8558C34.8304 12.2198 34.2902 11.9354 33.9717 11.179C33.1244 9.17706 32.26 7.17514 31.4923 5.1334C30.8327 3.38171 32.2714 3.29071 33.096 2.75611C33.9717 2.19307 34.4551 2.60824 34.8191 3.58077C35.6152 5.69644 36.1384 7.9088 36.6559 10.0188V10.0131Z" fill="#DDAE07"/>
<path d="M58.9944 14.4819C57.749 14.5331 56.7765 13.0259 57.4021 11.8657C58.4257 9.9605 59.5517 8.11781 60.6492 6.25807C61.4454 4.90449 62.3097 5.53009 63.1514 6.18982C63.9987 6.85523 64.7607 7.50358 63.7769 8.76048C62.4974 10.3927 61.3089 12.1103 60.0805 13.788C59.8019 14.1691 59.4721 14.4591 59.0001 14.4819H58.9944Z" fill="#DDAE07"/>
<path d="M70.2059 13.5762C70.1774 14.27 69.8817 14.5885 69.495 14.8615C67.7947 16.0501 66.0773 17.2217 64.3997 18.4331C63.2339 19.2805 62.4605 18.7175 61.6928 17.9042C60.8284 16.9942 61.5791 16.4483 62.2103 15.8966C63.6604 14.6226 65.1276 13.3714 66.5948 12.1145C67.0782 11.6994 67.5615 11.1022 68.3008 11.5287C69.2107 12.052 69.9443 12.7686 70.2059 13.5762Z" fill="#DDAE07"/>
<path d="M42.3948 8.02132C42.5939 9.66495 41.8887 10.137 40.9504 10.3531C39.9552 10.5806 39.5685 9.91519 39.3979 8.98247C38.9998 6.82699 38.5961 4.66581 38.2947 2.48758C38.0786 0.940637 39.1761 0.821204 40.0689 0.622148C41.0243 0.411718 41.8205 0.644897 41.9114 2.02122C42.0536 4.15396 42.4403 7.03173 42.4005 8.02132H42.3948Z" fill="#DDAE07"/>
<path d="M24.7717 22.4557C24.7205 23.542 23.5888 24.2359 22.2866 23.8548C20.2166 23.252 18.175 22.5695 16.1392 21.8756C14.3535 21.2671 15.8491 19.5723 15.8491 19.5723C16.0198 19.3505 16.7363 18.2073 17.9987 18.7874C19.8583 19.6348 21.7634 20.4311 23.6457 21.25C24.2428 21.5116 24.8456 21.7733 24.7717 22.4501V22.4557Z" fill="#DDAE07"/>
<path d="M26.872 6.42802C27.5487 6.39959 27.9183 6.85457 28.2311 7.32093C29.3571 8.98731 30.449 10.6764 31.5522 12.3599C31.9673 12.9855 32.2289 13.6281 31.4385 14.1514C30.6992 14.6462 29.8803 15.2547 29.0614 14.3561C27.5373 12.6727 26.0417 10.9665 24.62 9.20342C24.0229 8.46408 25.6436 6.51333 26.872 6.42802Z" fill="#DDAE07"/>
<path d="M73.6548 20.6185C73.7174 21.3066 73.2113 21.5853 72.6312 21.8185C70.675 22.609 68.7131 23.3939 66.7625 24.2072C65.7844 24.611 65.1247 24.4176 64.6527 23.4962C64.2035 22.6147 64.0385 21.9209 65.1986 21.3465C66.9047 20.5047 68.5424 19.5379 70.2257 18.645C72.0796 17.6611 73.6719 18.5881 73.6548 20.6185Z" fill="#DDAE07"/>
<path d="M53.5125 11.6442C52.6823 11.2745 51.5449 11.0698 51.9942 9.40343C52.5515 7.356 53.1145 5.30858 53.6775 3.26115C53.9732 2.19194 54.5248 1.57771 55.52 2.23744C56.3389 2.77773 57.9027 2.79479 57.2203 4.6261C56.4412 6.72471 55.5484 8.77214 54.7068 10.8423C54.4907 11.3712 54.1836 11.7352 53.5069 11.6385L53.5125 11.6442Z" fill="#DDAE07"/>
<path d="M19.7693 29.4961C18.3248 29.3425 16.6074 29.1776 14.9014 28.9671C13.4683 28.7851 13.093 28.0287 13.3546 26.8628C13.6162 25.6969 14.2986 25.1168 15.7032 25.4069C17.5799 25.7936 19.4281 26.2714 21.3047 26.6297C22.3909 26.8344 22.9766 27.2325 22.8174 28.2505C22.6581 29.2799 21.8961 29.5416 20.8384 29.5017C20.5711 29.4904 20.3038 29.5017 19.7693 29.5017V29.4961Z" fill="#DDAE07"/>
<path d="M70.4929 34.7967C71.9373 34.6545 73.6547 34.5067 75.3607 34.3133C76.7938 34.1484 77.1691 33.4602 76.9075 32.3967C76.646 31.3331 75.9635 30.8042 74.5589 31.0715C72.6823 31.4241 70.8341 31.8621 68.9575 32.1862C67.8713 32.3739 67.2855 32.7379 67.4448 33.6649C67.604 34.6033 68.366 34.8422 69.4238 34.8081C69.691 34.7967 69.9583 34.8081 70.4929 34.8081V34.7967Z" fill="#DDAE07"/>
<path d="M18.7736 35.0214C17.3235 34.9873 15.6004 34.9646 13.883 34.8963C12.4442 34.8394 12.0177 34.174 12.1997 33.0991C12.3817 32.0185 13.0243 31.4441 14.446 31.6034C16.3397 31.8138 18.2163 32.1152 20.1157 32.3029C21.2132 32.411 21.8217 32.7295 21.7364 33.6622C21.6511 34.6063 20.9061 34.902 19.8484 34.9475C19.5811 34.9589 19.3195 34.9873 18.7793 35.0271H18.7736V35.0214Z" fill="#DDAE07"/>
<path d="M69.7878 29.1211C71.2322 28.9675 72.9496 28.8026 74.6557 28.5921C76.0887 28.4101 76.4641 27.6537 76.2025 26.4878C75.9409 25.3219 75.2585 24.7418 73.8538 25.0319C71.9772 25.4186 70.129 25.8964 68.2524 26.2547C67.1662 26.4594 66.5805 26.8575 66.7397 27.8755C66.8989 28.9049 67.661 29.1666 68.7187 29.1267C68.986 29.1154 69.2532 29.1267 69.7878 29.1267V29.1211Z" fill="#DDAE07"/>
<path d="M27.8586 17.1914C27.8927 18.2208 26.6246 19.2104 25.6976 18.8066C23.3433 17.7772 21.3131 16.2701 19.3512 14.7402C18.3162 13.9326 20.045 12.5279 20.045 12.5279C20.045 12.5279 20.8127 11.561 21.8249 11.8738C23.9063 13.3696 25.9421 14.9393 27.688 16.7706C27.8074 16.8957 27.8245 17.1004 27.8586 17.1971V17.1914Z" fill="#DDAE07"/>
</g>
<defs>
<clipPath id="clip0_649_2">
<rect width="88" height="81.8743" fill="white" transform="translate(0 0.525391)"/>
</clipPath>
</defs>
</svg>
